<svg xmlns="http://www.w3.org/2000/svg" viewBox="0 0 1127 343.6">
    <defs>
        <style>
            .clsc-1,.clsc-10,.clsc-4{fill:none}.clsc-1,.clsc-5{stroke:#ffd729}.clsc-1,.clsc-4{stroke-width:2px}.clsc-2{fill:#ffd729}.clsc-3,.clsc-7{font-size:14px}.clsc-3{font-family:SegoeUI-SemiBold,Segoe UI;font-weight:600}.clsc-4{stroke:#000;stroke-miterlimit:10}.clsc-5{fill:#f5f7f9;stroke-width:4px}.clsc-6{fill:#e8ecef}.clsc-7{font-family:SegoeUI,Segoe UI}.clsc-8{font-size:16px;font-family:SegoeUI-Bold,Segoe UI;font-weight:700}.clsc-9{stroke:none}
        </style>
    </defs>
    <g id="Group_338" data-name="Group 338" transform="translate(-117 -1108.4)">
        <g id="Group_172" data-name="Group 172" transform="translate(0 80)">
            <path id="Path_201" d="M10709.976 1179.8l.024-124" class="clsc-1" data-name="Path 201" transform="translate(-9481.5 172)"/>
            <path id="Path_202" d="M10710 1055.8v122.883l1095.714-.038" class="clsc-1" data-name="Path 202" transform="translate(-10576.5 172)"/>
        </g>
        <path id="Rectangle_182" d="M0 0h320v40H0z" class="clsc-2" data-name="Rectangle 182" transform="translate(520 1412)"/>
        <text id="Рассмотрение_предложения_о_продаже_объекта" class="clsc-3" data-name="Рассмотрение предложения о продаже объекта" transform="translate(148 1335)">
            <tspan x="0" y="15">Рассмотрение </tspan><tspan x="0" y="33">предложения </tspan><tspan x="0" y="51">о продаже объекта</tspan>
        </text>
        <text id="Осмотр_помещения" class="clsc-3" data-name="Осмотр помещения" transform="translate(267 1123.4)">
            <tspan x="-65.974" y="0">Осмотр помещения</tspan>
        </text>
        <text id="Запрос_документов" class="clsc-3" data-name="Запрос документов" transform="translate(407 1350)">
            <tspan x="-25.255" y="0">Запрос </tspan><tspan x="-39.433" y="18">документов</tspan>
        </text>
        <text id="Предварительная_оценка" class="clsc-3" data-name="Предварительная оценка" transform="translate(540.5 1123.4)">
            <tspan x="-84.537" y="0">Предварительная оценка</tspan>
        </text>
        <text id="Подписание_Non_Binding_Offer" class="clsc-3" data-name="Подписание Non Binding Offer" transform="translate(601 1335)">
            <tspan x="38.292" y="15">Подписание</tspan><tspan x="20.601" y="33">Non Binding Offer</tspan>
        </text>
        <text id="Due_Dilligence" class="clsc-3" data-name="Due Dilligence" transform="translate(815.5 1123.4)">
            <tspan x="-46.115" y="0">Due Dilligence</tspan>
        </text>
        <text id="Подписание_договора" class="clsc-3" data-name="Подписание договора" transform="translate(957 1350)">
            <tspan x="-42.632" y="0">Подписание </tspan><tspan x="-30.905" y="18">договора</tspan>
        </text>
        <text id="Фондирование_сделки" class="clsc-3" data-name="Фондирование сделки" transform="translate(1088 1123.4)">
            <tspan x="-74.847" y="0">Фондирование сделки</tspan>
        </text>
        <text id="Закрытие_сделки" class="clsc-3" data-name="Закрытие сделки" transform="translate(1212 1347)">
            <tspan x="-63.253" y="0">Закрытие</tspan><tspan x="-45.767" y="18">сделки</tspan>
        </text>
        <path id="Path_195" d="M1230 124c-68.3 0-68.3-118-136.7-118-68.3 0-68.3 118-136.6 118C888.3 124 888.3 6 820 6s-68.3 118-136.7 118C615 124 615 6 546.7 6 478.3 6 478.3 124 410 124S341.7 6 273.3 6C205 6 205 124 136.7 124" class="clsc-4" data-name="Path 195" transform="translate(-5 1168)"/>
        <g id="Ellipse_24" class="clsc-5" data-name="Ellipse 24" transform="translate(117 1276)">
            <circle cx="16" cy="16" r="16" class="clsc-9"/>
            <circle cx="16" cy="16" r="14" class="clsc-10"/>
        </g>
        <g id="Ellipse_25" class="clsc-5" data-name="Ellipse 25" transform="translate(390 1276)">
            <circle cx="16" cy="16" r="16" class="clsc-9"/>
            <circle cx="16" cy="16" r="14" class="clsc-10"/>
        </g>
        <g id="Ellipse_26" class="clsc-5" data-name="Ellipse 26" transform="translate(664 1276)">
            <circle cx="16" cy="16" r="16" class="clsc-9"/>
            <circle cx="16" cy="16" r="14" class="clsc-10"/>
        </g>
        <g id="Ellipse_27" class="clsc-5" data-name="Ellipse 27" transform="translate(938 1276)">
            <circle cx="16" cy="16" r="16" class="clsc-9"/>
            <circle cx="16" cy="16" r="14" class="clsc-10"/>
        </g>
        <g id="Ellipse_24-2" class="clsc-5" data-name="Ellipse 24" transform="translate(251 1158)">
            <circle cx="16" cy="16" r="16" class="clsc-9"/>
            <circle cx="16" cy="16" r="14" class="clsc-10"/>
        </g>
        <g id="Ellipse_25-2" class="clsc-5" data-name="Ellipse 25" transform="translate(524 1158)">
            <circle cx="16" cy="16" r="16" class="clsc-9"/>
            <circle cx="16" cy="16" r="14" class="clsc-10"/>
        </g>
        <g id="Ellipse_26-2" class="clsc-5" data-name="Ellipse 26" transform="translate(799 1158)">
            <circle cx="16" cy="16" r="16" class="clsc-9"/>
            <circle cx="16" cy="16" r="14" class="clsc-10"/>
        </g>
        <g id="Ellipse_27-2" class="clsc-5" data-name="Ellipse 27" transform="translate(1072 1158)">
            <circle cx="16" cy="16" r="16" class="clsc-9"/>
            <circle cx="16" cy="16" r="14" class="clsc-10"/>
        </g>
        <path id="Path_196" d="M8.555 0l77.714 5.308L82.159 32H0z" class="clsc-6" data-name="Path 196" transform="translate(158 1214)"/>
        <text id="_2_дня" class="clsc-7" data-name="2 дня" transform="translate(201 1237)">
            <tspan x="-17.08" y="0">2 дня</tspan>
        </text>
        <path id="Path_196-2" d="M8.555 0l77.714 5.308L82.159 32H0z" class="clsc-6" data-name="Path 196" transform="matrix(-.998 .07 -.07 -.998 381.279 1245.952)"/>
        <text id="_1_день" class="clsc-7" data-name="1 день" transform="translate(337 1237)">
            <tspan x="-20.747" y="0">1 день</tspan>
        </text>
        <path id="Path_196-3" d="M8.555 0l77.714 5.308L82.159 32H0z" class="clsc-6" data-name="Path 196" transform="translate(436 1214)"/>
        <text id="_7_дней" class="clsc-7" data-name="7 дней" transform="translate(479 1237)">
            <tspan x="-21.287" y="0">7 дней</tspan>
        </text>
        <path id="Path_196-4" d="M8.555 0l77.714 5.308L82.159 32H0z" class="clsc-6" data-name="Path 196" transform="matrix(-.998 .07 -.07 -.998 659.279 1245.952)"/>
        <text id="_1_день-2" class="clsc-7" data-name="1 день" transform="translate(615 1237)">
            <tspan x="-20.747" y="0">1 день</tspan>
        </text>
        <path id="Path_196-5" d="M8.555 0l77.714 5.308L82.159 32H0z" class="clsc-6" data-name="Path 196" transform="translate(708 1214)"/>
        <text id="_30_дней" class="clsc-7" data-name="30 дней" transform="translate(751 1237)">
            <tspan x="-25.061" y="0">30 дней</tspan>
        </text>
        <path id="Path_196-6" d="M8.555 0l77.714 5.308L82.159 32H0z" class="clsc-6" data-name="Path 196" transform="matrix(-.998 .07 -.07 -.998 931.279 1245.952)"/>
        <text id="_1_день-3" class="clsc-7" data-name="1 день" transform="translate(887 1237)">
            <tspan x="-20.747" y="0">1 день</tspan>
        </text>
        <path id="Path_196-7" d="M8.555 0l77.714 5.308L82.159 32H0z" class="clsc-6" data-name="Path 196" transform="translate(976 1214)"/>
        <text id="_45_дней" class="clsc-7" data-name="45 дней" transform="translate(1019 1237)">
            <tspan x="-25.061" y="0">45 дней</tspan>
        </text>
        <path id="Path_196-8" d="M8.555 0l77.714 5.308L82.159 32H0z" class="clsc-6" data-name="Path 196" transform="matrix(-.998 .07 -.07 -.998 1199.279 1245.952)"/>
        <text id="_1_день-4" class="clsc-7" data-name="1 день" transform="translate(1155 1237)">
            <tspan x="-20.747" y="0">1 день</tspan>
        </text>
        <g id="Ellipse_28" class="clsc-5" data-name="Ellipse 28" transform="translate(1212 1276)">
            <circle cx="16" cy="16" r="16" class="clsc-9"/>
            <circle cx="16" cy="16" r="14" class="clsc-10"/>
        </g>
        <g id="Group_171" data-name="Group 171" transform="translate(-13 80)">
            <path id="Path_197" d="M10710 1078v-22.2" class="clsc-1" data-name="Path 197" transform="translate(-10430 1)"/>
            <path id="Path_198" d="M10710 1078v-22.2" class="clsc-1" data-name="Path 198" transform="translate(-10156.5 1)"/>
            <path id="Path_199" d="M10710 1078v-22.2" class="clsc-1" data-name="Path 199" transform="translate(-9881.5 1)"/>
            <path id="Path_200" d="M10710 1078v-22.2" class="clsc-1" data-name="Path 200" transform="translate(-9608.5 1)"/>
        </g>
        <path id="Path_198-2" d="M10710 1079.8v-24" class="clsc-1" data-name="Path 198" transform="translate(-10303.5 252)"/>
        <path id="Path_199-2" d="M10710 1079.8v-24" class="clsc-1" data-name="Path 199" transform="translate(-10029.5 252)"/>
        <path id="Path_200-2" d="M10710 1079.8v-24" class="clsc-1" data-name="Path 200" transform="translate(-9755.5 252)"/>
        <text id="Срок_закрытия_сделки_90_дней" class="clsc-8" data-name="Срок закрытия сделки — 90 дней" transform="translate(680 1437)">
            <tspan x="-131.5" y="0">Срок закрытия сделки — 90 дней</tspan>
        </text>
    </g>
</svg>
