<svg xmlns="http://www.w3.org/2000/svg" viewBox="0 0 80.151 80" width='80'>
    <defs>
        <style>
            .cls-1{fill:#2c3944}.cls-2{fill:#ffd729}
        </style>
    </defs>
    <g id="Group_335" data-name="Group 335" transform="translate(-929 -313)">
        <g id="Group_334" data-name="Group 334">
            <path id="Path_33" d="M40.094-15.833c18.078 0 30.687 29 30.687 47.443S50.944 64.167 32.866 64.167.948 45.629.948 27.187s21.069-43.02 39.146-43.02z" class="cls-1" data-name="Path 33" transform="rotate(90 338.058 655.11)"/>
            <g id="Group_138" data-name="Group 138" transform="translate(929 313)">
                <path id="Path_148" class="cls-2" d="M13.6 259.316H1.242A1.243 1.243 0 0 0 0 260.558V293.5a1.243 1.243 0 0 0 1.242 1.242H13.6a1.243 1.243 0 0 0 1.242-1.242v-2.882h33.747a1.216 1.216 0 0 0 .876-.366l30.328-30.328a1.249 1.249 0 0 0 0-1.751 9.494 9.494 0 0 0-13.4 0L54.957 269.6l-.573-.557a4.755 4.755 0 0 0-.446-.382 5.426 5.426 0 0 0-3.264-1.114H38.989l-.207-.494a9.444 9.444 0 0 0-8.677-5.684h-8.246a9.49 9.49 0 0 0-5.684 1.895l-1.305.987v-3.694a1.292 1.292 0 0 0-1.27-1.241zm-1.242 32.939H2.484V261.8h9.871zm2.675-23c.016-.08.032-.143.048-.207a6.967 6.967 0 0 1 6.734-5.174h8.247a6.969 6.969 0 0 1 6.766 5.238 1.243 1.243 0 0 0 1.21.939h12.621a2.844 2.844 0 0 1 1.767.621 2.793 2.793 0 0 1 .955 1.369c.016.016.016.048.032.08l.016.032a2.672 2.672 0 0 1 .111.8 2.846 2.846 0 0 1-.876 2.038 2.784 2.784 0 0 1-1.974.828H28.816v2.452h21.827a5.409 5.409 0 0 0 5.365-5.365c0-.064-.016-.143-.016-.223 0-.064-.016-.111-.016-.175l-.032-.382.08-.08 12.131-12.115a7.025 7.025 0 0 1 7.96-1.369l1.051.494-29.086 29.076H14.838v-17.29a6.051 6.051 0 0 1 .191-1.591z" data-name="Path 148" transform="translate(0 -214.739)"/>
                <path id="Path_149" class="cls-2" d="M138.027 43.654A21.827 21.827 0 1 0 116.2 21.827a21.851 21.851 0 0 0 21.827 21.827zm0-41.17a19.343 19.343 0 1 1-19.343 19.343 19.364 19.364 0 0 1 19.343-19.343z" data-name="Path 149" transform="translate(-97.7)"/>
                <path id="Path_150" class="cls-2" d="M214.415 75.589h-6.8a2.174 2.174 0 0 1-2.181-2.181 2.184 2.184 0 0 1 2.181-2.181h6.32v-2.42h-1.7V65.4H209.8v3.391h-2.181a4.617 4.617 0 0 0 0 9.234h6.8a2.174 2.174 0 0 1 2.181 2.181 2.184 2.184 0 0 1-2.181 2.181h-6.8a2.169 2.169 0 0 1-2.117-1.7h-2.468a4.623 4.623 0 0 0 4.585 4.139h2.181v3.391h2.436v-3.394h2.181a4.617 4.617 0 0 0 0-9.234z" data-name="Path 150" transform="translate(-170.682 -54.988)"/>
            </g>
        </g>
    </g>
</svg>
