<svg xmlns="http://www.w3.org/2000/svg" viewBox="0 0 80 80" width='80' height='80'>
    <defs>
        <style>
            .cls-1{fill:#2c3944}.cls-2{fill:#ffd729}
        </style>
    </defs>
    <g id="Group_332" data-name="Group 332" transform="translate(-346.5 -313)">
        <path id="Path_26" d="M40.047-8.333C58.628-8.333 75 7.7 75 26.111S58.628 63.519 40.047 63.519-5 54.521-5 36.111 21.465-8.333 40.047-8.333z" class="cls-1" data-name="Path 26" transform="rotate(144 158.41 247.359)"/>
        <g id="Group_137" data-name="Group 137" transform="translate(347 313)">
            <path id="Path_146" class="cls-2" d="M79.984 26.983h-5.722l.19-.616a11.006 11.006 0 0 0 .458-2.767h-2.418a8.922 8.922 0 0 1-8.884 8.425H55.5l.537-.743a19.588 19.588 0 0 0 3.446-14.811l-.095-.553H66.5v-2.434H51.8a3.841 3.841 0 0 1 0-7.682h11.808a8.936 8.936 0 0 1 8.9 8.425h2.418a11.768 11.768 0 0 0-.458-2.766l-.19-.616h5.706v-1.2a1.218 1.218 0 0 0-1.217-1.217h-5.738l-.142-.205a11.351 11.351 0 0 0-9.295-4.853H51.784a7.1 7.1 0 0 0-.806.047l-1.012.126.4-.616A19.766 19.766 0 0 0 39.992 0 19.766 19.766 0 0 0 26.92 34.586l.933.822h-3.036a4.587 4.587 0 0 0-4.584 4.584v5.533h-3.841A11.372 11.372 0 0 0 7.1 50.377l-.142.205H1.217A1.218 1.218 0 0 0 0 51.8v1.217h5.722l-.19.616a11.006 11.006 0 0 0-.458 2.767h2.419a8.922 8.922 0 0 1 8.884-8.425h15.174a3.833 3.833 0 1 1 .016 7.666h-14.7v2.419h3.367v16.123h-3.842a8.936 8.936 0 0 1-8.9-8.425H5.074a11.768 11.768 0 0 0 .458 2.766l.19.616H0v1.217a1.218 1.218 0 0 0 1.217 1.217h5.738l.142.205a11.351 11.351 0 0 0 9.295 4.853h4l.111.316A4.582 4.582 0 0 0 24.817 80h37.1a4.587 4.587 0 0 0 4.583-4.584V38.775h-2.418V75.4a2.169 2.169 0 0 1-2.166 2.166h-37.1a2.169 2.169 0 0 1-2.164-2.166V58.06h8.9a6.26 6.26 0 0 0 6.07-4.695l.094-.365h3.952a1.218 1.218 0 0 0 1.217-1.217V39.3l.4-.063a20.84 20.84 0 0 0 2.071-.458 19.8 19.8 0 0 0 7.7-4.189l.142-.126h10.4a11.372 11.372 0 0 0 9.295-4.853l.142-.205h5.738a1.218 1.218 0 0 0 1.217-1.217v-1.2zM28.658 45.525h-6.006v-5.533a2.169 2.169 0 0 1 2.166-2.166h3.841zm11.808 5.058h-2.734l-.095-.364a6.26 6.26 0 0 0-6.07-4.695h-.474v-8.108l.664.316a19.649 19.649 0 0 0 8.236 1.786h.474v11.065zM52.337 31.9l-.205.205a17.412 17.412 0 0 1-10.275 4.837 17.2 17.2 0 0 1-1.8.095 17.29 17.29 0 1 1 7.491-32.864l.648.316-.537.474a6.161 6.161 0 0 0-2.134 4.679 6.281 6.281 0 0 0 6.275 6.276h5.106l.079.379a17.2 17.2 0 0 1-2.435 12.851 17.754 17.754 0 0 1-2.213 2.752z" data-name="Path 146"/>
            <path id="Path_147" class="cls-2" d="M213.934 63.417h-6.75a2.159 2.159 0 0 1-2.166-2.166 2.169 2.169 0 0 1 2.166-2.166h6.275v-2.4h-1.691V53.3h-2.418v3.367h-2.166a4.584 4.584 0 0 0 0 9.168h6.75A2.159 2.159 0 0 1 216.1 68a2.169 2.169 0 0 1-2.166 2.166h-6.75a2.153 2.153 0 0 1-2.1-1.691h-2.45a4.59 4.59 0 0 0 4.552 4.11h2.166v3.367h2.418v-3.367h2.166a4.584 4.584 0 1 0 0-9.168z" data-name="Path 147" transform="translate(-170.575 -44.875)"/>
            <path id="Rectangle_164" class="cls-2" d="M0 0h9.168v2.418H0z" data-name="Rectangle 164" transform="translate(50.583 70.816)"/>
            <path id="Rectangle_165" class="cls-2" d="M0 0h9.168v2.418H0z" data-name="Rectangle 165" transform="translate(50.583 64.066)"/>
        </g>
    </g>
</svg>
