<svg xmlns="http://www.w3.org/2000/svg" xmlns:xlink="http://www.w3.org/1999/xlink" width="80" height="80" viewBox="0 0 80 80"><defs><path id="ahlga" d="M720 5119.735c0 20.477-31.008 43.265-50.693 43.265S640 5153.682 640 5133.204c0-20.477 20.117-50.204 39.803-50.204 19.685 0 40.197 16.257 40.197 36.735z"/><path id="ahlgb" d="M676.55 5140.22c-.16-.61-.33-1.3-.76-1.87-.42-.57-1.01-.95-1.54-1.28-.41-.26-.75-.48-.9-.67l-.09-.11v-.14c0-.24.15-.64.31-1.1.22-.61.47-1.29.47-2.02s-.25-1.41-.47-2.02l.35-.13-.34.12c-.17-.46-.31-.86-.31-1.1v-.14l.09-.11c.15-.18.49-.41.89-.66.53-.34 1.13-.71 1.55-1.28.42-.57.6-1.26.76-1.87.11-.41.21-.8.33-1l.08-.14.16-.03c.21-.05.61-.04 1.06-.02.24.01.47.02.72.02.52 0 .94-.06 1.31-.18.66-.22 1.2-.66 1.69-1.05.57-.46.87-.67 1.1-.71l.05-.01.05.01c.24.03.55.25 1.11.71.49.39 1.03.83 1.69 1.05.37.12.79.18 1.31.18.25 0 .49-.01.71-.02.46-.02.85-.03 1.06.02l.16.04.08.14c.11.19.21.52.33 1 .16.61.33 1.3.76 1.87.41.57 1.01.94 1.54 1.28.41.26.75.48.9.67l.09.11v.14c0 .24-.15.65-.31 1.11-.22.6-.47 1.29-.47 2.02s.25 1.41.47 2.02c.2.53.31.89.32 1.11v.14l-.09.11c-.15.18-.49.41-.89.66-.53.34-1.13.71-1.55 1.28-.42.58-.6 1.26-.76 1.87-.12.46-.22.81-.33 1l-.08.14-.16.03c-.21.04-.59.04-1.02.02-.92-.04-1.52-.02-2.06.16-.66.22-1.2.66-1.68 1.05-.53.42-.85.66-1.09.71l-.07.01-.07-.01c-.24-.04-.57-.28-1.09-.7-.49-.39-1.04-.83-1.69-1.05-.37-.12-.79-.18-1.31-.18-.24 0-.47.01-.69.02-.57.03-.88.03-1.09-.01l-.16-.03-.08-.14c-.14-.25-.24-.63-.35-1.04zm-1.46 9.66h-22.71v-64.51h33.02v12.95c0 .65.53 1.19 1.19 1.19h12.95v50.36h-8.51v-7.08l.07-.1c.42-.57.6-1.27.76-1.88.13-.51.23-.88.37-1.07.14-.19.46-.4.9-.67.76-.48 1.61-1.02 1.95-2.04.33-1.01-.02-1.96-.33-2.8-.16-.44-.33-.89-.33-1.2 0-.31.17-.76.33-1.19.31-.85.66-1.8.33-2.81-.34-1.02-1.2-1.56-1.95-2.04-.44-.28-.76-.49-.9-.67-.14-.19-.24-.56-.37-1.06-.22-.86-.47-1.83-1.32-2.45-.67-.49-1.47-.55-2.02-.55-.25 0-.48.01-.71.02-.53.03-.95.03-1.16-.04-.23-.08-.54-.31-.95-.64-.72-.58-1.54-1.24-2.65-1.24-1.11 0-1.92.66-2.64 1.23-.42.34-.72.57-.95.65-.21.07-.64.07-1.16.04-.25-.01-.48-.02-.71-.02-.54 0-1.35.06-2.02.55-.85.62-1.1 1.59-1.32 2.45-.13.5-.23.87-.37 1.06-.14.19-.47.41-.9.68-.76.48-1.61 1.02-1.95 2.04-.33 1 .02 1.96.33 2.8.16.44.33.89.33 1.2 0 .31-.17.76-.33 1.19-.31.85-.66 1.81-.33 2.81.34 1.01 1.19 1.56 1.95 2.03.48.3.77.5.9.68.14.19.24.56.37 1.06.16.61.34 1.31.76 1.88l.07.1v7.09zm12.69-62.83l10.08 10.08h-10.08zm.87 71.87l-4.96-3.11c-.38-.24-.88-.24-1.26 0l-4.96 3.11v-15.1l.36-.01c.16 0 .32-.01.48-.02.52-.03.96-.03 1.16.04.23.07.53.31.93.64.73.59 1.54 1.24 2.66 1.24s1.93-.66 2.65-1.24c.41-.33.71-.57.95-.64.23-.07.65-.07 1.16-.04.15.01.31.01.48.02l.37.01v15.1zm-5.59-.71l6.15 3.86a1.191 1.191 0 0 0 1.82-1.01v-8.81h9.7c.66 0 1.19-.53 1.19-1.19v-52.73l.37-.05-.37.02v-.02c0-.07-.01-.13-.02-.18-.01-.05-.02-.1-.04-.15-.03-.08-.05-.13-.07-.17-.03-.05-.05-.09-.08-.13-.06-.07-.09-.12-.13-.15l-14.15-14.15c-.04-.04-.08-.07-.12-.1-.07-.05-.11-.08-.15-.1l-.08-.05c.02.02-.02 0-.07-.01-.08-.03-.13-.04-.18-.05-.05-.01-.11-.03-.16-.04h-35.48c-.66 0-1.19.53-1.19 1.19v66.88c0 .66.53 1.19 1.19 1.19h23.9v8.81c0 .43.24.83.61 1.04.38.21.84.2 1.21-.03z"/><path id="ahlgc" d="M678.95 5097.14h-20.13c-.66 0-1.19.53-1.19 1.19 0 .66.53 1.19 1.19 1.19h20.13c.66 0 1.19-.53 1.19-1.19 0-.66-.53-1.19-1.19-1.19z"/><path id="ahlgd" d="M693.27 5105.03h-34.45c-.66 0-1.19.53-1.19 1.19 0 .66.53 1.19 1.19 1.19h34.44c.66 0 1.19-.53 1.19-1.19 0-.66-.53-1.19-1.18-1.19z"/><path id="ahlge" d="M687.02 5112.91h-28.2c-.66 0-1.19.53-1.19 1.19 0 .66.53 1.19 1.19 1.19h28.19c.66 0 1.19-.53 1.19-1.19 0-.66-.53-1.19-1.18-1.19z"/></defs><g><g transform="translate(-640 -5083)"><use fill="#ffd729" xlink:href="#ahlga"/></g><g transform="translate(-640 -5083)"><g><use xlink:href="#ahlgb"/></g><g><use xlink:href="#ahlgc"/></g><g><use xlink:href="#ahlgd"/></g><g><use xlink:href="#ahlge"/></g></g></g></svg>