<svg xmlns="http://www.w3.org/2000/svg" xmlns:xlink="http://www.w3.org/1999/xlink" width="81" height="77" viewBox="0 0 81 77"><defs><path id="b9g5a" d="M361.511 5154.607c-15.032 10.922-37.703 7.573-48.523-7.32-10.821-14.894-8.743-39.887 6.29-50.809 15.033-10.922 41.732-19.198 52.553-4.305 10.821 14.894 4.713 51.512-10.32 62.434z"/><path id="b9g5b" d="M359.89 5130.42l-.16.03-14.85-14.86c-.48-.48-1.27-.48-1.75 0-.23.23-.36.55-.36.88v14.15h-12.62c-6.1 0-11.07-4.96-11.07-11.07s4.97-11.07 11.07-11.07h27.69c6.1.03 11.05 5.02 11.02 11.12-.02 5.27-3.8 9.82-8.97 10.82zm2.66 6.35h-6.25c-.68 0-1.23.55-1.24 1.23 0 .19.04.39.13.56l4.06 8.12-3.94 1.97-4.04-8.12c-.18-.36-.52-.61-.91-.67-.07-.01-.14-.02-.2-.02-.33 0-.65.13-.88.36l-4.04 4.04v-24.78zm-4.7-30.77h-27.7c-7.47 0-13.55 6.08-13.55 13.55 0 7.47 6.08 13.55 13.55 13.55h12.61v14.15c0 .68.56 1.24 1.24 1.24.33 0 .64-.13.87-.36l4.94-4.94 3.84 7.69c.3.61 1.05.86 1.66.56l6.16-3.08c.3-.15.52-.4.62-.71.1-.3.08-.62-.05-.9l-.05-.11-3.68-7.38h7.23c.68 0 1.24-.56 1.24-1.24 0-.33-.13-.64-.36-.88l-4.62-4.62.45-.16c5.46-1.88 9.14-7.03 9.15-12.81-.02-7.46-6.09-13.54-13.55-13.55z"/><path id="b9g5c" d="M311.69 5118.01h-6.15a1.54 1.54 0 0 0 0 3.08h6.15a1.54 1.54 0 0 0 0-3.08z"/><path id="b9g5d" d="M306.6 5126.8c-.65.22-1 .93-.78 1.58.11.31.33.56.63.71.3.15.63.17.95.06l5.83-2.13c.66-.21 1.02-.91.82-1.56a1.239 1.239 0 0 0-1.56-.8l-.09.03z"/><path id="b9g5e" d="M314.04 5113.23c0-.52-.33-.98-.81-1.16l-5.78-2.11c-.15-.05-.3-.08-.45-.08-.5 0-.97.3-1.16.79-.25.64.07 1.36.71 1.6l5.83 2.13c.14.05.28.08.42.08.69-.01 1.24-.57 1.24-1.25z"/><path id="b9g5f" d="M382.46 5118.31h-6.15c-.68 0-1.24.56-1.24 1.24 0 .68.56 1.24 1.24 1.24h6.15a1.24 1.24 0 1 0 0-2.48z"/><path id="b9g5g" d="M374.07 5112.72c-.14.3-.15.64-.04.95.18.49.64.81 1.16.81h.01c.14 0 .28-.03.41-.08l5.79-2.1c.65-.22 1-.93.78-1.57-.18-.51-.66-.84-1.17-.84-.13 0-.27.02-.4.07l-5.83 2.12c-.32.11-.57.34-.71.64z"/><path id="b9g5h" d="M373.99 5125.37c-.13.31-.12.64 0 .95.13.31.37.54.67.67l.09.03 5.79 2.11a1.244 1.244 0 0 0 1.59-1.66c-.13-.3-.38-.54-.69-.65h-.01l.12-.28-.15.27-5.79-2.11c-.16-.07-.32-.1-.48-.1-.48 0-.94.29-1.14.77z"/></defs><g><g transform="translate(-303 -5084)"><use fill="#ffd729" xlink:href="#b9g5a"/></g><g transform="translate(-303 -5084)"><g><use xlink:href="#b9g5b"/></g><g><use xlink:href="#b9g5c"/><use fill="#fff" fill-opacity="0" stroke="#fff" stroke-miterlimit="50" stroke-width=".6" xlink:href="#b9g5c"/></g><g><use xlink:href="#b9g5d"/></g><g><use xlink:href="#b9g5e"/></g><g><use xlink:href="#b9g5f"/></g><g><use xlink:href="#b9g5g"/></g><g><use xlink:href="#b9g5h"/></g></g></g></svg>