<svg xmlns="http://www.w3.org/2000/svg" xmlns:xlink="http://www.w3.org/1999/xlink" width="80" height="80" viewBox="0 0 80 80"><defs><path id="z3kca" d="M720 970.735c0 20.477-31.008 43.265-50.693 43.265S640 1004.682 640 984.204 660.117 934 679.803 934C699.488 934 720 950.257 720 970.735z"/><path id="z3kcb" d="M672.38 987.44v-23.08l.49-.01c2.4-.04 7.27-.34 12.89-1.93 10.02-2.82 18.03-8.53 23.15-16.51l.92-1.43v62.82l-.92-1.43c-5.13-7.98-13.13-13.68-23.15-16.51-5.62-1.58-10.49-1.89-12.89-1.93zm-17.35.01c-6.4-.02-11.56-5.21-11.56-11.55 0-6.37 5.18-11.55 11.55-11.55h14.88v23.1zm13.95 15.53h-1.18c-.68 0-1.24.55-1.24 1.24s.55 1.24 1.24 1.24h1.78l.64 2.64c.21.86.02 1.74-.53 2.44-.54.69-1.36 1.09-2.24 1.09h-3.34c-1.32 0-2.46-.9-2.77-2.18l-4.74-19.5h9.21l1.47 6.04h-1.47a1.24 1.24 0 1 0 0 2.48h2.07zm43.33-33.17l.6.12a5.78 5.78 0 0 1 4.62 5.65v.64a5.78 5.78 0 0 1-4.62 5.65l-.6.13zm-4.65 38.75a2.47 2.47 0 0 0 2.8 1.15c1.1-.3 1.85-1.26 1.85-2.41v-22.85l.44-.05c4.14-.5 7.25-4.01 7.25-8.18v-.64c0-4.17-3.12-7.68-7.25-8.18l-.44-.05V944.5c0-1.14-.74-2.11-1.84-2.41-1.1-.3-2.23.17-2.8 1.15-4.82 8.26-12.37 13.91-22.47 16.78-7.68 2.18-13.93 1.85-13.99 1.85h-.05c-.05 0-.09 0-.14.01h-15.99c-7.74 0-14.03 6.29-14.03 14.02 0 7.27 5.46 13.27 12.69 13.96l.35.03 4.89 20.12a5.316 5.316 0 0 0 5.17 4.07h3.34c1.64 0 3.17-.74 4.18-2.03a5.277 5.277 0 0 0 .99-4.55l-4.27-17.57h2.62c.11.01.18.01.24.01s6.35-.32 13.99 1.85c10.11 2.86 17.66 8.51 22.47 16.77z"/></defs><g><g transform="translate(-640 -934)"><use fill="#ffd729" xlink:href="#z3kca"/></g><g transform="translate(-640 -934)"><use xlink:href="#z3kcb"/></g></g></svg>