<svg xmlns="http://www.w3.org/2000/svg" xmlns:xlink="http://www.w3.org/1999/xlink" width="80" height="79" viewBox="0 0 80 79"><defs><path id="kraea" d="M1056 978.147c0 18.078-29.002 30.687-47.444 30.687-18.441 0-32.556-19.838-32.556-37.916C976 952.84 994.538 939 1012.98 939c18.44 0 43.02 21.069 43.02 39.147z"/><path id="kraeb" d="M1053.52 958.35v39.26h-18.39v-39.26zm0 53.17h-18.39v-11.43h18.39zm-28.82 0v-19.63c0-.68-.56-1.24-1.24-1.24h-13.92c-.68 0-1.24.56-1.24 1.24v19.63h-7.96v-74.04h32.3v74.04zm-13.92 0v-18.39h11.43v18.39zm-12.91-13.91h-18.39v-39.26h18.39zm0 13.91h-18.39v-11.43h18.39zm36.02-76.52h-34.78c-.68 0-1.24.56-1.24 1.24v19.63h-19.63c-.68 0-1.24.56-1.24 1.24v55.65c0 .68.56 1.24 1.24 1.24h76.52c.68 0 1.24-.56 1.24-1.24v-55.65c0-.68-.56-1.24-1.24-1.24h-19.63v-19.63c0-.68-.56-1.24-1.24-1.24z"/><path id="kraec" d="M1023.46 966.3h-13.92c-.68 0-1.24.56-1.24 1.24 0 .68.56 1.24 1.24 1.24h13.91c.68 0 1.24-.56 1.24-1.24 0-.68-.55-1.24-1.23-1.24z"/><path id="kraed" d="M1023.46 955.87h-13.92c-.68 0-1.24.56-1.24 1.24 0 .68.56 1.24 1.24 1.24h13.91c.68 0 1.24-.56 1.24-1.24 0-.68-.55-1.24-1.23-1.24z"/><path id="kraee" d="M1023.46 945.43h-13.92c-.68 0-1.24.56-1.24 1.24 0 .68.56 1.24 1.24 1.24h13.91c.68 0 1.24-.56 1.24-1.24 0-.68-.55-1.24-1.23-1.24z"/><path id="kraef" d="M1023.46 976.74h-13.92c-.68 0-1.24.56-1.24 1.24 0 .68.56 1.24 1.24 1.24h13.91c.68 0 1.24-.56 1.24-1.24 0-.68-.55-1.24-1.23-1.24z"/></defs><g><g transform="translate(-976 -935)"><use fill="#ffd729" xlink:href="#kraea"/></g><g transform="translate(-976 -935)"><g><use xlink:href="#kraeb"/></g><g><use xlink:href="#kraec"/></g><g><use xlink:href="#kraed"/></g><g><use xlink:href="#kraee"/></g><g><use xlink:href="#kraef"/></g></g></g></svg>