<svg xmlns="http://www.w3.org/2000/svg" width="106.793" height="106.793" viewBox="0 0 106.793 106.793">
    <defs>
        <style>
            .cls-1{fill:#9b9b9b;opacity:.2}
        </style>
    </defs>
    <path id="Subtraction_6" d="M-1790.6 115.793a53.062 53.062 0 0 1-20.784-4.2 53.219 53.219 0 0 1-16.973-11.443 53.22 53.22 0 0 1-11.443-16.969A53.063 53.063 0 0 1-1844 62.4a53.061 53.061 0 0 1 4.2-20.784 53.219 53.219 0 0 1 11.44-16.976 53.22 53.22 0 0 1 16.972-11.44A53.062 53.062 0 0 1-1790.6 9a53.06 53.06 0 0 1 20.784 4.2 53.218 53.218 0 0 1 16.973 11.443 53.219 53.219 0 0 1 11.443 16.969 53.059 53.059 0 0 1 4.2 20.784 53.061 53.061 0 0 1-4.2 20.785 53.219 53.219 0 0 1-11.443 16.973 53.217 53.217 0 0 1-16.973 11.443 53.06 53.06 0 0 1-20.784 4.196zm-14.178-40.174v7.553c3.124 1.933 7.238 2.913 12.227 2.913v7.079h4.165v-7.35a16.8 16.8 0 0 0 9.517-4.267 11.244 11.244 0 0 0 3.42-8.331 11.145 11.145 0 0 0-2.743-7.35c-1.821-2.158-5.251-4.414-10.194-6.706V43.546c4.069.135 7.373 1.116 9.822 2.913V39.21c-1.8-1.123-5.1-1.761-9.822-1.9v-5.957h-4.165v6.1a15.232 15.232 0 0 0-9.111 4.42 12.106 12.106 0 0 0-3.59 8.721 11.955 11.955 0 0 0 2.354 7.383c1.563 2.069 5.044 4.359 10.347 6.808v15.068a20.482 20.482 0 0 1-6.621-1.219 16.951 16.951 0 0 1-5.606-3.015zm16.393 4.031V66.61a13.967 13.967 0 0 1 4.318 3.285 5.868 5.868 0 0 1 1.44 3.76 5.4 5.4 0 0 1-1.44 3.886 8.223 8.223 0 0 1-4.317 2.109zm-4.165-22.422a13.182 13.182 0 0 1-4.3-3.217 6.58 6.58 0 0 1-1.219-4.1 5.845 5.845 0 0 1 1.49-4.03 7.145 7.145 0 0 1 4.031-2.168v13.515z" class="cls-1" data-name="Subtraction 6" transform="translate(1844 -9)"/>
</svg>
