<svg xmlns="http://www.w3.org/2000/svg" viewBox="0 0 495.19 603.124">
    <defs>
        <style>
            .cls-1{fill:#f5f7f9}.cls-2{fill:#9b9b9b;opacity:.2}.cls-3{font-size:32px}.cls-3,.cls-4,.cls-6{font-family:SegoeUI-Bold,Segoe UI;font-weight:700}.cls-4{font-size:14px;letter-spacing:.1em;opacity:.4}.cls-5{font-size:16px;font-family:SegoeUI,Segoe UI}.cls-6{font-size:24px}.cls-7{fill:#ffd729}.cls-8{font-size:18px;font-family:SegoeUI-SemiBold,Segoe UI;font-weight:600}
        </style>
    </defs>
    <g id="conditions" transform="translate(66.793 -2144.674)">
        <g id="Group_220" data-name="Group 220" transform="translate(-470 -128.533)">
            <path id="Subtraction_7" d="M-1800.337 96.326a43.39 43.39 0 0 1-17-3.431 43.518 43.518 0 0 1-13.879-9.357 43.519 43.519 0 0 1-9.357-13.879 43.387 43.387 0 0 1-3.431-17 43.389 43.389 0 0 1 3.431-17 43.519 43.519 0 0 1 9.357-13.879 43.517 43.517 0 0 1 13.879-9.357 43.39 43.39 0 0 1 17-3.431 43.388 43.388 0 0 1 17 3.431 43.515 43.515 0 0 1 13.879 9.357 43.516 43.516 0 0 1 9.357 13.879 43.392 43.392 0 0 1 3.431 17 43.39 43.39 0 0 1-3.431 17 43.515 43.515 0 0 1-9.357 13.879 43.516 43.516 0 0 1-13.879 9.357 43.389 43.389 0 0 1-17 3.431zm-11.593-32.851v6.176a18.854 18.854 0 0 0 10 2.382v5.788h3.406v-6.009a13.736 13.736 0 0 0 7.781-3.49 9.194 9.194 0 0 0 2.8-6.812 9.109 9.109 0 0 0-2.243-6.01c-1.489-1.764-4.294-3.609-8.336-5.484V37.248a14.154 14.154 0 0 1 8.031 2.382V33.7c-1.47-.919-4.172-1.441-8.031-1.552v-4.869h-3.406v4.984a12.461 12.461 0 0 0-7.45 3.614 9.9 9.9 0 0 0-2.936 7.132 9.771 9.771 0 0 0 1.925 6.037c1.277 1.691 4.124 3.564 8.461 5.566v12.325a16.743 16.743 0 0 1-5.414-1 13.84 13.84 0 0 1-4.584-2.465zm13.4 3.3V56.109c3.124 1.654 4.708 3.593 4.708 5.761a4.416 4.416 0 0 1-1.177 3.178 6.718 6.718 0 0 1-3.53 1.723zm-3.406-18.334a10.769 10.769 0 0 1-3.516-2.63 5.378 5.378 0 0 1-1-3.352 4.776 4.776 0 0 1 1.219-3.295 5.832 5.832 0 0 1 3.3-1.773v11.05z" class="cls-2" data-name="Subtraction 7" transform="translate(2370.674 2264.207)"/>
            <path id="Subtraction_6" d="M-1790.6 115.793a53.062 53.062 0 0 1-20.784-4.2 53.219 53.219 0 0 1-16.973-11.443 53.22 53.22 0 0 1-11.443-16.969A53.063 53.063 0 0 1-1844 62.4a53.061 53.061 0 0 1 4.2-20.784 53.219 53.219 0 0 1 11.44-16.976 53.22 53.22 0 0 1 16.972-11.44A53.062 53.062 0 0 1-1790.6 9a53.06 53.06 0 0 1 20.784 4.2 53.218 53.218 0 0 1 16.973 11.443 53.219 53.219 0 0 1 11.443 16.969 53.059 53.059 0 0 1 4.2 20.784 53.061 53.061 0 0 1-4.2 20.785 53.219 53.219 0 0 1-11.443 16.973 53.217 53.217 0 0 1-16.973 11.443 53.06 53.06 0 0 1-20.784 4.196zm-14.178-40.174v7.553c3.124 1.933 7.238 2.913 12.227 2.913v7.079h4.165v-7.35a16.8 16.8 0 0 0 9.517-4.267 11.244 11.244 0 0 0 3.42-8.331 11.145 11.145 0 0 0-2.743-7.35c-1.821-2.158-5.251-4.414-10.194-6.706V43.546c4.069.135 7.373 1.116 9.822 2.913V39.21c-1.8-1.123-5.1-1.761-9.822-1.9v-5.957h-4.165v6.1a15.232 15.232 0 0 0-9.111 4.42 12.106 12.106 0 0 0-3.59 8.721 11.955 11.955 0 0 0 2.354 7.383c1.563 2.069 5.044 4.359 10.347 6.808v15.068a20.482 20.482 0 0 1-6.621-1.219 16.951 16.951 0 0 1-5.606-3.015zm16.393 4.031V66.61a13.967 13.967 0 0 1 4.318 3.285 5.868 5.868 0 0 1 1.44 3.76 5.4 5.4 0 0 1-1.44 3.886 8.223 8.223 0 0 1-4.317 2.109zm-4.165-22.422a13.182 13.182 0 0 1-4.3-3.217 6.58 6.58 0 0 1-1.219-4.1 5.845 5.845 0 0 1 1.49-4.03 7.145 7.145 0 0 1 4.031-2.168v13.515z" class="cls-2" data-name="Subtraction 6" transform="translate(2247.207 2519.533)"/>
            <path id="Subtraction_5" d="M-1813.8 69.4a30.01 30.01 0 0 1-11.755-2.373 30.1 30.1 0 0 1-9.6-6.472 30.1 30.1 0 0 1-6.472-9.6A30.011 30.011 0 0 1-1844 39.2a30.009 30.009 0 0 1 2.373-11.755 30.1 30.1 0 0 1 6.472-9.6 30.1 30.1 0 0 1 9.6-6.472A30.009 30.009 0 0 1-1813.8 9a30.011 30.011 0 0 1 11.755 2.373 30.1 30.1 0 0 1 9.6 6.472 30.1 30.1 0 0 1 6.472 9.6A30.012 30.012 0 0 1-1783.6 39.2a30.013 30.013 0 0 1-2.373 11.755 30.1 30.1 0 0 1-6.472 9.6 30.1 30.1 0 0 1-9.6 6.472A30.011 30.011 0 0 1-1813.8 69.4zm-8.017-22.721v4.271a13.035 13.035 0 0 0 6.917 1.65v4h2.355v-4.157a9.505 9.505 0 0 0 5.383-2.414 6.36 6.36 0 0 0 1.934-4.712 6.3 6.3 0 0 0-1.551-4.156 17.207 17.207 0 0 0-5.766-3.793v-8.83a9.788 9.788 0 0 1 5.555 1.647v-4.1c-1.016-.635-2.885-1-5.555-1.072v-3.371h-2.355v3.448a8.615 8.615 0 0 0-5.152 2.5 6.849 6.849 0 0 0-2.03 4.932 6.76 6.76 0 0 0 1.331 4.176c.884 1.169 2.852 2.465 5.852 3.85v8.524a11.607 11.607 0 0 1-3.745-.689 9.567 9.567 0 0 1-3.17-1.706zm9.27 2.28v-7.377c2.161 1.144 3.256 2.485 3.256 3.984 0 1.792-1.1 2.932-3.255 3.39zm-2.355-12.68a7.455 7.455 0 0 1-2.431-1.819 3.722 3.722 0 0 1-.689-2.318 3.305 3.305 0 0 1 .842-2.28 4.037 4.037 0 0 1 2.28-1.226v7.643z" class="cls-2" data-name="Subtraction 5" transform="translate(2339.469 2806.933)"/>
            <path id="Subtraction_3" d="M-1824.668 47.664a19.2 19.2 0 0 1-13.67-5.664A19.2 19.2 0 0 1-1844 28.332a19.2 19.2 0 0 1 5.662-13.67A19.2 19.2 0 0 1-1824.668 9 19.2 19.2 0 0 1-1811 14.662a19.206 19.206 0 0 1 5.662 13.67A19.206 19.206 0 0 1-1811 42a19.2 19.2 0 0 1-13.668 5.664zm-5.133-14.545v2.735a8.355 8.355 0 0 0 4.427 1.054v2.563h1.508V36.81a6.084 6.084 0 0 0 3.446-1.544 4.074 4.074 0 0 0 1.238-3.017 4.029 4.029 0 0 0-.994-2.66 10.989 10.989 0 0 0-3.691-2.428v-5.654a6.269 6.269 0 0 1 3.556 1.055v-2.624a7.718 7.718 0 0 0-3.556-.687v-2.158h-1.508V19.3a5.5 5.5 0 0 0-3.3 1.6 4.382 4.382 0 0 0-1.3 3.157 4.33 4.33 0 0 0 .852 2.673 10.342 10.342 0 0 0 3.747 2.465v5.456a7.414 7.414 0 0 1-2.4-.441 6.125 6.125 0 0 1-2.03-1.092zm5.935 1.46v-4.72c1.384.733 2.085 1.592 2.085 2.551 0 1.147-.7 1.877-2.084 2.171zm-1.508-8.118a4.777 4.777 0 0 1-1.557-1.164 2.383 2.383 0 0 1-.441-1.484 2.117 2.117 0 0 1 .539-1.459 2.584 2.584 0 0 1 1.46-.785v4.892z" class="cls-2" data-name="Subtraction 3" transform="translate(2669.668 2680.869)"/>
            <path id="Subtraction_1" d="M-1790.6 115.793a53.062 53.062 0 0 1-20.784-4.2 53.219 53.219 0 0 1-16.973-11.443 53.22 53.22 0 0 1-11.443-16.969A53.063 53.063 0 0 1-1844 62.4a53.061 53.061 0 0 1 4.2-20.784 53.219 53.219 0 0 1 11.44-16.976 53.22 53.22 0 0 1 16.972-11.44A53.062 53.062 0 0 1-1790.6 9a53.06 53.06 0 0 1 20.784 4.2 53.218 53.218 0 0 1 16.973 11.443 53.219 53.219 0 0 1 11.443 16.969 53.059 53.059 0 0 1 4.2 20.784 53.061 53.061 0 0 1-4.2 20.785 53.219 53.219 0 0 1-11.443 16.973 53.217 53.217 0 0 1-16.973 11.443 53.06 53.06 0 0 1-20.784 4.196zm-14.178-40.174v7.553c3.124 1.933 7.238 2.913 12.227 2.913v7.079h4.165v-7.35a16.8 16.8 0 0 0 9.517-4.267 11.244 11.244 0 0 0 3.42-8.331 11.145 11.145 0 0 0-2.743-7.35c-1.821-2.158-5.251-4.414-10.194-6.706V43.546c4.069.135 7.373 1.116 9.822 2.913V39.21c-1.8-1.123-5.1-1.761-9.822-1.9v-5.957h-4.165v6.1a15.232 15.232 0 0 0-9.111 4.42 12.106 12.106 0 0 0-3.59 8.721 11.955 11.955 0 0 0 2.354 7.383c1.563 2.069 5.044 4.359 10.347 6.808v15.068a20.482 20.482 0 0 1-6.621-1.219 16.951 16.951 0 0 1-5.606-3.015zm16.393 4.031V66.61a13.967 13.967 0 0 1 4.318 3.285 5.868 5.868 0 0 1 1.44 3.76 5.4 5.4 0 0 1-1.44 3.886 8.223 8.223 0 0 1-4.317 2.109zm-4.165-22.422a13.182 13.182 0 0 1-4.3-3.217 6.58 6.58 0 0 1-1.219-4.1 5.845 5.845 0 0 1 1.49-4.03 7.145 7.145 0 0 1 4.031-2.168v13.515z" class="cls-2" data-name="Subtraction 1" transform="translate(2635.604 2287.533)"/>
        </g>
    </g>
</svg>
