<svg xmlns="http://www.w3.org/2000/svg" viewBox="0 0 111.744 111.744">
    <defs>
        <style>
            .cls-1{fill:#ffd729}
        </style>
    </defs>
    <g id="Group_359" data-name="Group 359" transform="translate(-10112.128 -334.128)">
        <path id="Path_179" d="M38.512-12.11c20.478 0 43.265 31.008 43.265 50.693S72.459 67.89 51.981 67.89s-50.2-20.117-50.2-39.8 16.253-40.2 36.731-40.2z" class="cls-1" data-name="Path 179" transform="rotate(144 5045.723 1854.556)"/>
        <g id="Group_160" data-name="Group 160" transform="translate(10128 353.938)">
            <path id="Path_181" d="M312.438 35.181A40.128 40.128 0 0 0 277.326.068a1.244 1.244 0 0 0-.931.284 1.185 1.185 0 0 0-.395.884v13.745a1.184 1.184 0 0 0 2.367 0V2.593l.458.079a37.566 37.566 0 0 1 31.01 31.01l.079.458h-31.547v-8.27a1.184 1.184 0 1 0-2.367 0v9.453a1.192 1.192 0 0 0 1.184 1.184h34.087a1.171 1.171 0 0 0 1.168-1.326z" data-name="Path 181" transform="translate(-232.444)"/>
            <path id="Path_182" d="M277.184 121a1.192 1.192 0 0 0-1.184 1.184v.047a1.184 1.184 0 0 0 2.367 0v-.047a1.182 1.182 0 0 0-1.183-1.184z" data-name="Path 182" transform="translate(-232.444 -101.852)"/>
            <path id="Path_183" d="M74.408 64.612H38.979V29.184A1.192 1.192 0 0 0 37.8 28a37.806 37.806 0 1 0 37.8 37.8 1.192 1.192 0 0 0-1.192-1.188zm-8.9 23.23A35.412 35.412 0 1 1 36.2 30.4l.41-.016V65.8a1.211 1.211 0 0 0 .489.963l.237.174 28.439 20.589zm7.685-20.452a35.245 35.245 0 0 1-5.807 17.864l-.221.347-25.724-18.622h31.751z" data-name="Path 183" transform="translate(0 -23.529)"/>
        </g>
    </g>
</svg>
