<svg xmlns="http://www.w3.org/2000/svg" viewBox="0 0 106.955 105.152">
    <defs>
        <style>
            .cls-1{fill:#ffd729}
        </style>
    </defs>
    <g id="Group_361" data-name="Group 361" transform="translate(-639 -511)">
        <path id="Path_165" d="M40.047-8.333C58.628-8.333 75 7.7 75 26.111S58.628 63.519 40.047 63.519-5 54.521-5 36.111 21.465-8.333 40.047-8.333z" class="cls-1" data-name="Path 165" transform="rotate(144 276.612 402.418)"/>
        <g id="Group_148" data-name="Group 148" transform="translate(652 532)">
            <path id="Path_166" d="M95.338 0H80.486a5.525 5.525 0 0 0-5.514 5.514v3.552H56.355A4.761 4.761 0 0 0 51.6 13.82v35.933a4.761 4.761 0 0 0 4.755 4.755h63.1a4.761 4.761 0 0 0 4.755-4.755V13.806a4.77 4.77 0 0 0-1.389-3.366 4.71 4.71 0 0 0-3.366-1.389h-18.618V5.514A5.513 5.513 0 0 0 95.338 0zm-18.16 5.514a3.31 3.31 0 0 1 3.308-3.308h14.852a3.31 3.31 0 0 1 3.308 3.308v3.552H77.178zm42.277 5.743A2.555 2.555 0 0 1 122 13.806v35.933a2.555 2.555 0 0 1-2.549 2.549h-63.1a2.555 2.555 0 0 1-2.549-2.549V20.981L76.92 32.195l.029.186a5.455 5.455 0 0 0 5.414 4.6h11.1a5.477 5.477 0 0 0 5.414-4.6l.029-.186 14.178-6.874a1.1 1.1 0 0 0 .559-.63 1.085 1.085 0 0 0-.043-.845 1.1 1.1 0 0 0-.63-.559 1.085 1.085 0 0 0-.845.043l-13.4 6.5-.143-.358a5.445 5.445 0 0 0-5.1-3.48h-11.1a5.445 5.445 0 0 0-5.1 3.48l-.143.358-23.33-11.3v-4.724a2.555 2.555 0 0 1 2.549-2.549h63.1zM79.083 31.479a3.288 3.288 0 0 1 3.28-3.28h11.1a3.28 3.28 0 1 1 0 6.559h-11.1a3.27 3.27 0 0 1-3.28-3.279z" data-name="Path 166" transform="translate(-44.21)"/>
            <path id="Path_167" d="M70.4 154.135v3.953a2.555 2.555 0 0 1-2.549 2.549H4.755a2.555 2.555 0 0 1-2.549-2.549V129.33l6.459 3.136c.043-.8.057-1.6.072-2.42l-6.531-3.165v-4.726a2.555 2.555 0 0 1 2.549-2.549h3.58c-.057-.73-.115-1.475-.158-2.206H4.755A4.761 4.761 0 0 0 0 122.155v35.933a4.761 4.761 0 0 0 4.755 4.755h63.1a4.761 4.761 0 0 0 4.755-4.755v-3.9a18.821 18.821 0 0 0-2.21-.053z" data-name="Path 167" transform="translate(0 -100.587)"/>
        </g>
    </g>
</svg>
