<svg xmlns="http://www.w3.org/2000/svg" viewBox="0 0 89.222 82.468">
    <defs>
        <style>
            .cls-1{fill:#ffd729}
        </style>
    </defs>
    <g id="Group_357" data-name="Group 357" transform="translate(-10125 -853)">
        <path id="Path_174" d="M40.047-8.333C58.628-8.333 75 7.7 75 26.111S58.628 63.519 40.047 63.519-5 54.521-5 36.111 21.465-8.333 40.047-8.333z" class="cls-1" data-name="Path 174" transform="rotate(-8 11298.43 -72004.974)"/>
        <g id="Group_162" data-name="Group 162" transform="translate(10129 864)">
            <path id="Path_184" d="M395.22 217.716l-5.059-.729-2.261-4.587a1.087 1.087 0 0 0-1.944 0l-2.258 4.573-5.059.729a1.063 1.063 0 0 0-.872.743 1.079 1.079 0 0 0 .272 1.115l3.658 3.558-.857 5.03a1.079 1.079 0 0 0 .429 1.058 1.1 1.1 0 0 0 .629.2 1.043 1.043 0 0 0 .5-.129l4.516-2.372 4.516 2.372a1.085 1.085 0 0 0 1.57-1.143l-.857-5.03 3.658-3.558a1.072 1.072 0 0 0 .272-1.115 1.058 1.058 0 0 0-.853-.715zm-4.973 4.259a1.075 1.075 0 0 0-.314.957l.586 3.43-3.087-1.615a1.037 1.037 0 0 0-1 0l-3.087 1.615.586-3.43a1.075 1.075 0 0 0-.314-.957l-2.5-2.429 3.444-.5a1.092 1.092 0 0 0 .815-.586l1.543-3.13 1.543 3.115a1.058 1.058 0 0 0 .815.586l3.444.5z" data-name="Path 184" transform="translate(-323.737 -181.532)"/>
            <path id="Path_185" d="M232.82 217.8l-5.059-.729-2.261-4.571a1.087 1.087 0 0 0-1.944 0l-2.258 4.573-5.059.729a1.063 1.063 0 0 0-.872.743 1.079 1.079 0 0 0 .272 1.115l3.658 3.558-.857 5.03a1.079 1.079 0 0 0 .429 1.058 1.1 1.1 0 0 0 .629.2 1.043 1.043 0 0 0 .5-.129l4.516-2.372 4.516 2.372a1.085 1.085 0 0 0 1.572-1.143l-.857-5.03 3.658-3.558a1.072 1.072 0 0 0 .272-1.115 1.015 1.015 0 0 0-.855-.731zm-4.959 4.259a1.075 1.075 0 0 0-.314.957l.586 3.43-3.087-1.615a1.037 1.037 0 0 0-1 0l-3.087 1.615.586-3.43a1.075 1.075 0 0 0-.314-.957l-2.5-2.429 3.444-.5a1.092 1.092 0 0 0 .815-.586l1.543-3.13 1.543 3.115a1.058 1.058 0 0 0 .815.586l3.444.5z" data-name="Path 185" transform="translate(-184.545 -181.618)"/>
            <path id="Path_186" d="M70.52 217.8l-5.059-.729L63.2 212.5a1.087 1.087 0 0 0-1.944 0L59 217.073l-5.059.729a1.063 1.063 0 0 0-.872.743 1.079 1.079 0 0 0 .272 1.115l3.673 3.558-.857 5.03a1.079 1.079 0 0 0 .429 1.058 1.1 1.1 0 0 0 .629.2 1.043 1.043 0 0 0 .5-.129l4.516-2.372 4.516 2.372a1.085 1.085 0 0 0 1.572-1.143l-.857-5.03 3.658-3.558a1.08 1.08 0 0 0-.6-1.844zm-4.973 4.259a1.075 1.075 0 0 0-.314.957l.586 3.43-3.087-1.615a1.037 1.037 0 0 0-1 0l-3.087 1.615.586-3.43a1.075 1.075 0 0 0-.314-.957l-2.472-2.429 3.444-.5a1.092 1.092 0 0 0 .815-.586l1.543-3.13 1.543 3.115a1.058 1.058 0 0 0 .815.586l3.444.5z" data-name="Path 186" transform="translate(-45.439 -181.618)"/>
            <path id="Path_187" d="M314.02 82.3l-5.059-.729L306.7 77a1.087 1.087 0 0 0-1.944 0l-2.256 4.573-5.059.729a1.063 1.063 0 0 0-.872.743 1.079 1.079 0 0 0 .272 1.115l3.658 3.558-.857 5.03a1.079 1.079 0 0 0 .429 1.058 1.1 1.1 0 0 0 .629.2 1.043 1.043 0 0 0 .5-.129l4.516-2.372 4.516 2.372a1.085 1.085 0 0 0 1.572-1.143l-.857-5.03 3.658-3.558a1.072 1.072 0 0 0 .272-1.115 1.032 1.032 0 0 0-.857-.731zm-4.973 4.259a1.075 1.075 0 0 0-.314.957l.586 3.43-3.087-1.615a1.037 1.037 0 0 0-1 0l-3.073 1.615.586-3.43a1.075 1.075 0 0 0-.314-.957l-2.5-2.429 3.444-.5a1.092 1.092 0 0 0 .815-.586l1.543-3.13 1.543 3.115a1.058 1.058 0 0 0 .815.586l3.444.5z" data-name="Path 187" transform="translate(-254.141 -65.482)"/>
            <path id="Path_188" d="M151.72 82.3l-5.059-.729L144.4 77a1.087 1.087 0 0 0-1.944 0l-2.256 4.573-5.059.729a1.063 1.063 0 0 0-.872.743 1.079 1.079 0 0 0 .272 1.115l3.658 3.558-.857 5.03a1.079 1.079 0 0 0 .429 1.058 1.1 1.1 0 0 0 .629.2 1.043 1.043 0 0 0 .5-.129l4.516-2.372 4.516 2.372a1.1 1.1 0 0 0 1.143-.086 1.079 1.079 0 0 0 .429-1.058l-.857-5.03 3.658-3.558a1.072 1.072 0 0 0 .272-1.115 1.032 1.032 0 0 0-.857-.73zm-4.973 4.259a1.075 1.075 0 0 0-.314.957l.586 3.43-3.087-1.615a1.037 1.037 0 0 0-1 0l-3.087 1.615.586-3.43a1.075 1.075 0 0 0-.314-.957l-2.5-2.429 3.444-.5a1.092 1.092 0 0 0 .815-.586l1.543-3.13 1.543 3.115a1.058 1.058 0 0 0 .815.586l3.444.5z" data-name="Path 188" transform="translate(-115.035 -65.482)"/>
            <path id="Path_189" d="M69.425 58.792A10.588 10.588 0 0 0 80 48.217V10.575A10.588 10.588 0 0 0 69.425 0h-58.85A10.588 10.588 0 0 0 0 10.575v37.657a10.588 10.588 0 0 0 10.575 10.575h10.633v11.575a1.07 1.07 0 0 0 .672 1 1.025 1.025 0 0 0 .414.086 1.13 1.13 0 0 0 .772-.314L35.4 58.821h9.3a1.086 1.086 0 0 0 0-2.172h-9.759a1.13 1.13 0 0 0-.772.314l-10.8 10.8V57.721a1.086 1.086 0 0 0-1.086-1.086h-11.7a8.311 8.311 0 0 1-5.953-2.473 8.394 8.394 0 0 1-2.472-5.945V10.575a8.417 8.417 0 0 1 8.4-8.4H69.41a2.754 2.754 0 0 1 .343.014l.486.014 2.158.472.715.357a8.357 8.357 0 0 1 4.7 7.546v37.654a8.42 8.42 0 0 1-8.4 8.417H58.178a1.086 1.086 0 1 0 0 2.172h11.247z" data-name="Path 189"/>
            <path id="Path_190" d="M355.258 398.058a1.1 1.1 0 0 0 .314-.772 1.13 1.13 0 0 0-.314-.772 1.1 1.1 0 0 0-.772-.314 1.13 1.13 0 0 0-.772.314 1.1 1.1 0 0 0-.314.772 1.071 1.071 0 0 0 .314.757 1.1 1.1 0 0 0 .772.314 1.033 1.033 0 0 0 .772-.299z" data-name="Path 190" transform="translate(-302.896 -339.58)"/>
        </g>
    </g>
</svg>
