<svg xmlns="http://www.w3.org/2000/svg" viewBox="0 0 89.222 82.286">
    <defs>
        <style>
            .cls-1{fill:#ffd729}
        </style>
    </defs>
    <g id="Group_360" data-name="Group 360" transform="translate(-9484 -353)">
        <path id="Path_168" d="M40.047-8.333C58.628-8.333 75 7.7 75 26.111S58.628 63.519 40.047 63.519-5 54.521-5 36.111 21.465-8.333 40.047-8.333z" class="cls-1" data-name="Path 168" transform="rotate(-8 7402.763 -67671.61)"/>
        <path id="Path_169" d="M80 45.827A39.885 39.885 0 0 0 41.668 6.784l-.459-.016v-5.55a1.218 1.218 0 1 0-2.435 0v5.55l-.459.016A39.883 39.883 0 0 0 0 45.827a16.279 16.279 0 0 1 25.966 2.831 16.26 16.26 0 0 1 12.3-7.954l.522-.063v31.405a7.954 7.954 0 0 0 15.908 0 1.218 1.218 0 1 0-2.435 0 5.535 5.535 0 1 1-11.069 0v-31.39l.522.063a16.219 16.219 0 0 1 12.3 7.954 16.2 16.2 0 0 1 14.047-8.033A16.007 16.007 0 0 1 80 45.827zm-25.618-1.676l-.348.38-.348-.38a19.31 19.31 0 0 0-3.827-3.163 18.648 18.648 0 0 0-19.7 0 18.362 18.362 0 0 0-3.827 3.163l-.348.38-.348-.38a18.869 18.869 0 0 0-3.827-3.163A18.7 18.7 0 0 0 3.8 40.04l-.854.411.174-.933A37.52 37.52 0 0 1 39.992 9.172a37.545 37.545 0 0 1 36.893 30.362l.174.933-.854-.411a18.65 18.65 0 0 0-21.822 4.1z" data-name="Path 169" transform="translate(9488 354)"/>
    </g>
</svg>
