<svg xmlns="http://www.w3.org/2000/svg" width="240" height="49.938" viewBox="0 0 240 49.938">
  <metadata><?xpacket begin="﻿" id="W5M0MpCehiHzreSzNTczkc9d"?>
<x:xmpmeta xmlns:x="adobe:ns:meta/" x:xmptk="Adobe XMP Core 5.6-c138 79.159824, 2016/09/14-01:09:01        ">
   <rdf:RDF xmlns:rdf="http://www.w3.org/1999/02/22-rdf-syntax-ns#">
      <rdf:Description rdf:about=""/>
   </rdf:RDF>
</x:xmpmeta>
                                                                                                    
                                                                                                    
                                                                                                    
                                                                                                    
                                                                                                    
                                                                                                    
                                                                                                    
                                                                                                    
                                                                                                    
                                                                                                    
                                                                                                    
                                                                                                    
                                                                                                    
                                                                                                    
                                                                                                    
                                                                                                    
                                                                                                    
                                                                                                    
                                                                                                    
                                                                                                    
                           
<?xpacket end="w"?></metadata>
<defs>
    <style>
      .cls-1 {
        fill: #ed1c24;
        fill-rule: evenodd;
      }
    </style>
  </defs>
  <path id="sdkgarant" class="cls-1" d="M599.59,80.816a13.276,13.276,0,0,1-3.288,1.707,11.018,11.018,0,0,1-3.686.615,11.421,11.421,0,0,1-3.1-.417,11.972,11.972,0,0,1-2.786-1.169,11.358,11.358,0,0,1-2.357-1.814,11.985,11.985,0,0,1-1.824-2.345,11.483,11.483,0,0,1,0-11.673,12,12,0,0,1,1.824-2.345,11.375,11.375,0,0,1,2.357-1.814,12.028,12.028,0,0,1,2.786-1.169,11.421,11.421,0,0,1,3.1-.417,11.03,11.03,0,0,1,3.686.615A13.3,13.3,0,0,1,599.59,62.3a0.69,0.69,0,0,1,.336.562,0.493,0.493,0,0,1-.069.266c-0.045.076-.094,0.154-0.145,0.235l-0.488.82a0.656,0.656,0,0,1-.237.235,0.539,0.539,0,0,1-.267.084,1.247,1.247,0,0,1-.244-0.038,1.072,1.072,0,0,1-.366-0.175,10.151,10.151,0,0,0-2.5-1.328,8.028,8.028,0,0,0-2.754-.478,9.667,9.667,0,0,0-2.564.334,9.43,9.43,0,0,0-2.265.941,9.613,9.613,0,0,0-1.9,1.442,9.177,9.177,0,0,0-1.457,1.837,8.935,8.935,0,0,0-.931,2.14,8.429,8.429,0,0,0-.328,2.338,8.648,8.648,0,0,0,.717,3.476,9.208,9.208,0,0,0,1.984,2.907,9.621,9.621,0,0,0,3,2,9.391,9.391,0,0,0,3.746.744,7.972,7.972,0,0,0,2.747-.478,10.452,10.452,0,0,0,2.5-1.328,1.088,1.088,0,0,1,.366-0.175,1.279,1.279,0,0,1,.244-0.038,0.542,0.542,0,0,1,.267.083,0.661,0.661,0,0,1,.237.235l0.488,0.82c0.051,0.081.1,0.16,0.145,0.235a0.493,0.493,0,0,1,.069.265A0.689,0.689,0,0,1,599.59,80.816Zm21.073,2H604.641V88.3a0.443,0.443,0,0,1-.537.455h-1.6A0.426,0.426,0,0,1,602,88.3V80.74a0.465,0.465,0,0,1,.5-0.547h1.51a23.817,23.817,0,0,0,1.725-3.2,27.345,27.345,0,0,0,1.206-3.278,25.4,25.4,0,0,0,.686-3.453,33.365,33.365,0,0,0,.259-3.711V60.81a0.458,0.458,0,0,1,.5-0.532h11.811a0.568,0.568,0,0,1,.366.137,0.446,0.446,0,0,1,.168.365V80.194h2.029a0.58,0.58,0,0,1,.359.136,0.439,0.439,0,0,1,.175.365V88.27a0.452,0.452,0,0,1-.534.486h-1.618a0.43,0.43,0,0,1-.488-0.486V82.82ZM610.531,66.548a27.41,27.41,0,0,1-.908,7.066,31.249,31.249,0,0,1-2.571,6.58H618.1V62.9h-7.569v3.643ZM629.56,70.8a3.782,3.782,0,0,0,1-.144,4.219,4.219,0,0,0,1.076-.478,6.551,6.551,0,0,0,1.106-.865A8.332,8.332,0,0,0,633.832,68l1.77-2.535q0.779-1.122,1.466-2.072a10.3,10.3,0,0,1,1.456-1.64,6.042,6.042,0,0,1,1.717-1.085,6.2,6.2,0,0,1,2.243-.425,0.534,0.534,0,0,1,.435.114,0.573,0.573,0,0,1,.161.448v1.335a0.893,0.893,0,0,1-.176.433,0.482,0.482,0,0,1-.4.19,3.882,3.882,0,0,0-1.914.766,9.478,9.478,0,0,0-2.175,2.224l-1.785,2.428-0.3.441q-0.306.425-.642,0.88t-0.64.834l10.376,12.174L645.4,82.5l0.214,0.319h-3.4a0.694,0.694,0,0,1-.52-0.379L633.1,72.209a7.632,7.632,0,0,1-1.58.729,8.844,8.844,0,0,1-1.96.394v8.819a0.645,0.645,0,0,1-.183.5,0.72,0.72,0,0,1-.5.167h-1.267a0.6,0.6,0,0,1-.686-0.668V60.946a0.62,0.62,0,0,1,.686-0.668h1.267a0.687,0.687,0,0,1,.5.182,0.64,0.64,0,0,1,.192.486V70.8Zm28.275-8.06V82.151a0.61,0.61,0,0,1-.207.494,0.716,0.716,0,0,1-.48.175h-1.1a0.654,0.654,0,0,1-.7-0.668V60.946a0.592,0.592,0,0,1,.672-0.668h12.269a0.624,0.624,0,0,1,.488.2,0.689,0.689,0,0,1,.183.475v1.086a0.659,0.659,0,0,1-.2.513,0.679,0.679,0,0,1-.473.181H657.835ZM677.9,70.372a8.4,8.4,0,0,1,.053-0.956c0.035-.313.069-0.576,0.1-0.789a0.8,0.8,0,0,1,.2-0.486,0.654,0.654,0,0,1,.5-0.182H679.7a0.686,0.686,0,0,1,.5.182,0.641,0.641,0,0,1,.191.486V82.061a0.763,0.763,0,0,1-.2.554,0.732,0.732,0,0,1-.55.205h-0.854a0.7,0.7,0,0,1-.763-0.759L677.9,80.33a5.225,5.225,0,0,1-.977,1.177,6.051,6.051,0,0,1-1.3.9,6.9,6.9,0,0,1-1.55.569,7.516,7.516,0,0,1-4.669-.409,7.368,7.368,0,0,1-2.38-1.662,7.748,7.748,0,0,1-1.58-2.467,8.323,8.323,0,0,1,0-6.065,7.737,7.737,0,0,1,1.58-2.475,7.473,7.473,0,0,1,2.38-1.669,7.192,7.192,0,0,1,2.976-.615,6.821,6.821,0,0,1,1.892.25,6.72,6.72,0,0,1,1.564.661,6.117,6.117,0,0,1,1.22.933,5.288,5.288,0,0,1,.848,1.07V70.372ZM667.357,75.39a5.248,5.248,0,0,0,.411,2.077,5.4,5.4,0,0,0,1.122,1.691,5.266,5.266,0,0,0,1.671,1.137,5.313,5.313,0,0,0,4.143-.007,5.363,5.363,0,0,0,1.686-1.152,5.514,5.514,0,0,0,1.137-1.7,5.337,5.337,0,0,0,0-4.146,5.308,5.308,0,0,0-2.823-2.8,5.215,5.215,0,0,0-2.083-.417,5.122,5.122,0,0,0-2.06.417,5.206,5.206,0,0,0-1.671,1.144,5.5,5.5,0,0,0-1.122,1.7A5.211,5.211,0,0,0,667.357,75.39ZM687.53,86.25a8.615,8.615,0,0,1-.054.956c-0.036.314-.068,0.577-0.1,0.789a0.812,0.812,0,0,1-.2.486,0.651,0.651,0,0,1-.5.182h-0.945a0.69,0.69,0,0,1-.5-0.182,0.641,0.641,0,0,1-.19-0.486V68.718a0.759,0.759,0,0,1,.2-0.554,0.728,0.728,0,0,1,.549-0.205h0.854a0.7,0.7,0,0,1,.764.759l0.122,1.731a4.828,4.828,0,0,1,.968-1.177,6.238,6.238,0,0,1,1.313-.9,6.887,6.887,0,0,1,1.548-.569,7.517,7.517,0,0,1,4.67.41,7.4,7.4,0,0,1,2.381,1.662,7.716,7.716,0,0,1,1.578,2.475,8.3,8.3,0,0,1,0,6.057,7.7,7.7,0,0,1-1.578,2.474,7.486,7.486,0,0,1-2.381,1.669,7.194,7.194,0,0,1-2.975.615,6.8,6.8,0,0,1-3.465-.911,5.873,5.873,0,0,1-1.22-.933,5.4,5.4,0,0,1-.839-1.07v6ZM698.074,75.39a5.268,5.268,0,0,0-.412-2.076,5.4,5.4,0,0,0-1.121-1.69,5.27,5.27,0,0,0-1.672-1.137,5.308,5.308,0,0,0-4.143.008,5.439,5.439,0,0,0-1.693,1.152,5.332,5.332,0,0,0-1.137,1.7,5.251,5.251,0,0,0-.413,2.077,5.2,5.2,0,0,0,.413,2.069,5.293,5.293,0,0,0,4.913,3.221,5.117,5.117,0,0,0,2.06-.417,5.2,5.2,0,0,0,1.672-1.144,5.489,5.489,0,0,0,1.121-1.7A5.229,5.229,0,0,0,698.074,75.39Zm18.25-5.017a8.634,8.634,0,0,1,.053-0.956c0.035-.313.069-0.576,0.1-0.789a0.8,0.8,0,0,1,.2-0.486,0.654,0.654,0,0,1,.5-0.182h0.946a0.686,0.686,0,0,1,.5.182,0.641,0.641,0,0,1,.191.486V82.061a0.763,0.763,0,0,1-.2.554,0.732,0.732,0,0,1-.55.205h-0.854a0.7,0.7,0,0,1-.763-0.759l-0.122-1.731a5.225,5.225,0,0,1-.977,1.177,6.051,6.051,0,0,1-1.3.9,6.89,6.89,0,0,1-1.549.569,7.516,7.516,0,0,1-4.669-.409,7.361,7.361,0,0,1-2.381-1.662,7.748,7.748,0,0,1-1.58-2.467,8.323,8.323,0,0,1,0-6.065,7.737,7.737,0,0,1,1.58-2.475,7.466,7.466,0,0,1,2.381-1.669,7.19,7.19,0,0,1,2.975-.615,6.821,6.821,0,0,1,1.892.25,6.72,6.72,0,0,1,1.564.661,6.117,6.117,0,0,1,1.22.933,5.288,5.288,0,0,1,.848,1.07V70.372ZM705.78,75.39a5.248,5.248,0,0,0,.411,2.077,5.4,5.4,0,0,0,1.122,1.691,5.266,5.266,0,0,0,1.671,1.137,5.313,5.313,0,0,0,4.143-.007,5.375,5.375,0,0,0,1.686-1.152,5.5,5.5,0,0,0,1.137-1.7,5.325,5.325,0,0,0,0-4.146,5.341,5.341,0,0,0-1.137-1.675,5.4,5.4,0,0,0-1.686-1.129,5.215,5.215,0,0,0-2.083-.417,5.122,5.122,0,0,0-2.06.417,5.206,5.206,0,0,0-1.671,1.144,5.5,5.5,0,0,0-1.122,1.7A5.211,5.211,0,0,0,705.78,75.39Zm28.275-6.929a0.535,0.535,0,0,1,.144-0.38,0.511,0.511,0,0,1,.388-0.152h1.562a0.663,0.663,0,0,1,.409.136,0.463,0.463,0,0,1,.183.4V82.288a0.5,0.5,0,0,1-.592.532h-1.562a0.47,0.47,0,0,1-.532-0.532V76.711h-7.874v5.578a0.508,0.508,0,0,1-.61.532H724a0.471,0.471,0,0,1-.535-0.532V68.46a0.513,0.513,0,0,1,.153-0.38A0.52,0.52,0,0,1,724,67.929h1.6a0.6,0.6,0,0,1,.413.152,0.493,0.493,0,0,1,.167.38v5.563h7.874V68.46Zm6.1-.15a0.352,0.352,0,0,1,.4-0.4h11.063a0.344,0.344,0,0,1,.381.4v1.817a0.633,0.633,0,0,1-.092.29,0.306,0.306,0,0,1-.289.168h-4.213v11.7a0.483,0.483,0,0,1-.561.532h-1.607a0.463,0.463,0,0,1-.517-0.532v-11.7h-4.165a0.381,0.381,0,0,1-.4-0.458V68.31ZM545.753,50.6c3.956,2.569,8.775,6.954,8.2,12.825a30.214,30.214,0,0,1-.92,4.685,118.622,118.622,0,0,1-4.716,13.943,22.307,22.307,0,0,0,2.311-.364c6.2-1.362,8.08-10.483,8.508-13.246,0.861-5.537.156-10.928-1.936-14.79C556.36,52.1,551.853,50.943,545.753,50.6Zm-25.616,7.555c3.677-2.947,9.359-6.153,14.8-3.8a30.665,30.665,0,0,1,4.194,2.316A119.562,119.562,0,0,1,551,65.452a21.324,21.324,0,0,0,.366-2.3c0.613-6.285-7.525-10.884-10.034-12.143-5.028-2.524-10.4-3.523-14.738-2.737C524.85,48.587,522.346,52.492,520.137,58.158Zm-0.682,26.577c-1.681-4.389-2.99-10.755.944-15.17a30.375,30.375,0,0,1,3.511-3.252,119.617,119.617,0,0,1,12.056-8.523,22.242,22.242,0,0,0-2.086-1.055c-5.819-2.523-12.731,3.755-14.711,5.74-3.967,3.976-6.58,8.75-7.171,13.1C511.761,77.319,514.721,80.9,519.455,84.735Zm25.2,8.832c-4.715.234-11.207-.494-14.211-5.58a30.3,30.3,0,0,1-2.026-4.327A118.467,118.467,0,0,1,524,69.619a22.229,22.229,0,0,0-1.655,1.648c-4.209,4.725-.344,13.2.942,15.69,2.577,4.982,6.333,8.929,10.307,10.834C535.187,98.554,539.522,96.86,544.654,93.567Zm16.239-21.092c-1.234,4.535-3.935,10.451-9.725,11.721a30.643,30.643,0,0,1-4.763.579,120.229,120.229,0,0,1-14.792-.155,22.013,22.013,0,0,0,1.067,2.074c3.216,5.444,12.517,4.405,15.29,3.958,5.56-.9,10.494-3.232,13.544-6.4C562.736,82.973,562.455,78.35,560.893,72.475Z" transform="translate(-512 -48.031)"/>
</svg>
