<svg xmlns="http://www.w3.org/2000/svg" viewBox="0 0 24 16.324" width='24' fill='#fff'>
    <g id="Group_382" data-name="Group 382" transform="translate(-.05)">
        <path id="Path_289" d="M23.938 7.751C23.745 7.43 19.191 0 12.05 0S.355 7.43.162 7.751a.811.811 0 0 0 0 .823c.192.321 4.736 7.751 11.888 7.751s11.7-7.43 11.888-7.751a.811.811 0 0 0 0-.823zm-11.888 6.97c-5.335 0-9.215-5.067-10.241-6.564C2.835 6.66 6.7 1.593 12.05 1.593s9.215 5.067 10.241 6.564c-1.026 1.507-4.891 6.564-10.241 6.564z" class="cls-1" data-name="Path 289"/>
        <path id="Path_290" d="M67.2 25.8a5.4 5.4 0 1 0 5.4 5.4 5.4 5.4 0 0 0-5.4-5.4zm0 9.2a3.8 3.8 0 1 1 3.8-3.8 3.8 3.8 0 0 1-3.8 3.8z" class="cls-1" data-name="Path 290" transform="translate(-55.149 -23.042)"/>
        <path id="Path_291" d="M94.974 57a2.074 2.074 0 1 0 2.074 2.074A2.076 2.076 0 0 0 94.974 57z" class="cls-1" data-name="Path 291" transform="translate(-82.924 -50.906)"/>
    </g>
</svg>
