<svg xmlns="http://www.w3.org/2000/svg" width="20.5" height="13.655" viewBox="0 0 20.5 13.655"><path d="M651.29,522.783a1.654,1.654,0,0,0-.337-1l-1.592-2.037a1.565,1.565,0,0,0-1.228-.594h-.017a1.416,1.416,0,0,0-.821.231l-1.537.956a1.281,1.281,0,0,1-.624.147,1,1,0,0,1-.439-.085l-1.518-.737a2.225,2.225,0,0,0-.876-.186,2.111,2.111,0,0,0-1.252.363l-.067.048-.489-.244a2.613,2.613,0,0,0-1.074-.223,2.5,2.5,0,0,0-1,.183l-1.02.436a1.859,1.859,0,0,1-1.235,0l-1.045-.441a1.688,1.688,0,0,0-.654-.133h-.029a1.953,1.953,0,0,0-.743.147,1.73,1.73,0,0,0-.648.448l-1.881,2.107a1.434,1.434,0,0,0-.371.963,1.453,1.453,0,0,0,.508,1.1l1.578,1.348-.673.7a1.444,1.444,0,0,0-.406,1.011,1.48,1.48,0,0,0,.453,1.058l.169.161a1.409,1.409,0,0,0,.407.267,1.45,1.45,0,0,0,.376,1.523l.172.164a1.462,1.462,0,0,0,1.012.4h0a1.386,1.386,0,0,0,.345-.046,1.439,1.439,0,0,0,.334.485l.169.16a1.464,1.464,0,0,0,1.009.4h.008a1.485,1.485,0,0,0,.578-.117,1.467,1.467,0,0,0,.289.392l.169.159a1.451,1.451,0,0,0,1.005.4h.009a1.479,1.479,0,0,0,1.062-.453l.587-.615.842.779a1.476,1.476,0,0,0,2.074-.076l.162-.172a1.362,1.362,0,0,0,.2-.284l.159.146a1.457,1.457,0,0,0,.993.389h.005a1.477,1.477,0,0,0,1.075-.466l.157-.17a1.432,1.432,0,0,0,.328-.58c.047.006.092,0,.142.009a1.477,1.477,0,0,0,1.073-.464l.16-.171a1.429,1.429,0,0,0,.391-.99c0-.039,0-.078,0-.118a1.453,1.453,0,0,0,.668-.4l.161-.171a1.46,1.46,0,0,0-.077-2.064l-.141-.133,2.554-2.819A1.629,1.629,0,0,0,651.29,522.783Zm-7.835,3.733,3.036,2.811a.341.341,0,0,1,.11.258.332.332,0,0,1-.094.233l-.157.17a.342.342,0,0,1-.252.108.511.511,0,0,1-.241-.092l-2.846-2.63-.762.816,2.541,2.352a.339.339,0,0,1,.105.248.347.347,0,0,1-.091.235l-.159.17a.367.367,0,0,1-.5.021l-2.539-2.345-.762.816,1.354,1.251a.34.34,0,0,1,.009.47l-.161.17a.349.349,0,0,1-.492.018l-.924-.857a1.445,1.445,0,0,0-.359-1.568l-.169-.159a1.441,1.441,0,0,0-.908-.4,2.579,2.579,0,0,0-.42-.865l-.167-.152a1.488,1.488,0,0,0-.509-.313,1.439,1.439,0,0,0-.427-1.322l-.17-.16a1.459,1.459,0,0,0-.917-.4,1.43,1.43,0,0,0-.429-.793l-.168-.16a1.458,1.458,0,0,0-1.007-.4h-.008a1.471,1.471,0,0,0-1.06.453l-.26.271-1.628-1.391a.324.324,0,0,1-.115-.225.33.33,0,0,1,.084-.246l1.878-2.1a.671.671,0,0,1,.24-.162.789.789,0,0,1,.565-.019l1.04.444a2.879,2.879,0,0,0,1.043.19,2.787,2.787,0,0,0,1.062-.193l1.025-.438a1.616,1.616,0,0,1,.58-.1,1.266,1.266,0,0,1,.511.086l-.752.527a1.426,1.426,0,0,0-.59.928,1.45,1.45,0,0,0,.261,1.107l.142.193a1.6,1.6,0,0,0,1.259.618h.005a1.558,1.558,0,0,0,.79-.217l.621-.374a.785.785,0,0,1,.431-.1.864.864,0,0,1,.478.134l1.743,1.251c.382.274,1,.779,1.351,1.1l2.021,1.867a.332.332,0,0,1,.11.246.349.349,0,0,1-.092.236l-.16.17a.367.367,0,0,1-.5.02l-2.845-2.625Zm-7.656,3.54,1.575-1.648a.352.352,0,0,1,.475,0l.169.16a.341.341,0,0,1,.107.24.349.349,0,0,1-.09.241l-1.527,1.6a.347.347,0,0,1-.252.106h0a.369.369,0,0,1-.241-.095l-.169-.16A.337.337,0,0,1,635.8,530.056Zm-2.778-3,1.7-1.785a.339.339,0,0,1,.25-.107h.005a.35.35,0,0,1,.238.094l.138.125a.952.952,0,0,1,.138.286.427.427,0,0,1-.035.167l-1.81,1.9a.363.363,0,0,1-.208.068h0a.379.379,0,0,1-.241-.095l-.17-.16a.349.349,0,0,1-.107-.247A.339.339,0,0,1,633.021,527.056Zm.947,1.949c.061-.066,2.247-2.343,2.283-2.381a.35.35,0,0,1,.485-.005l.169.159a.345.345,0,0,1,.012.488l-2.272,2.378a.359.359,0,0,1-.5.012l-.168-.158A.353.353,0,0,1,633.968,529.005Zm3.912,1.836.959-1a.358.358,0,0,1,.5-.012l.17.159a.352.352,0,0,1,.108.253.333.333,0,0,1-.093.235l-.962,1a.358.358,0,0,1-.5.012l-.17-.159A.346.346,0,0,1,637.88,530.841Zm8.564-5.877a17.228,17.228,0,0,0-1.458-1.186l-1.746-1.255a1.976,1.976,0,0,0-1.112-.343H642.1a2.007,2.007,0,0,0-.993.257l-.628.378a.417.417,0,0,1-.215.058h-.006a.458.458,0,0,1-.359-.169l-.14-.19a.327.327,0,0,1,.073-.46l1.851-1.3a1.378,1.378,0,0,1,.622-.163,1.193,1.193,0,0,1,.386.075l1.522.737a2.3,2.3,0,0,0,.929.2,2.209,2.209,0,0,0,1.193-.311l1.546-.965a.419.419,0,0,1,.223-.062h.012a.464.464,0,0,1,.357.165l1.585,2.027a.577.577,0,0,1-.021.684l-2.537,2.808Z" transform="translate(-630.79 -519.149)"/></svg>