<svg xmlns="http://www.w3.org/2000/svg" xmlns:xlink="http://www.w3.org/1999/xlink" width="192" height="189" viewBox="0 0 192 189"><defs><path id="wonga" d="M320.03 418.849l-2.072.172v-14.68l9.523-9.519c.581-.581.581-1.361 0-1.943-.581-.581-1.361-.581-1.943 0l-8.984 8.988-8.984-8.988c-.582-.581-1.362-.581-1.943 0-.582.582-.582 1.362 0 1.943l9.52 9.52v14.679l-2.074-.172c-10.368-.864-20.003-5.588-27.136-13.295-7.175-7.752-11.126-17.804-11.126-28.303 0-23.017 18.726-41.742 41.743-41.742 23.017 0 41.743 18.725 41.743 41.742 0 10.5-3.951 20.55-11.126 28.303-7.133 7.707-16.772 12.43-27.14 13.295zm41.078-41.594c0-24.566-19.988-44.554-44.554-44.554-24.566 0-44.554 19.984-44.554 44.554 0 23.262 18.171 42.783 41.372 44.44l1.774.126v28.452c0 .933.475 1.407 1.408 1.407.933 0 1.407-.474 1.407-1.407V421.82l1.775-.127c23.2-1.66 41.372-21.177 41.372-44.439z"/><path id="wongb" d="M447.324 329.382h-38.5c-6.283 0-11.206-5.359-11.206-12.201 0-6.613 5.133-12.201 11.207-12.201.344 0 .841-.073 1.296-.67 1.217-3.078 7.42-10.284 18.62-10.284 2.726 0 6.673.535 10 3.094 3.883 2.983 5.852 7.833 5.852 14.42 0 .933.475 1.407 1.408 1.407h1.327c4.12 0 7.221 3.534 7.221 8.22 0 4.68-3.105 8.215-7.225 8.215zm1.66-18.948l-1.438-.253-.134-1.453c-1.51-16.251-14.675-17.517-18.676-17.517-12.289 0-18.676 7.76-20.34 10.135l-.485.697-.842.107c-6.991.872-12.266 7.335-12.266 15.03 0 8.14 6.422 15.016 14.018 15.016h38.503c5.626 0 10.036-4.845 10.036-11.03 0-5.278-3.599-9.89-8.376-10.732z"/><path id="wongc" d="M303.278 445.55c-.933 0-1.407.473-1.407 1.407v3.32c0 .933.474 1.407 1.407 1.407.934 0 1.408-.474 1.408-1.407v-3.32c0-.934-.474-1.408-1.408-1.408z"/><path id="wongd" d="M290.003 445.55c-.933 0-1.408.473-1.408 1.407v3.32c0 .933.475 1.407 1.408 1.407.933 0 1.407-.474 1.407-1.407v-3.32c0-.934-.474-1.408-1.407-1.408z"/><path id="wonge" d="M276.727 445.55c-.933 0-1.407.473-1.407 1.407v3.32c0 .933.474 1.407 1.407 1.407.934 0 1.408-.474 1.408-1.407v-3.32c-.004-.934-.474-1.408-1.408-1.408z"/><path id="wongf" d="M356.384 445.55c-.933 0-1.407.473-1.407 1.407v3.32c0 .933.474 1.407 1.407 1.407.934 0 1.408-.474 1.408-1.407v-3.32c0-.934-.474-1.408-1.408-1.408z"/><path id="wongg" d="M344.513 450.273v-3.32c0-.933-.475-1.408-1.408-1.408-.933 0-1.407.475-1.407 1.408v3.32c0 .933.474 1.407 1.407 1.407.937 0 1.408-.474 1.408-1.407z"/><path id="wongh" d="M331.237 450.273v-3.32c0-.933-.474-1.408-1.408-1.408-.933 0-1.407.475-1.407 1.408v3.32c0 .933.474 1.407 1.407 1.407.934 0 1.408-.474 1.408-1.407z"/><path id="wongi" d="M464 450.273v-3.32c0-.933-.474-1.408-1.407-1.408-.934 0-1.408.475-1.408 1.408v3.32c0 .933.474 1.407 1.408 1.407.933 0 1.407-.474 1.407-1.407z"/><path id="wongj" d="M450.724 450.273v-3.32c0-.933-.474-1.408-1.407-1.408s-1.408.475-1.408 1.408v3.32c0 .933.475 1.407 1.408 1.407.933 0 1.407-.474 1.407-1.407z"/><path id="wongk" d="M369.66 445.55c-.933 0-1.408.473-1.408 1.407v3.32c0 .933.475 1.407 1.408 1.407.933 0 1.407-.474 1.407-1.407v-3.32c0-.934-.474-1.408-1.407-1.408z"/><path id="wongl" d="M404.258 450.273v-3.32c0-.933-.474-1.408-1.407-1.408-.934 0-1.408.475-1.408 1.408v3.32c0 .933.474 1.407 1.408 1.407.933 0 1.407-.474 1.407-1.407z"/><path id="wongm" d="M417.534 450.273v-3.32c0-.933-.475-1.408-1.408-1.408-.933 0-1.407.475-1.407 1.408v3.32c0 .933.474 1.407 1.407 1.407s1.408-.474 1.408-1.407z"/><path id="wongn" d="M374.387 432.274v-4.567c0-5.08 4.135-9.214 9.214-9.214h51.779c5.079 0 9.213 4.135 9.213 9.214v4.567zm13.276-27.06h43.655v10.464h-43.655zm0-13.276h43.651v10.465h-43.651zm60.074 41.567v-5.802c0-6.471-5.266-11.864-11.741-12.021l-1.867-.046V405.21h8.552c.933 0 1.408-.474 1.408-1.407 0-.934-.475-1.408-1.408-1.408h-8.552v-10.464h8.552c.933 0 1.408-.475 1.408-1.408 0-.933-.475-1.407-1.408-1.407h-8.552v-5.233c0-.933-.474-1.407-1.407-1.407-.934 0-1.408.474-1.408 1.407v5.233h-43.651v-5.233c0-.933-.474-1.407-1.408-1.407-.933 0-1.407.474-1.407 1.407v5.233H376.3c-.934 0-1.408.474-1.408 1.407s.474 1.408 1.408 1.408h8.552v10.464H376.3c-.934 0-1.408.474-1.408 1.408 0 .933.474 1.407 1.408 1.407h8.552v10.396l-1.821.088c-6.318.302-11.455 5.69-11.455 12.013v5.974c0 .933.474 1.408 1.408 1.408h11.868v15.187c0 .934.474 1.408 1.407 1.408s1.408-.474 1.408-1.408V435.09h43.655v15.187c0 .934.474 1.408 1.407 1.408s1.408-.474 1.408-1.408V435.09h11.868c.933-.004 1.518-.536 1.732-1.584z"/><path id="wongo" d="M344.513 284.323c0-10.377 8.13-18.508 18.507-18.508.933 0 1.408-.474 1.408-1.408 0-.933-.475-1.407-1.408-1.407-7.73 0-14.851 4.135-18.592 10.793l-1.48 2.636-1.748-2.467c-3.392-4.785-8.884-7.642-14.69-7.642-.934 0-1.408.474-1.408 1.407 0 .934.474 1.408 1.408 1.408 8.376 0 15.188 6.812 15.188 15.188 0 .933.474 1.407 1.407 1.407.937-.004 1.408-.474 1.408-1.407z"/></defs><g><g transform="translate(-272 -263)"><g><use fill="#ffd729" xlink:href="#wonga"/></g><g><use fill="#ffd729" xlink:href="#wongb"/></g><g><use fill="#ffd729" xlink:href="#wongc"/></g><g><use fill="#ffd729" xlink:href="#wongd"/></g><g><use fill="#ffd729" xlink:href="#wonge"/></g><g><use fill="#ffd729" xlink:href="#wongf"/></g><g><use fill="#ffd729" xlink:href="#wongg"/></g><g><use fill="#ffd729" xlink:href="#wongh"/></g><g><use fill="#ffd729" xlink:href="#wongi"/></g><g><use fill="#ffd729" xlink:href="#wongj"/></g><g><use fill="#ffd729" xlink:href="#wongk"/></g><g><use fill="#ffd729" xlink:href="#wongl"/></g><g><use fill="#ffd729" xlink:href="#wongm"/></g><g><use fill="#ffd729" xlink:href="#wongn"/></g><g><use fill="#ffd729" xlink:href="#wongo"/></g></g></g></svg>