<svg xmlns="http://www.w3.org/2000/svg" xmlns:xlink="http://www.w3.org/1999/xlink" width="192" height="192" viewBox="0 0 192 192"><defs><path id="6kmxa" d="M407.018 285.962a1.727 1.727 0 0 0 0-3.452h-6.503a1.727 1.727 0 0 0 0 3.452z"/><path id="6kmxb" d="M387.512 285.962a1.727 1.727 0 0 0 0-3.452h-6.503a1.727 1.727 0 0 0 0 3.452z"/><path id="6kmxc" d="M299.735 289.01a4.779 4.779 0 0 1-4.774-4.774 4.782 4.782 0 0 1 4.774-4.778 4.779 4.779 0 0 1 4.774 4.774 4.782 4.782 0 0 1-4.774 4.777zm0-13.007c-4.537 0-8.229 3.691-8.229 8.229 0 4.537 3.692 8.229 8.23 8.229 4.537 0 8.228-3.692 8.228-8.23 0-4.537-3.691-8.228-8.229-8.228z"/><path id="6kmxd" d="M407.018 324.974a1.727 1.727 0 0 0 0-3.452h-6.503a1.727 1.727 0 0 0 0 3.452z"/><path id="6kmxe" d="M299.735 328.021a4.779 4.779 0 0 1-4.774-4.773 4.779 4.779 0 0 1 4.774-4.774 4.779 4.779 0 0 1 4.774 4.774 4.779 4.779 0 0 1-4.774 4.773zm0-13.006c-4.537 0-8.229 3.691-8.229 8.229 0 4.537 3.692 8.229 8.23 8.229 4.537 0 8.228-3.692 8.228-8.23 0-4.537-3.691-8.228-8.229-8.228z"/><path id="6kmxf" d="M332.469 429.624l25.681-25.681a4.768 4.768 0 0 1 3.364-1.399h4.61a8.173 8.173 0 0 0 5.818-2.411 8.173 8.173 0 0 0 2.411-5.818v-4.598a4.772 4.772 0 0 1 1.402-3.38l2.69-2.69c1.863-1.858 4.892-1.862 6.751 0l13.772 13.773a4.783 4.783 0 0 1 0 6.751l-2.693 2.694a4.755 4.755 0 0 1-3.326 1.417h-4.621c-4.538 0-8.23 3.692-8.23 8.229v4.59a4.73 4.73 0 0 1-1.398 3.376L353.02 450.16a4.759 4.759 0 0 1-3.376 1.394 4.759 4.759 0 0 1-3.375-1.394l-13.796-13.784a4.772 4.772 0 0 1-.003-6.75zm36.76-57.935a1.721 1.721 0 0 0-1.89-.362 24.335 24.335 0 0 1-24.184-3.025 24.336 24.336 0 0 1-9.376-22.5l.176-1.326h3.146l8.454 8.435a11.506 11.506 0 0 0 11.186 3.147 11.496 11.496 0 0 0 8.198-8.2 11.496 11.496 0 0 0-3.131-11.162l-11.125-11.151 2.869-.514a24.278 24.278 0 0 1 23.282 8.774 24.274 24.274 0 0 1 3.364 24.653 1.726 1.726 0 0 0 .37 1.885l15.032 15.034-4.644 4.644h-4.85l-.342-.187a8.27 8.27 0 0 0-7.308-.3l-.956.426zm-36.947-33.541c-.152.366-.27.758-.4 1.177-.069.217-.133.438-.206.655l-.346 1.048h-44.598a11.198 11.198 0 0 1-7.977-3.307 11.197 11.197 0 0 1-3.3-7.978v-13.002c0-6.218 5.06-11.277 11.277-11.277h123.54c6.217 0 11.277 5.06 11.277 11.277v13.002c0 6.218-5.06 11.277-11.277 11.277h-25.868l-.351-1.036a27.739 27.739 0 0 0-14.896-16.374 27.746 27.746 0 0 0-22.135-.206 1.725 1.725 0 0 0-.552 2.812l12.888 12.918a8.005 8.005 0 0 1 2.366 5.666 8.012 8.012 0 0 1-2.374 5.672 8.141 8.141 0 0 1-11.315.015l-12.926-12.895a1.742 1.742 0 0 0-2.827.556zm-56.827-47.413v-13.003c0-6.217 5.06-11.277 11.277-11.277h123.54c6.217 0 11.277 5.06 11.277 11.277v13.003c0 6.218-5.06 11.277-11.277 11.277h-123.54c-6.221 0-11.277-5.06-11.277-11.277zm144.22 58.88l.38.59-.308 1.045-.278.282-21.426 21.414-14.23-14.218.301-.895a27.606 27.606 0 0 0 1.318-11.677l-.167-1.676h25.003a11.236 11.236 0 0 1 9.406 5.135zm9.253-2.648l.061-.106.08-.096c.084-.102.172-.182.24-.243l11.212-15.708 12.344-8.23 7.197 7.197-8.24 12.344-15.708 11.239c-.058.065-.13.141-.225.217a2.176 2.176 0 0 1-.225.16l-29.632 29.633-8.115 8.1-6.759-6.76zm29.275 91.023a7.992 7.992 0 0 1 2.354 5.848 8.063 8.063 0 0 1-2.644 5.788l-.065.057a8.377 8.377 0 0 1-5.272 1.851c-2.24 0-4.477-.88-6.115-2.602l-43.793-43.793.434-.96c1.394-3.09.724-6.782-1.665-9.186l-1.07-1.078 6.88-6.88zm-114.381 14.622a8.173 8.173 0 0 0 5.817 2.412 8.173 8.173 0 0 0 5.818-2.412l25.682-25.681a8.228 8.228 0 0 0 2.407-5.814v-4.606a4.779 4.779 0 0 1 4.774-4.774h4.617c2.164 0 4.271-.876 5.795-2.407l1.608-1.62 43.671 43.672a12.237 12.237 0 0 0 8.683 3.653h.057c2.762 0 5.41-1.013 7.467-2.86a11.52 11.52 0 0 0 3.776-8.234 11.53 11.53 0 0 0-3.372-8.412l-50.944-50.936 28.424-28.421.103-.073 15.872-11.353a1.68 1.68 0 0 0 .426-.442l9.209-13.791a1.73 1.73 0 0 0-.218-2.18l-9.2-9.2a1.735 1.735 0 0 0-2.18-.217l-13.783 9.2c-.175.115-.324.26-.446.431l-11.43 15.982-3.542 3.547-1.063-1.349a14.558 14.558 0 0 0-2.838-2.743l-1.67-1.226 1.67-1.231a14.738 14.738 0 0 0 5.977-11.78v-12.999a14.719 14.719 0 0 0-5.981-11.776l-1.669-1.226 1.669-1.227a14.72 14.72 0 0 0 5.981-11.78v-13.007c0-8.114-6.606-14.724-14.72-14.732H286.731c-8.114.008-14.72 6.618-14.732 14.732v13.003a14.719 14.719 0 0 0 5.981 11.776l1.669 1.227-1.669 1.227a14.72 14.72 0 0 0-5.981 11.78v12.998a14.719 14.719 0 0 0 5.981 11.776l1.669 1.227-1.669 1.227a14.72 14.72 0 0 0-5.981 11.78v12.999c.011 8.11 6.618 14.72 14.732 14.732h48.765a1.727 1.727 0 0 0 0-3.452h-48.765c-6.217 0-11.277-5.059-11.277-11.277v-13.002c0-6.218 5.06-11.277 11.277-11.277h43.657l-.168 1.676a27.68 27.68 0 0 0 10.32 24.482c7.403 5.905 17.187 7.634 26.162 4.62l.896-.3 7.322 7.322-1.604 1.616a8.228 8.228 0 0 0-2.415 5.817v4.602a4.779 4.779 0 0 1-4.774 4.774h-4.617a8.227 8.227 0 0 0-5.799 2.408l-25.685 25.685c-3.208 3.208-3.208 8.428 0 11.635z"/><path id="6kmxg" d="M299.735 367.033a4.779 4.779 0 0 1-4.774-4.773 4.779 4.779 0 0 1 4.774-4.774 4.779 4.779 0 0 1 4.774 4.774 4.781 4.781 0 0 1-4.774 4.773zm0-13.006c-4.537 0-8.229 3.692-8.229 8.229 0 4.537 3.692 8.23 8.23 8.23 4.537 0 8.228-3.693 8.228-8.23 0-4.537-3.691-8.23-8.229-8.23z"/></defs><g><g transform="translate(-272 -263)"><g><use fill="#ffd729" xlink:href="#6kmxa"/></g><g><use fill="#ffd729" xlink:href="#6kmxb"/></g><g><use fill="#ffd729" xlink:href="#6kmxc"/></g><g><use fill="#ffd729" xlink:href="#6kmxd"/></g><g><use fill="#ffd729" xlink:href="#6kmxe"/></g><g><use fill="#ffd729" xlink:href="#6kmxf"/></g><g><use fill="#ffd729" xlink:href="#6kmxg"/></g></g></g></svg>