<svg xmlns="http://www.w3.org/2000/svg" viewBox="0 0 24 24">
    <path d="M12 0a11.994 11.994 0 0 0-8.786 20.164.838.838 0 0 0 .166.179A12 12 0 1 0 12 0zM8.3 9.83v-.055c.159-3.477 2.71-3.746 3.49-3.746h.221c.779 0 3.331.269 3.49 3.739v.062c.014.1.31 3.318-1.172 4.988a3.054 3.054 0 0 1-2.4.993h-.039a3.07 3.07 0 0 1-2.4-.993C7.993 13.162 8.29 9.934 8.3 9.83zm1.614 7.264a5.2 5.2 0 0 0 1.9.366h.159a5.208 5.208 0 0 0 2.041-.428c.462.862 1.614 2.042 4.462 3.028a10.311 10.311 0 0 1-12.993 0c2.807-.96 3.958-2.117 4.434-2.965zm5.486-1.02c.048-.055.1-.1.159-.166 1.91-2.145 1.621-5.829 1.579-6.236-.193-3.9-2.883-5.291-5.124-5.291h-.221c-2.248 0-4.938 1.387-5.124 5.291-.041.428-.331 4.077 1.579 6.243.083.1.179.193.283.3-.2.435-1.028 1.566-4.372 2.559a10.362 10.362 0 1 1 15.676 0c-3.814-1.128-4.359-2.445-4.435-2.7z" data-name="Path 217"/>
</svg>
