<svg xmlns="http://www.w3.org/2000/svg" xmlns:xlink="http://www.w3.org/1999/xlink" width="12" height="8" viewBox="0 0 12 8"><defs><path id="1o07a" d="M1110.001 322.002a2.002 2.002 0 0 0-2.002 1.998c0 1.104.898 2.002 2.002 2.002a2 2 0 0 0 0-4zm0 5.998c-2.282 0-3.793-1.088-4.658-2a7.116 7.116 0 0 1-1.344-2 7.093 7.093 0 0 1 1.344-2c.865-.913 2.376-2 4.658-2 2.281 0 3.791 1.087 4.655 2a7.124 7.124 0 0 1 1.343 2 7.07 7.07 0 0 1-1.343 2c-.864.912-2.374 2-4.655 2z"/></defs><g><g transform="translate(-1104 -320)"><use fill="#3c7bd8" xlink:href="#1o07a"/></g></g></svg>