<svg xmlns="http://www.w3.org/2000/svg" id="Group_383" data-name="Group 383" viewBox="0 0 18.338 24" width='18' fill='#000'>
    <path id="Path_292" d="M6.447 7.2H.765a.742.742 0 0 1-.691-.461.758.758 0 0 1 .16-.822L5.916.234A.752.752 0 0 1 7.2.765v5.682a.757.757 0 0 1-.753.753zM2.579 5.7H5.7V2.579z" class="cls-1" data-name="Path 292" transform="translate(-.013 -.013)"/>
    <path id="Path_293" d="M17.587 24H.752A.757.757 0 0 1 0 23.248V6.433A.751.751 0 0 1 .22 5.9L5.9.22A.751.751 0 0 1 6.433 0h11.154a.757.757 0 0 1 .752.752v22.5a.751.751 0 0 1-.752.748zM1.5 22.5h15.335v-21H6.744L1.5 6.744z" class="cls-1" data-name="Path 293"/>
</svg>
