<svg xmlns="http://www.w3.org/2000/svg" id="Group_386" data-name="Group 386" viewBox="0 0 24 23.99" width='24' fill='#000'>
    <path id="Path_304" d="M12 23.99A11.995 11.995 0 1 1 24 12a12.011 12.011 0 0 1-12 11.99zm0-22.434A10.444 10.444 0 1 0 22.444 12 10.46 10.46 0 0 0 12 1.556z" class="cls-1" data-name="Path 304"/>
    <g id="Group_378" data-name="Group 378" transform="translate(8.917 5.704)">
        <path id="Path_305" d="M89.092 57.79a1.6 1.6 0 0 0-1 .27.857.857 0 0 0-.342.716 1.116 1.116 0 0 0 .456.882 4.468 4.468 0 0 0 1.1.653c.425.187.861.394 1.3.622a3.153 3.153 0 0 1 1.1.965 2.489 2.489 0 0 1 .456 1.5 2.711 2.711 0 0 1-.581 1.711 2.769 2.769 0 0 1-1.722.954v.716a.907.907 0 0 1-.187.581.671.671 0 0 1-.56.228.65.65 0 0 1-.55-.228.944.944 0 0 1-.176-.581v-.633a3.866 3.866 0 0 1-1.784-.5c-.591-.373-.768-.778-.508-1.224.2-.342.55-.373 1.058-.114a3.847 3.847 0 0 0 1.836.477 1.822 1.822 0 0 0 1.162-.332 1.173 1.173 0 0 0 .415-.944 1.3 1.3 0 0 0-.332-.861 2.283 2.283 0 0 0-.819-.591q-.482-.218-1.058-.5a12.574 12.574 0 0 1-1.058-.581 2.544 2.544 0 0 1-.819-.84 2.593 2.593 0 0 1 .207-2.852 2.592 2.592 0 0 1 1.68-.819V55.8a.934.934 0 0 1 .176-.57.637.637 0 0 1 .55-.228.671.671 0 0 1 .56.228.878.878 0 0 1 .187.57v.674a4.116 4.116 0 0 1 1.4.456 1.06 1.06 0 0 1 .519.529.59.59 0 0 1-.031.56c-.2.373-.581.425-1.182.156a3.338 3.338 0 0 0-1.453-.385z" class="cls-1" data-name="Path 305" transform="translate(-85.979 -55)"/>
    </g>
</svg>
