<svg xmlns="http://www.w3.org/2000/svg" viewBox="0 0 88 42.205">
    <path d="M88 40.6H0v1.6h88zM10.842 20.645l2.13 7.234H8.29zm67.25-1.39a3.011 3.011 0 0 1 2.006.739 4.892 4.892 0 0 1 1.373 2.341 13.889 13.889 0 0 1 .493 4.048 13.124 13.124 0 0 1-.422 3.52 4.717 4.717 0 0 1-1.285 2.288 2.928 2.928 0 0 1-2.077.774 3.2 3.2 0 0 1-2.939-1.8 10.953 10.953 0 0 1-1-5.245 16.272 16.272 0 0 1 .211-2.746 6.483 6.483 0 0 1 .7-2.112 3.7 3.7 0 0 1 1.2-1.338 3.151 3.151 0 0 1 1.739-.47zm-28.53-.634v.546a2.879 2.879 0 0 1 .722.264 1.227 1.227 0 0 1 .352.317 1.325 1.325 0 0 1 .176.546 8.473 8.473 0 0 1 .053 1.126v9.7a7.053 7.053 0 0 1-.07 1.232 1.088 1.088 0 0 1-.317.616 2.476 2.476 0 0 1-.933.4v.546h4.734v-.544a2.8 2.8 0 0 1-.739-.264.921.921 0 0 1-.352-.334 1.421 1.421 0 0 1-.176-.546 8.042 8.042 0 0 1-.053-1.091v-9.716a6.184 6.184 0 0 1 .07-1.144 1.311 1.311 0 0 1 .194-.563 1.032 1.032 0 0 1 .352-.317 3.112 3.112 0 0 1 .7-.246V18.6h-4.713zm-29.691 0v.546a4.779 4.779 0 0 1 .722.264 1.016 1.016 0 0 1 .352.317 1.421 1.421 0 0 1 .176.546 8.473 8.473 0 0 1 .053 1.126v9.715a7.053 7.053 0 0 1-.07 1.232 1.088 1.088 0 0 1-.317.616 2.476 2.476 0 0 1-.933.4v.546h4.716v-.546a3.071 3.071 0 0 1-.739-.264.921.921 0 0 1-.352-.334 1.432 1.432 0 0 1-.158-.546c-.018-.229-.053-.6-.053-1.109v-4.7h.6a1.774 1.774 0 0 1 .669.106 1.327 1.327 0 0 1 .458.334 6.881 6.881 0 0 1 .669.915l2.6 3.89a3.8 3.8 0 0 1 .4.686 1.186 1.186 0 0 1 .123.493.436.436 0 0 1-.194.37 1.222 1.222 0 0 1-.6.158v.546h4.946v-.546a2.158 2.158 0 0 1-.722-.229 3.053 3.053 0 0 1-.7-.546 10.7 10.7 0 0 1-1.021-1.32l-4.048-5.949 3.771-4.238c.475-.528.827-.9 1.074-1.126a3.892 3.892 0 0 1 .722-.546 2.942 2.942 0 0 1 .7-.282V18.6h-4.889v.546a1.51 1.51 0 0 1 .7.246.776.776 0 0 1 .264.651 1.8 1.8 0 0 1-.141.634 4.083 4.083 0 0 1-.669 1.074c-.264.352-.757.933-1.461 1.742a14.623 14.623 0 0 1-1.338 1.373 3.092 3.092 0 0 1-.792.51 2.166 2.166 0 0 1-.774.141h-.334L23.3 21.4a8.974 8.974 0 0 1 .053-1.144 1.4 1.4 0 0 1 .194-.563 1.032 1.032 0 0 1 .352-.317 3.112 3.112 0 0 1 .7-.246v-.546H19.87zm14.907 0v3.907h1.109a10 10 0 0 1 .458-1.478 3.136 3.136 0 0 1 .528-.915 1.437 1.437 0 0 1 .634-.422 2.953 2.953 0 0 1 .862-.106h1.408V31.1a7.392 7.392 0 0 1-.053 1.021 1.652 1.652 0 0 1-.176.546 1.013 1.013 0 0 1-.264.334 1.186 1.186 0 0 1-.422.211c-.176.053-.37.123-.6.176v.546h5.122v-.546a4.132 4.132 0 0 1-.81-.246 1 1 0 0 1-.4-.352 1.8 1.8 0 0 1-.229-.616 5.725 5.725 0 0 1-.07-1.056V19.624H43.3a2.589 2.589 0 0 1 .933.123 1.638 1.638 0 0 1 .581.422 3.046 3.046 0 0 1 .51.845 12.218 12.218 0 0 1 .493 1.531H46.9v-3.907H34.778zM10.4 18.445L5.72 30.87a8.442 8.442 0 0 1-.9 1.8 1.619 1.619 0 0 1-1.091.722v.546h4.789v-.546a1.957 1.957 0 0 1-1.056-.422 1.287 1.287 0 0 1-.334-.986 4.349 4.349 0 0 1 .088-.774 9.847 9.847 0 0 1 .387-1.25l.387-1.091h5.227l.422 1.443c.106.37.194.7.264.986a4.912 4.912 0 0 1 .088.827 1.374 1.374 0 0 1-.141.651.92.92 0 0 1-.4.37 3.314 3.314 0 0 1-.845.246v.546h5.174v-.546a1.717 1.717 0 0 1-1.285-1.109 10.769 10.769 0 0 1-.475-1.338L12.2 18.427l-1.8.018zm46.57 0v.546a1.6 1.6 0 0 1 .739.334 1.974 1.974 0 0 1 .493.651 8.824 8.824 0 0 1 .528 1.461l3.785 12.513h1.478l4.664-12.426a11.171 11.171 0 0 1 .669-1.5 2.1 2.1 0 0 1 .563-.686 2.04 2.04 0 0 1 .739-.317v-.541h-4.716v.546a1.843 1.843 0 0 1 1.056.422 1.326 1.326 0 0 1 .317.986 2.021 2.021 0 0 1-.018.317c-.018.106-.035.246-.07.387s-.07.3-.123.458-.088.3-.141.44l-3.221 9.222-2.622-9.152c-.106-.37-.194-.7-.264-.986a4.732 4.732 0 0 1-.088-.827 1.451 1.451 0 0 1 .141-.669.957.957 0 0 1 .4-.387 3.381 3.381 0 0 1 .792-.229v-.546h-5.1zm21.19-.176a5.668 5.668 0 0 0-5.474 3.661 10.9 10.9 0 0 0-.757 4.294 12.585 12.585 0 0 0 .422 3.485 6.406 6.406 0 0 0 1.235 2.391 4.716 4.716 0 0 0 1.9 1.373 6.44 6.44 0 0 0 2.446.44 6.214 6.214 0 0 0 3.344-.9 5.825 5.825 0 0 0 2.218-2.71 10.987 10.987 0 0 0 .792-4.435A11.247 11.247 0 0 0 83.6 21.7a5.269 5.269 0 0 0-2.059-2.587 6.377 6.377 0 0 0-3.379-.844zM43.947 2.077L0 13.886v1.566L43.947 3.8 88 15.435v-1.566zM44 0L.845 11.6v.81L44 .827l43.155 11.581V11.6z" data-name="Path 277"/>
</svg>
