<svg xmlns="http://www.w3.org/2000/svg" id="Group_385" data-name="Group 385" viewBox="0 0 24 22.798" width='24'>
    <path id="Path_301" d="M18.436 22.8H.779A.785.785 0 0 1 0 22.019V.779A.785.785 0 0 1 .779 0h17.657a.785.785 0 0 1 .779.779V4.4a.779.779 0 1 1-1.558 0V1.558H1.558V21.24h16.1v-3.033a.779.779 0 0 1 1.558 0v3.812a.778.778 0 0 1-.78.781z" class="cls-1" data-name="Path 301"/>
    <path id="Path_302" d="M91.778 103.858h-14.5a.779.779 0 0 1 0-1.558h14.49a.785.785 0 0 1 .779.779.776.776 0 0 1-.769.779z" class="cls-1" data-name="Path 302" transform="translate(-68.555 -91.675)"/>
    <path id="Path_303" d="M188.8 81.607a.77.77 0 0 1-.55-.229.784.784 0 0 1 0-1.1l2.368-2.368-2.368-2.358a.778.778 0 1 1 1.1-1.1l2.919 2.919a.784.784 0 0 1 0 1.1l-2.919 2.919a.8.8 0 0 1-.55.217z" class="cls-1" data-name="Path 303" transform="translate(-168.496 -66.516)"/>
</svg>
