<svg xmlns="http://www.w3.org/2000/svg" viewBox="0 0 24 20.379" width='24' fill='#000'>
    <path id="Path_308" d="M23.729 7.283l-7.836-5.9-.821-.62-.01-.01-.711-.53a.691.691 0 0 0-.841 0l-1.5 1.131L10.508.218a.691.691 0 0 0-.841 0L.28 7.283a.688.688 0 0 0-.28.56v11.91a.7.7 0 0 0 .7.7h22.6a.7.7 0 0 0 .7-.7V7.844a.653.653 0 0 0-.271-.561zm-12.5 11.759h-2.3v-5.083h2.292v5.084zm7.526 0H12.63v-5.784a.7.7 0 0 0-.7-.7h-3.7a.7.7 0 0 0-.7.7v5.785H1.4V8.194l8.677-6.545 8.677 6.545zm1.4 0V7.834a.688.688 0 0 0-.28-.56l-6.714-5.065.761-.57L22.6 8.184v10.859h-2.444z" class="cls-1" data-name="Path 308" transform="translate(0 -.075)"/>
</svg>
