<svg xmlns="http://www.w3.org/2000/svg" viewBox="0 0 20.173 24" width='21' fill='#000'>
    <g id="Group_381" data-name="Group 381" transform="translate(.023 -.1)">
        <path id="Path_287" d="M20.125 6.274c-.011-.65-.022-1.266-.022-1.849a.846.846 0 0 0-.84-.84 11.6 11.6 0 0 1-8.617-3.25.853.853 0 0 0-1.176 0 11.589 11.589 0 0 1-8.605 3.25.846.846 0 0 0-.84.84c0 .594-.011 1.21-.022 1.849-.113 6.026-.27 14.297 9.781 17.781a.9.9 0 0 0 .56 0c10.05-3.496 9.893-11.755 9.781-17.781zM10.064 22.363C1.436 19.226 1.571 12.369 1.683 6.3c.011-.359.011-.717.022-1.064a12.974 12.974 0 0 0 8.359-3.171 13 13 0 0 0 8.359 3.171c0 .347.011.695.022 1.064.112 6.069.246 12.926-8.381 16.063z" class="cls-1" data-name="Path 287"/>
        <path id="Path_288" d="M58.638 79.169l-4.056 4.056-1.726-1.725a.84.84 0 0 0-1.188 1.188L54 85.006a.839.839 0 0 0 1.188 0l4.65-4.65a.845.845 0 0 0 0-1.188.859.859 0 0 0-1.2.001z" class="cls-1" data-name="Path 288" transform="translate(-45.683 -69.993)"/>
    </g>
</svg>
