<svg xmlns="http://www.w3.org/2000/svg" id="Group_384" data-name="Group 384" viewBox="0 0 24 24" width='24'>
    <g id="Group_371" data-name="Group 371">
        <path id="Path_299" d="M23.616 10.5c-.192-.122-1.706-1.026-2.305-1.3l-.745-1.8c.22-.6.647-2.263.712-2.554a.8.8 0 0 0-.216-.745L19.9 2.929a.8.8 0 0 0-.745-.216c-.22.052-1.93.478-2.554.712L14.8 2.68c-.262-.572-1.139-2.052-1.3-2.305A.8.8 0 0 0 12.815 0h-1.649a.8.8 0 0 0-.679.375C10.365.567 9.46 2.08 9.184 2.68l-1.8.745c-.6-.22-2.263-.647-2.554-.712a.8.8 0 0 0-.745.216L2.929 4.1a.8.8 0 0 0-.216.745c.052.22.478 1.93.712 2.554l-.745 1.8C2.109 9.456.628 10.332.375 10.5a.8.8 0 0 0-.375.675v1.649a.8.8 0 0 0 .375.679c.192.122 1.706 1.026 2.305 1.3l.745 1.8c-.22.6-.647 2.263-.712 2.554a.8.8 0 0 0 .216.745L4.1 21.071a.8.8 0 0 0 .745.216c.22-.052 1.93-.478 2.554-.712l1.8.745c.262.576 1.143 2.052 1.3 2.305a.8.8 0 0 0 .679.375h1.649a.8.8 0 0 0 .679-.375c.122-.192 1.026-1.706 1.3-2.305l1.8-.745c.6.22 2.263.647 2.554.712a.8.8 0 0 0 .745-.216l1.166-1.171a.8.8 0 0 0 .216-.745c-.052-.22-.478-1.93-.712-2.554l.745-1.8c.576-.262 2.052-1.143 2.305-1.3a.8.8 0 0 0 .375-.676v-1.65a.822.822 0 0 0-.384-.675zm-1.223 1.87c-.572.337-1.518.886-1.813 1.007a.792.792 0 0 0-.609.483l-1.017 2.455a.8.8 0 0 0 .089.773c.122.3.408 1.354.572 2l-.529.529c-.642-.164-1.7-.45-2-.572a.8.8 0 0 0-.773-.089L13.86 19.97a.792.792 0 0 0-.483.609c-.122.3-.67 1.246-1.007 1.813h-.75c-.337-.572-.886-1.518-1.007-1.813a.792.792 0 0 0-.483-.609l-2.455-1.016a.8.8 0 0 0-.773.089c-.3.122-1.354.408-2 .572l-.529-.529c.164-.642.45-1.7.572-2a.8.8 0 0 0 .089-.773L4.02 13.86a.792.792 0 0 0-.609-.483c-.3-.122-1.246-.67-1.813-1.007v-.75c.572-.337 1.518-.886 1.813-1.007a.792.792 0 0 0 .609-.483l1.017-2.455a.8.8 0 0 0-.089-.775c-.122-.3-.408-1.354-.572-2l.529-.529c.642.164 1.7.45 2 .572a.8.8 0 0 0 .773.089L10.13 4.02a.792.792 0 0 0 .483-.609c.122-.3.67-1.246 1.007-1.813h.75c.337.572.886 1.518 1.007 1.813a.792.792 0 0 0 .483.609l2.455 1.017a.8.8 0 0 0 .773-.089c.3-.122 1.354-.408 2-.572l.529.529c-.164.642-.45 1.7-.572 2a.8.8 0 0 0-.089.773l1.014 2.452a.792.792 0 0 0 .609.483c.3.122 1.246.67 1.813 1.007v.75z" class="cls-1" data-name="Path 299"/>
    </g>
    <g id="Group_373" data-name="Group 373">
        <path id="Path_300" d="M149.629 144.4a5.229 5.229 0 1 0 5.229 5.229 5.237 5.237 0 0 0-5.229-5.229zm0 8.861a3.631 3.631 0 1 1 3.631-3.631 3.638 3.638 0 0 1-3.631 3.631z" class="cls-1" data-name="Path 300" transform="translate(-144.4 -144.4)"/>
    </g>
</svg>
