<svg xmlns="http://www.w3.org/2000/svg" viewBox="0 0 24 24">
    <g data-name="Group 182">
        <path d="M18.992 14.742a2.464 2.464 0 0 0-1.8-.821 2.548 2.548 0 0 0-1.809.814l-1.512 1.5c-.055-.028-.11-.055-.166-.09a1.2 1.2 0 0 1-.131-.069c-.18-.09-.345-.172-.483-.255a17.111 17.111 0 0 1-4.1-3.725A9.808 9.808 0 0 1 7.7 10.082c.345-.317.67-.648.988-.966l.11-.11c.069-.069.138-.145.214-.214s.138-.145.207-.214a2.428 2.428 0 0 0 0-3.663L7.86 3.553c-.152-.152-.318-.317-.463-.476-.3-.3-.615-.628-.946-.931a2.539 2.539 0 0 0-1.782-.773 2.589 2.589 0 0 0-1.8.78l-1.715 1.72A3.777 3.777 0 0 0 .021 6.292a8.861 8.861 0 0 0 .649 3.774 21.568 21.568 0 0 0 3.86 6.429 23.722 23.722 0 0 0 7.9 6.181 12.491 12.491 0 0 0 4.468 1.318c.11.007.221.007.325.007a3.915 3.915 0 0 0 3-1.29l.014-.014c.007-.007.014-.014.014-.021a9.775 9.775 0 0 1 .794-.821l.069-.069c.262-.248.47-.455.656-.648a2.633 2.633 0 0 0 .794-1.828 2.533 2.533 0 0 0-.815-1.814zm.022 6.892a2.3 2.3 0 0 1-1.782.752c-.076 0-.152 0-.221-.007a10.811 10.811 0 0 1-3.86-1.159 22.178 22.178 0 0 1-7.355-5.753A20.038 20.038 0 0 1 2.214 9.5a6.993 6.993 0 0 1-.552-3.077 2.179 2.179 0 0 1 .649-1.4l1.7-1.7a1.021 1.021 0 0 1 .67-.317.935.935 0 0 1 .635.31l.021.021c.29.269.566.552.9.89.076.083.159.166.242.241s.159.159.235.241l1.36 1.364a.816.816 0 0 1 0 1.352l-.145.145a3.754 3.754 0 0 1-.29.283c-.449.455-.829.842-1.25 1.214l-.007.007-.035.034a1.159 1.159 0 0 0-.283 1.265l.021.055a11.187 11.187 0 0 0 1.637 2.67l.014.014a18.363 18.363 0 0 0 4.482 4.07c.214.131.421.241.628.345a5.094 5.094 0 0 1 .483.262l.014.007c.007 0 .014.007.021.014l.041.021a1.174 1.174 0 0 0 1.423-.248l1.712-1.71a1.013 1.013 0 0 1 .656-.338.912.912 0 0 1 .622.317l2.776 2.773a.843.843 0 0 1 .041 1.331h-.048l-.021.069c-.152.159-.3.31-.463.462l-.11.11c-.331.334-.669.665-.979 1.037z" data-name="Path 218"/>
        <path d="M12.935 5.919a6.3 6.3 0 0 1 5.138 5.133.8.8 0 0 0 .8.676c.041 0 .083-.007.117-.007h.014a.8.8 0 0 0 .532-.331.825.825 0 0 0 .138-.607 7.939 7.939 0 0 0-6.471-6.464.81.81 0 0 0-.939.662.777.777 0 0 0 .138.614.87.87 0 0 0 .533.324z" data-name="Path 219"/>
        <path d="M23.986 10.582A12.971 12.971 0 0 0 13.405.014a.8.8 0 0 0-.608.138.837.837 0 0 0-.331.524.809.809 0 0 0 .67.938 11.335 11.335 0 0 1 9.247 9.23.8.8 0 0 0 .8.676c.041 0 .083-.007.117-.007h.014a.776.776 0 0 0 .525-.324.745.745 0 0 0 .147-.607z" data-name="Path 220"/>
    </g>
</svg>
