<svg xmlns="http://www.w3.org/2000/svg" viewBox="0 0 16 12.991" width='16' fill='#9b9b9b'>
    <path id="ic_twitter" d="M16 1.541a6.145 6.145 0 0 1-1.884.514A3.308 3.308 0 0 0 15.56.245a6.792 6.792 0 0 1-2.1.783A3.245 3.245 0 0 0 11.058 0 3.278 3.278 0 0 0 7.78 3.278a3.8 3.8 0 0 0 .073.758A9.351 9.351 0 0 1 1.1.612a3.166 3.166 0 0 0-.44 1.639 3.285 3.285 0 0 0 1.468 2.74 3.4 3.4 0 0 1-1.492-.416v.049a3.256 3.256 0 0 0 2.642 3.2 3.29 3.29 0 0 1-.856.122A4.766 4.766 0 0 1 1.81 7.9a3.294 3.294 0 0 0 3.058 2.275 6.6 6.6 0 0 1-4.085 1.397c-.269 0-.514-.024-.783-.049a9.289 9.289 0 0 0 5.04 1.468 9.273 9.273 0 0 0 9.346-9.346v-.416A7.07 7.07 0 0 0 16 1.541z" class="cls-1"/>
</svg>
