<svg xmlns="http://www.w3.org/2000/svg" viewBox="0 0 18 10.125">
    <defs>
        <style>
            .cls-1{fill:#9b9b9b;fill-rule:evenodd}
        </style>
    </defs>
    <path id="Path_74" d="M9.883 10.083a.919.919 0 0 0 .491-.212.768.768 0 0 0 .147-.466s-.02-1.423.65-1.633 1.508 1.376 2.408 1.984a1.722 1.722 0 0 0 1.2.359l2.4-.033s1.257-.076.661-1.051a7.962 7.962 0 0 0-1.787-2.039c-1.508-1.379-1.306-1.156.51-3.542C17.668 2 18.11 1.11 17.972.73c-.131-.363-.945-.266-.945-.266L14.321.48a.623.623 0 0 0-.35.061.754.754 0 0 0-.24.286 15.327 15.327 0 0 1-1 2.081c-1.205 2.017-1.687 2.124-1.884 2-.459-.293-.344-1.174-.344-1.8 0-1.956.3-2.771-.585-2.982A4.686 4.686 0 0 0 8.656 0 5.929 5.929 0 0 0 6.41.229c-.308.148-.546.48-.4.5a1.221 1.221 0 0 1 .8.4 2.545 2.545 0 0 1 .268 1.207s.159 2.3-.372 2.588c-.364.2-.865-.2-1.939-2.035A16.913 16.913 0 0 1 3.8.91a.8.8 0 0 0-.224-.3 1.117 1.117 0 0 0-.418-.163L.587.464S.2.474.059.64c-.126.147-.01.451-.01.451s2.013 4.645 4.294 6.987a6.225 6.225 0 0 0 4.464 2.005z" class="cls-1" data-name="Path 74"/>
</svg>
