<svg xmlns="http://www.w3.org/2000/svg" xmlns:xlink="http://www.w3.org/1999/xlink" width="85" height="70" viewBox="0 0 85 70"><defs><path id="j7fea" d="M248 2075.146c0 18.078-29.002 30.687-47.444 30.687-18.441 0-32.556-19.837-32.556-37.915S186.538 2036 204.98 2036c18.44 0 43.02 21.069 43.02 39.146z"/><path id="j7feb" d="M249.54 2060.56l-10.81 11.96-4.96-4.59c-1.52-1.41-4.03-3.46-5.72-4.66l-6.95-4.99c-1.08-.76-2.46-1.17-3.98-1.18-1.28 0-2.47.31-3.43.88l-2.51 1.51c-.4.24-.87.37-1.38.37h-.01c-.88 0-1.77-.42-2.25-1.08l-.55-.75a2.282 2.282 0 0 1 .52-3.25l7.43-5.22c.67-.48 1.83-.81 2.91-.81h.07c.75 0 1.47.15 1.99.4l6.05 2.93c.94.45 2.06.69 3.31.69 1.61-.01 3.07-.38 4.21-1.09l6.18-3.85c.41-.26.9-.39 1.43-.39h.01c.89 0 1.74.4 2.24 1.04l6.34 8.11c.38.49.6 1.17.6 1.88 0 .81-.28 1.58-.74 2.09zm-8.65 18.36c0 .6-.23 1.18-.64 1.62l-.64.68c-.45.49-1.08.75-1.75.76-.61 0-1.19-.23-1.63-.63l-10.62-9.82-1.68 1.8 11.37 10.53c.49.45.76 1.07.76 1.75a2.3 2.3 0 0 1-.64 1.62l-.63.68c-.45.49-1.08.75-1.75.75-.61 0-1.19-.23-1.62-.63l-10.62-9.82-1.68 1.8 9.41 8.71c.47.45.73 1.06.73 1.71a2.4 2.4 0 0 1-.63 1.62l-.64.68c-.45.49-1.08.75-1.75.76-.61 0-1.19-.23-1.63-.63l-9.4-8.68-1.68 1.8 4.7 4.34a2.357 2.357 0 0 1 .05 3.26l-.64.68c-.45.48-1.07.75-1.75.75-.61 0-1.19-.23-1.62-.63l-4.21-3.9.04-.08c.36-.7.55-1.46.55-2.19 0-1.32-.55-2.59-1.5-3.5l-.68-.64a4.82 4.82 0 0 0-3.35-1.33c-.05 0-.1.01-.15.01-.04.01-.09.01-.13.01l-.13.01v-.18c0-1.27-1.5-3.52-1.52-3.54l-.66-.62a4.916 4.916 0 0 0-2.45-1.25l-.14-.03.05-.14c.19-.54.29-1.08.29-1.6 0-1.32-.55-2.6-1.5-3.5l-.68-.64c-.91-.86-2.1-1.33-3.35-1.33-.09 0-.17.01-.26.02-.05.01-.11.01-.16.02l-.11.02v-.13a4.78 4.78 0 0 0-1.49-3.35l-.67-.64c-.91-.86-2.1-1.33-3.35-1.33h-.01c-1.33 0-2.61.54-3.52 1.5l-1.68 1.75-.09-.08-7.12-6.07c-.52-.45-.81-1.07-.81-1.76 0-.58.21-1.11.59-1.54l7.51-8.41c.32-.35.78-.67 1.3-.88.99-.4 2.21-.44 3.03-.08l4.12 1.76c1.07.45 2.35.68 3.82.69 1.47 0 2.75-.23 3.82-.69l4.12-1.76c.66-.29 1.62-.45 2.6-.46h.05c1.02 0 2.09.21 2.73.54.39.19.76.38 1.1.55l.19.09-4.38 3.08a4.712 4.712 0 0 0-2.02 3.88c0 1.01.33 2.02.94 2.83l.55.75c.98 1.3 2.56 2.07 4.24 2.08.95 0 1.86-.25 2.65-.72l2.51-1.51c.54-.33 1.34-.53 2.14-.53h.04c.95 0 1.9.27 2.51.72l6.95 4.99c1.56 1.12 4.07 3.17 5.48 4.47l8.05 7.44c.5.45.77 1.07.77 1.74zm-33.35 10.95l-3.84 4c-.45.47-1.07.73-1.73.73-.62 0-1.21-.23-1.65-.65l-.68-.64a2.367 2.367 0 0 1-.08-3.36l3.83-4a2.38 2.38 0 0 1 1.73-.73c.62 0 1.21.23 1.65.65l.68.64c.47.45.73 1.06.74 1.72.01.61-.23 1.2-.65 1.64zm-12.01.69c-.45.47-1.06.73-1.73.73-.62 0-1.2-.23-1.65-.65l-.68-.64c-.48-.45-.74-1.06-.74-1.72 0-.54.18-1.05.53-1.48l6.33-6.61a2.38 2.38 0 0 1 3.25.02l.68.64a2.367 2.367 0 0 1 .08 3.36zm-7.44-4.01c-.45.47-1.07.73-1.73.73-.62 0-1.21-.23-1.65-.65l-.68-.64c-.47-.45-.74-1.06-.74-1.72 0-.62.23-1.2.65-1.64.09-.09 9.02-9.38 9.15-9.53a2.38 2.38 0 0 1 1.66-.68c.62 0 1.21.23 1.65.65l.68.64a2.367 2.367 0 0 1 .08 3.36zm-5.52-7.05c-.62 0-1.21-.23-1.65-.65l-.68-.64c-.47-.45-.74-1.06-.74-1.72 0-.62.23-1.2.66-1.64l6.81-7.11a2.35 2.35 0 0 1 1.73-.74c.62 0 1.2.23 1.65.65l.67.64c.05.06.73 1.09.74 1.73 0 .48-.15.95-.42 1.35-.08.08-7.29 7.6-7.36 7.67-.43.3-.91.46-1.41.46zm69.06-24.4l-6.34-8.11c-.99-1.26-2.52-1.99-4.19-1.99-.99 0-1.93.26-2.74.77l-6.18 3.84c-.68.43-1.8.71-2.87.71h-.06c-.83 0-1.65-.16-2.21-.44l-6.05-2.93c-.89-.43-1.94-.65-3.1-.65-1.68.01-3.19.44-4.37 1.26l-.77.54-.07-.03-1.6-.8-.8-.4c-1.07-.53-2.38-.79-3.89-.8-1.35 0-2.55.22-3.57.65l-4.12 1.76c-.69.3-1.77.49-2.81.49h-.08c-1.04 0-2.11-.19-2.81-.49l-4.13-1.76c-.7-.3-1.47-.45-2.31-.45-.9 0-1.79.17-2.63.52-.88.36-1.63.87-2.2 1.52l-7.51 8.41c-.79.88-1.22 2-1.22 3.17 0 1.39.61 2.71 1.68 3.63l7.11 6.06-3.42 3.56c-.86.9-1.34 2.08-1.34 3.34 0 1.32.55 2.59 1.5 3.5l.67.64c.59.56 1.31.95 2.14 1.16l.16.04-.08.14c-.4.73-.6 1.52-.6 2.3 0 1.32.55 2.6 1.5 3.5l.61.58h-.01l.07.07c.91.86 2.1 1.33 3.35 1.33h.01c.65 0 1.28-.13 1.89-.38l.13-.06.04.14c.22.91.69 1.72 1.34 2.34l.68.64c.91.86 2.1 1.33 3.35 1.33h.01c.96 0 1.89-.28 2.69-.81l.14-.09.05.16c.26.83.68 1.52 1.26 2.08l.68.64c.9.86 2.09 1.33 3.35 1.33h.01c1.32 0 2.61-.54 3.52-1.5l3.02-3.16.09.08 3.99 3.69c.9.83 2.07 1.29 3.3 1.29h.02c1.34 0 2.64-.56 3.55-1.54l.64-.68c.5-.54.87-1.2 1.09-1.97l.06-.2 1.7 1.56c.9.83 2.07 1.29 3.3 1.29h.01c1.35 0 2.65-.56 3.56-1.54l.63-.68c.68-.73 1.11-1.65 1.24-2.67l.02-.14.14.04c.45.12.85.17 1.21.17 1.35 0 2.65-.56 3.56-1.54l.64-.68c.84-.9 1.3-2.07 1.29-3.29 0-.33-.04-.69-.13-1.09l-.03-.13.14-.02c1.15-.15 2.16-.66 2.92-1.47l.64-.68a4.81 4.81 0 0 0 1.29-3.29c0-1.34-.56-2.63-1.55-3.54l-1.28-1.18 10.84-11.98c.89-.98 1.38-2.31 1.38-3.72-.02-1.28-.41-2.45-1.14-3.39z"/></defs><g><g transform="translate(-168 -2036)"><use fill="#3c7bd8" xlink:href="#j7fea"/></g><g transform="translate(-168 -2036)"><use xlink:href="#j7feb"/></g></g></svg>