<svg xmlns="http://www.w3.org/2000/svg" xmlns:xlink="http://www.w3.org/1999/xlink" width="79" height="80" viewBox="0 0 79 80"><defs><path id="c0yta" d="M732.609 2040.865c18.4-2.586 36.844 11.014 39.406 29.244 2.563 18.23-11.006 39.322-29.407 41.908-18.4 2.586-45.86-2.64-48.422-20.871-2.562-18.23 20.022-47.695 38.423-50.281z"/><path id="c0ytb" d="M707.883 2094.07a42.927 42.927 0 0 1-4.28-11.05 8.76 8.76 0 0 1 3.66-9.26l3.12-2.08V2083c0 .66.53 1.19 1.19 1.19.66 0 1.19-.53 1.19-1.19v-36.87c0-1.93 1.57-3.5 3.5-3.5s3.5 1.57 3.5 3.5v30.63c0 .66.53 1.19 1.19 1.19.66 0 1.19-.53 1.19-1.19v-10.95c0-1.93 1.57-3.5 3.5-3.5s3.5 1.57 3.5 3.5v10.94c0 .66.53 1.19 1.19 1.19.66 0 1.19-.53 1.19-1.19v-7.81c0-1.93 1.57-3.5 3.5-3.5s3.5 1.57 3.5 3.5v7.81c0 .66.53 1.19 1.19 1.19.66 0 1.19-.53 1.19-1.19v-4.69c0-1.93 1.57-3.5 3.5-3.5s3.5 1.57 3.5 3.5v12.17c0 7.14-2.09 14.05-6.05 19.98-.13.2-.2.42-.2.66v6h-25.77v-6c0-.31-.13-.62-.35-.84-.05-.06-.14-.14-.26-.27a42.83 42.83 0 0 1-7.39-9.69zm6.81 19.18h28.13c.66 0 1.19-.53 1.19-1.19v-6.83l.06-.09a38.319 38.319 0 0 0 6.19-20.91v-12.17a5.89 5.89 0 0 0-5.88-5.88c-1.17 0-2.3.34-3.27 1l-.4.27-.16-.45a5.885 5.885 0 0 0-5.54-3.93c-1.17 0-2.3.34-3.27 1l-.4.27-.16-.46a5.885 5.885 0 0 0-5.54-3.93c-1.03 0-2.05.27-2.94.79l-.56.33v-14.94a5.89 5.89 0 0 0-5.88-5.88 5.89 5.89 0 0 0-5.88 5.88v22.7l-4.44 2.96c-3.84 2.56-5.71 7.29-4.65 11.78.96 4.08 2.48 8.01 4.52 11.66 2.04 3.66 4.57 7.02 7.54 9.98l.11.11.05.21v6.54c-.01.65.53 1.18 1.18 1.18z"/><path id="c0ytc" d="M716.253 2034c-6.68 0-12.12 5.44-12.12 12.13 0 .66.53 1.19 1.19 1.19.66 0 1.19-.53 1.19-1.19 0-5.38 4.37-9.75 9.75-9.75s9.74 4.37 9.74 9.75c0 .66.53 1.19 1.19 1.19.66 0 1.19-.53 1.19-1.19 0-6.69-5.44-12.13-12.13-12.13z"/></defs><g><g transform="translate(-694 -2034)"><use fill="#5fce67" xlink:href="#c0yta"/></g><g transform="translate(-694 -2034)"><g><use xlink:href="#c0ytb"/></g><g><use xlink:href="#c0ytc"/></g></g></g></svg>