<svg xmlns="http://www.w3.org/2000/svg" xmlns:xlink="http://www.w3.org/1999/xlink" width="89" height="79" viewBox="0 0 89 79"><defs><path id="vxh3a" d="M1047 5127.147c0 18.077-29.002 30.686-47.444 30.686-18.441 0-32.556-19.837-32.556-37.915S985.538 5088 1003.98 5088c18.44 0 43.02 21.069 43.02 39.147z"/><path id="vxh3b" d="M1052.54 5126.52h-.34c-.2.22-.47.38-.78.42l-7.01 1.17c-.53.09-.97.49-1.1 1.01-.66 2.57-1.67 5-3 7.23-.28.47-.25 1.05.06 1.5l4.13 5.81c.36.52.3 1.25-.14 1.69l-4.98 4.98c-.18.18-.49.39-.94.39-.28 0-.55-.09-.78-.26l-5.78-4.11c-.44-.32-1.03-.34-1.51-.06a27.403 27.403 0 0 1-7.23 3c-.53.13-.93.57-1.01 1.09l-1.19 7.03c-.1.63-.64 1.1-1.3 1.1h-7.04c-.65 0-1.2-.46-1.3-1.11l-1.17-7.01c-.09-.54-.49-.97-1.01-1.1-2.44-.63-4.82-1.61-7.07-2.9-.46-.26-1.09-.23-1.48.06l-5.86 4.17c-.7.43-1.27.28-1.69-.14l-4.98-4.98c-.44-.44-.51-1.12-.17-1.66l4.14-5.8c.31-.45.34-1.05.06-1.52-1.36-2.27-2.38-4.7-3.03-7.21-.14-.52-.58-.92-1.11-1.01l-7.07-1.2c-.63-.1-1.1-.64-1.1-1.3v-7.04c0-.66.47-1.2 1.11-1.3l6.96-1.17c.55-.09.99-.49 1.12-1.02.65-2.58 1.64-5.02 2.95-7.25.27-.46.24-1.05-.07-1.48l-4.16-5.85c-.37-.52-.3-1.25.14-1.69l4.98-4.98c.18-.18.48-.39.94-.39.28 0 .55.09.78.26l5.75 4.1c.45.31 1.05.34 1.52.06 2.27-1.36 4.7-2.38 7.21-3.03.52-.14.92-.58 1.01-1.11l1.2-7.07c.1-.63.64-1.1 1.3-1.1h7.04c.65 0 1.2.47 1.3 1.11l1.17 6.96c.09.55.49.99 1.02 1.12 2.61.66 5.1 1.68 7.4 3.04.48.28 1.06.26 1.51-.06l5.76-4.14c.74-.45 1.28-.28 1.7.14l4.98 4.98c.44.44.51 1.12.17 1.66l-4.15 5.84c-.32.44-.34 1.03-.06 1.51 1.33 2.23 2.34 4.66 3 7.23.13.53.57.93 1.09 1.01l7.03 1.19c.63.1 1.1.64 1.1 1.3v7.89zm2.71-.88v-7.04a4 4 0 0 0-3.36-4.02l-6.15-1.04-.16-.51a31.6 31.6 0 0 0-2.19-5.3l-.25-.48 3.62-5.07c1.16-1.63.98-3.83-.44-5.24l-4.98-4.98c-1.38-1.38-3.67-1.56-5.22-.44l-5.09 3.62-.48-.25c-1.79-.94-3.63-1.7-5.49-2.26l-.52-.16-1.03-6.07a4.062 4.062 0 0 0-4.02-3.4h-7.04c-2 0-3.69 1.43-4.02 3.4l-1.06 6.21-.51.16c-1.81.57-3.59 1.31-5.28 2.23l-.48.26-5.04-3.63c-.68-.49-1.5-.75-2.36-.75-1.1 0-2.11.42-2.87 1.19l-5 4.99a4.058 4.058 0 0 0-.44 5.24l3.65 5.13-.24.47a30.14 30.14 0 0 0-2.16 5.31l-.16.52-6.08 1.03a4.06 4.06 0 0 0-3.4 4.01v7.04c0 2 1.43 3.69 3.4 4.02l6.21 1.06.16.51c.57 1.81 1.32 3.59 2.23 5.28l.26.48-3.61 5.02a4.042 4.042 0 0 0 .44 5.23l4.98 4.98c1.38 1.38 3.66 1.56 5.22.44l5.14-3.66.48.25c1.59.83 3.32 1.54 5.14 2.11l.51.16 1.02 6.15c.33 1.97 2.02 3.4 4.02 3.4h7.05c2 0 3.69-1.43 4.02-3.4l1.04-6.15.51-.16a31.6 31.6 0 0 0 5.3-2.19l.48-.25 5.07 3.62c1.55 1.12 3.85.95 5.24-.44l4.98-4.98c1.41-1.41 1.6-3.62.44-5.24l-3.62-5.08.25-.48c.92-1.76 1.66-3.54 2.19-5.29l.16-.52 6.15-1.03a4.044 4.044 0 0 0 3.39-4.01z"/><path id="vxh3c" d="M1016.13 5141.5c-10.69 0-19.38-8.7-19.38-19.38 0-10.69 8.69-19.38 19.38-19.38s19.38 8.69 19.38 19.38c0 10.68-8.69 19.38-19.38 19.38zm0-41.38c-12.13 0-22 9.87-22 22s9.87 22 22 22 22-9.87 22-22-9.87-22-22-22z"/><path id="vxh3d" d="M1019.415 5121.19h-6.798c-.59 0-1.13-.224-1.544-.638a2.184 2.184 0 0 1 1.544-3.725h6.32v-2.42h-1.703V5111h-2.436v3.391h-2.181a4.62 4.62 0 0 0-4.617 4.617 4.62 4.62 0 0 0 4.617 4.617h6.798c.589 0 1.13.223 1.544.637a2.184 2.184 0 0 1-1.544 3.725h-6.798a2.169 2.169 0 0 1-2.117-1.703h-2.468a4.623 4.623 0 0 0 4.585 4.139h2.181v3.391h2.436v-3.391h2.181a4.62 4.62 0 0 0 4.617-4.617 4.62 4.62 0 0 0-4.617-4.617z"/></defs><g><g transform="translate(-967 -5083)"><use fill="#ffd729" xlink:href="#vxh3a"/></g><g transform="translate(-967 -5083)"><g><g><use xlink:href="#vxh3b"/></g><g><use xlink:href="#vxh3c"/></g></g><g><use xlink:href="#vxh3d"/></g></g></g></svg>