<svg xmlns="http://www.w3.org/2000/svg" xmlns:xlink="http://www.w3.org/1999/xlink" width="81" height="79" viewBox="0 0 81 79"><defs><path id="8huea" d="M361.511 1005.607c-15.032 10.922-37.703 7.573-48.523-7.32-10.821-14.894-8.743-39.887 6.29-50.81 15.033-10.921 41.732-19.197 52.553-4.304 10.821 14.894 4.713 51.512-10.32 62.434z"/><path id="8hueb" d="M319.029 988.586c.016-.08.032-.143.048-.207a6.967 6.967 0 0 1 6.734-5.174h8.247c3.2 0 5.97 2.15 6.766 5.238.143.557.637.94 1.21.94h12.625c.637 0 1.273.222 1.767.62.446.335.78.828.955 1.37.016.015.016.047.032.08l.016.03a2.846 2.846 0 0 1-.764 2.834 2.784 2.784 0 0 1-1.974.829h-21.875v2.451h21.827a5.409 5.409 0 0 0 5.365-5.365c0-.064-.016-.143-.016-.223 0-.063-.016-.111-.016-.175l-.032-.382.08-.08 12.131-12.115c2.102-2.086 5.302-2.643 7.96-1.37l1.051.494-29.086 29.087h-33.242v-17.29a6.05 6.05 0 0 1 .19-1.592zm-2.675 23.005h-9.87v-30.455h9.87zm1.242-32.939h-12.354c-.685 0-1.242.557-1.242 1.242v32.94c0 .684.557 1.241 1.242 1.241h12.354c.685 0 1.242-.557 1.242-1.242v-2.881h33.751c.334 0 .637-.128.876-.367l30.328-30.328a1.25 1.25 0 0 0 0-1.751c-3.693-3.694-9.711-3.694-13.405 0l-11.43 11.43-.574-.557a5.426 5.426 0 0 0-3.71-1.497H342.99l-.207-.493a9.444 9.444 0 0 0-8.677-5.683h-8.246a9.49 9.49 0 0 0-5.684 1.894l-1.305.987v-3.693c-.032-.685-.59-1.242-1.274-1.242z"/><path id="8huec" d="M344.583 967.225a13.768 13.768 0 0 1-3.12-4.764 1.18 1.18 0 0 0-1.08-.745l-.016-.016-5.616.016-2.283-2.283a1.194 1.194 0 0 0-1.675 0l-1.796 1.796-.821-.822a1.194 1.194 0 0 0-1.675 0l-.822.822-2.039-2.04a1.194 1.194 0 0 0-1.674 0l-2.542 2.542h-2.344l-3.775-3.775 1.188-1.187 20.44.015c.579 0 1.066-.487 1.066-1.065s-.487-1.066-1.066-1.066l-18.31-.015 1.507-1.507h22.252c.472-.015.898-.289 1.08-.745.701-1.796 1.751-3.394 3.121-4.764 5.403-5.403 14.2-5.403 19.604 0 5.403 5.403 5.403 14.2 0 19.603-5.404 5.404-14.2 5.404-19.604 0zm21.278-21.277c-6.332-6.332-16.62-6.332-22.952 0a15.815 15.815 0 0 0-3.318 4.81h-21.948c-.32.014-.624.136-.837.35l-5.997 5.996a1.194 1.194 0 0 0 0 1.674l4.947 4.947c.228.228.533.35.837.35l3.333.015c.305 0 .609-.122.837-.35l2.055-2.055 2.04 2.04a1.194 1.194 0 0 0 1.674 0l.822-.822.822.822a1.194 1.194 0 0 0 1.674 0l1.78-1.781 1.797 1.796c.228.228.532.35.837.35h5.327a16.311 16.311 0 0 0 3.333 4.825c6.332 6.331 16.62 6.331 22.952 0 6.317-6.347 6.317-16.636-.015-22.967z"/><path id="8hued" d="M359.91 958.87a2.067 2.067 0 1 1 2.924-2.923 2.067 2.067 0 0 1-2.924 2.922zm4.581-4.582a4.442 4.442 0 0 0-6.27 0 4.428 4.428 0 0 0 0 6.271 4.442 4.442 0 0 0 6.27 0 4.428 4.428 0 0 0 0-6.27z"/></defs><g><g transform="translate(-304 -935)"><use fill="#ffd729" xlink:href="#8huea"/></g><g transform="translate(-304 -935)"><g><g><use xlink:href="#8hueb"/></g></g><g><g><g><g><use xlink:href="#8huec"/></g></g></g><g><g><g><use xlink:href="#8hued"/></g></g></g></g></g></g></svg>