<?xml version="1.0" encoding="utf-8"?>
<!-- Generator: Adobe Illustrator 22.1.0, SVG Export Plug-In . SVG Version: 6.00 Build 0)  -->
<svg version="1.1" id="Layer_1" xmlns="http://www.w3.org/2000/svg" xmlns:xlink="http://www.w3.org/1999/xlink" x="0px" y="0px"
	 viewBox="0 0 374.7 471" style="enable-background:new 0 0 374.7 471;" xml:space="preserve">
<style type="text/css">
    @font-face {
        font-family: 'Segoe UI';
        src: url('../../fonts/SegoeUI/Regular/font.woff');
        font-weight: 400;
    }
    @font-face {
        font-family: 'Segoe UI';
        src: url('../../fonts/SegoeUI/Bold/font.woff');
        font-weight: 700;
    }
	.st0{fill:#222C36;}
	.st1{fill:#FFFFFF;}
	.st2{font-family:'Segoe UI'; font-weigt: 700}
	.st3{font-size:16px;}
	.st4{fill:#848F9B;}
	.st5{fill:#181818;}
	.st6{font-size:24px;}
	.st7{font-family:'Segoe UI';}
	.st8{font-size:14px;}
	.st9{fill:#FFD729;}
</style>
<rect id="Rectangle_212" y="0" class="st0" width="374.7" height="88"/>
<rect id="Rectangle_213" y="96" class="st0" width="374.7" height="88"/>
<rect id="Rectangle_214" y="192" class="st0" width="374.7" height="88"/>
<rect id="Rectangle_215" y="287" class="st0" width="374.7" height="88"/>
<rect id="Rectangle_216" y="383" class="st0" width="374.7" height="88"/>
<text transform="matrix(1 0 0 1 25 39)" class="st1 st2 st3">Рассмотрение </text>
<text transform="matrix(1 0 0 1 25 63)" class="st1 st2 st3">заявок</text>
<text transform="matrix(1 0 0 1 25 135)" class="st1 st2 st3">Базовая </text>
<text transform="matrix(1 0 0 1 25 159)" class="st1 st2 st3">проверка</text>
<text transform="matrix(1 0 0 1 25 231)" class="st1 st2 st3">Тщательный </text>
<text transform="matrix(1 0 0 1 25 255)" class="st1 st2 st3">аудит</text>
<text transform="matrix(1 0 0 1 25 338)" class="st1 st2 st3">Одобрение</text>
<text transform="matrix(1 0 0 1 25 434)" class="st1 st2 st3">Выбор клиента</text>
<polygon class="st4" points="374.7,373.1 211,287 233.3,374.6 374.7,466 "/>
<polygon class="st4" points="374.7,167.6 163,97.2 185.1,184.1 374.7,256.5 "/>
<polygon class="st4" points="374.7,267.2 187,191.5 209.4,279.6 374.7,358.9 "/>
<polygon class="st4" points="374.7,69.2 138,0 160.6,89 374.7,158.6 "/>
<polygon class="st5" points="374.7,469 374.7,385 238.6,385 259.6,469 "/>
<polygon class="st5" points="374.7,278 374.7,194 189.6,194 210.9,278 "/>
<polygon class="st5" points="374.7,373 374.7,289 213.6,289 234.8,373 "/>
<polygon class="st5" points="374.7,86 374.7,2 140.6,2 162.2,86 "/>
<polygon class="st5" points="374.7,182 374.7,98 165.6,98 187.4,182 "/>
<text transform="matrix(1 0 0 1 286.887 48)" class="st1 st2 st6">100%</text>
<text transform="matrix(1 0 0 1 293.789 146)" class="st1 st2 st6">50%</text>
<text transform="matrix(1 0 0 1 293.789 241)" class="st1 st2 st6">25%</text>
<text transform="matrix(1 0 0 1 300.691 336)" class="st1 st2 st6">4%</text>
<text transform="matrix(1 0 0 1 300.691 433)" class="st1 st2 st6">2%</text>
<text transform="matrix(1 0 0 1 288 64)" class="st1 st7 st8">объектов</text>
<text transform="matrix(1 0 0 1 288 162)" class="st1 st7 st8">объектов</text>
<text transform="matrix(1 0 0 1 288 258)" class="st1 st7 st8">объектов</text>
<text transform="matrix(1 0 0 1 288 351)" class="st1 st7 st8">объектов</text>
<text transform="matrix(1 0 0 1 288 448)" class="st1 st7 st8">объектов</text>
<path id="Path_255" class="st9" d="M314.8,119c-11.6,0-21.8-10-21.8-21.5s10.2-23.4,21.8-23.4c11.6,0,28.2,5.6,28.2,17.1
	S326.5,119,314.8,119z"/>
<path id="Path_256" class="st9" d="M314.8,217c-11.6,0-21.8-10-21.8-21.5s10.2-23.4,21.8-23.4c11.6,0,28.2,5.6,28.2,17.1
	S326.5,217,314.8,217z"/>
<path id="Path_257" class="st9" d="M314.8,309c-11.6,0-21.8-10-21.8-21.5s10.2-23.4,21.8-23.4c11.6,0,28.2,5.6,28.2,17.1
	S326.5,309,314.8,309z"/>
<path id="Path_258" class="st9" d="M314.8,407c-11.6,0-21.8-10-21.8-21.5s10.2-23.4,21.8-23.4c11.6,0,28.2,5.6,28.2,17.1
	S326.5,407,314.8,407z"/>
<text transform="matrix(1 0 0 1 298 102)" class="st2 st8">-50%</text>
<text transform="matrix(1 0 0 1 298 200)" class="st2 st8">-50%</text>
<text transform="matrix(1 0 0 1 298 291)" class="st2 st8">-92%</text>
<text transform="matrix(1 0 0 1 298 389)" class="st2 st8">-50%</text>
</svg>
