<svg xmlns="http://www.w3.org/2000/svg" viewBox="0 0 335 626">
    <defs>
        <style>
            @font-face {
                font-family: 'Segoe UI';
                src: url('../../fonts/SegoeUI/Regular/font.woff');
                font-weight: 400;
            }
            @font-face {
                font-family: 'Segoe UI';
                src: url('../../fonts/SegoeUI/Bold/font.woff');
                font-weight: 700;
            }
            .cls-1{fill:#9b9b9b;font-size:14px;font-family:'Segoe UI'}.cls-2{fill:#ffd729}.cls-3{fill:#3c7bd8}.cls-4{fill:#fff}.cls-12,.cls-5,.cls-6,.cls-7{fill:none}.cls-5{stroke:#000}.cls-5,.cls-8,.cls-9{stroke-width:2px}.cls-6,.cls-9{stroke:#848f9b}.cls-7,.cls-8{stroke:#ffd729}.cls-8,.cls-9{fill:#f5f7f9}.cls-10{fill:#848f9b}.cls-11{stroke:none}
        </style>
    </defs>
    <g id="Group_342" data-name="Group 342" transform="translate(-20 -2262)">
        <g id="Group_295" data-name="Group 295" transform="translate(2811 -120)">
            <text id="Инвестор" class="cls-1" transform="translate(-2767 2489)">
                <tspan x="0" y="0">Инвестор</tspan>
            </text>
            <path id="Path_233" d="M40.047-8.333C58.628-8.333 75 7.7 75 26.111S58.628 63.519 40.047 63.519-5 54.521-5 36.111 21.465-8.333 40.047-8.333z" class="cls-2" data-name="Path 233" transform="rotate(144 -1741.314 784.098)"/>
            <path id="Path_230" d="M21.411 88h34.715a2.961 2.961 0 0 0 2.962-2.962V72.825a.953.953 0 0 0-1.906 0v12.213a1.061 1.061 0 0 1-1.057 1.057H48.8V60.162a.953.953 0 1 0-1.906 0v25.932H31.7l4.608-5.058a1.941 1.941 0 0 0 .468-1.594v-.035l-3.915-23.073 1.317-1.992.294.208c.069.052.121.087.191.139a2.3 2.3 0 0 0 1.472.606 1.944 1.944 0 0 0 1.732-1.074l4.244-8.488 9.631 3.724a9.4 9.4 0 0 1 5.458 8.505v8.783a.988.988 0 0 0 .277.676.889.889 0 0 0 .676.277.961.961 0 0 0 .953-.953v-8.783a11.283 11.283 0 0 0-6.635-10.272l.1-.329-.121.329-15.746-6.1v-4.051l.139-.1a11.714 11.714 0 0 0 4.469-7.778l.035-.277.277-.017a5.321 5.321 0 0 0 3.1-1.265 5.15 5.15 0 0 0 .537-7.293l-.087-.1v-4.945a15.764 15.764 0 1 0-31.528 0v5.076l-.087.1a4.878 4.878 0 0 0-1.242 3.26 5.165 5.165 0 0 0 1.8 3.915 5.321 5.321 0 0 0 3.1 1.265l.277.017.035.277a11.808 11.808 0 0 0 4.729 7.969l.139.1v3.863L6.652 47.724A11.133 11.133 0 0 0 0 57.962V85.02a2.961 2.961 0 0 0 2.962 2.962h12.386a.953.953 0 1 0 0-1.906h-3.135V60.162a.953.953 0 0 0-1.906 0v25.932H2.962a1.061 1.061 0 0 1-1.057-1.057V57.962a9.434 9.434 0 0 1 5.457-8.506l9.631-3.724 4.244 8.488a1.925 1.925 0 0 0 1.732 1.074 2.3 2.3 0 0 0 1.472-.606 1.214 1.214 0 0 0 .173-.139l.294-.208 1.317 1.992-.017.139-3.88 22.97a2 2 0 0 0 .468 1.594l4.604 5.058h-5.972a.961.961 0 0 0-.953.953.946.946 0 0 0 .936.953zm18.9-42.961l-4.175 8.35-5.236-3.707 5.11-6.306zm-7.691 8.194l-1.282 1.923h-3.6l-1.282-1.923 3.083-2.183zM24.3 41.887V38.82l.468.191a12.962 12.962 0 0 0 4.781.9 11.987 11.987 0 0 0 4.729-.987l.485-.208v3.17l-5.231 6.461zm20.289-17.722a3.3 3.3 0 0 1-1.126 2.477 3.267 3.267 0 0 1-1.663.758l-.4.069v-6.612l.4.069a3.3 3.3 0 0 1 2.789 3.239zm-27.162 3.309l-.4-.069a3.291 3.291 0 0 1-2.806-3.239A3.421 3.421 0 0 1 16.994 21l.433-.1zm.052-8.7l-.052.226-.243.035a5.75 5.75 0 0 0-1.178.26l-.45.156v-3.69a13.858 13.858 0 1 1 27.717 0v3.589l-.45-.139a5.706 5.706 0 0 0-1.11-.211l-.312-.035v-.312c0-.918 0-.918-2.373-3.447-.45-.485-.987-1.057-1.628-1.732a1.979 1.979 0 0 0-2.512-.312 25.473 25.473 0 0 1-15.365 4.14 1.933 1.933 0 0 0-2.044 1.476zm4.677 16.214a9.918 9.918 0 0 1-2.824-6.888v-8.9l.364.017A27.462 27.462 0 0 0 35.72 14.88l.243-.156.191.208a83.278 83.278 0 0 1 1.611 1.732c.866.935 1.4 1.49 1.628 1.767l.069.1V28.1a9.936 9.936 0 0 1-9.926 9.926 10.2 10.2 0 0 1-7.38-3.034zm.78 18.4l-4.157-8.35 4.279-1.663 5.11 6.306zm1.247 26.348l3.846-22.676h3.031l.052.294 3.794 22.381-5.353 5.89z" data-name="Path 230" transform="translate(-2767 2382)"/>
        </g>
        <g id="Group_296" data-name="Group 296" transform="translate(2921 -120)">
            <text id="Инвестор-2" class="cls-1" data-name="Инвестор" transform="translate(-2767 2489)">
                <tspan x="0" y="0">Инвестор</tspan>
            </text>
            <path id="Path_233-2" d="M40.047-8.333C58.628-8.333 75 7.7 75 26.111S58.628 63.519 40.047 63.519-5 54.521-5 36.111 21.465-8.333 40.047-8.333z" class="cls-2" data-name="Path 233" transform="rotate(144 -1741.314 784.098)"/>
            <path id="Path_230-2" d="M21.411 88h34.715a2.961 2.961 0 0 0 2.962-2.962V72.825a.953.953 0 0 0-1.906 0v12.213a1.061 1.061 0 0 1-1.057 1.057H48.8V60.162a.953.953 0 1 0-1.906 0v25.932H31.7l4.608-5.058a1.941 1.941 0 0 0 .468-1.594v-.035l-3.915-23.073 1.317-1.992.294.208c.069.052.121.087.191.139a2.3 2.3 0 0 0 1.472.606 1.944 1.944 0 0 0 1.732-1.074l4.244-8.488 9.631 3.724a9.4 9.4 0 0 1 5.458 8.505v8.783a.988.988 0 0 0 .277.676.889.889 0 0 0 .676.277.961.961 0 0 0 .953-.953v-8.783a11.283 11.283 0 0 0-6.635-10.272l.1-.329-.121.329-15.746-6.1v-4.051l.139-.1a11.714 11.714 0 0 0 4.469-7.778l.035-.277.277-.017a5.321 5.321 0 0 0 3.1-1.265 5.15 5.15 0 0 0 .537-7.293l-.087-.1v-4.945a15.764 15.764 0 1 0-31.528 0v5.076l-.087.1a4.878 4.878 0 0 0-1.242 3.26 5.165 5.165 0 0 0 1.8 3.915 5.321 5.321 0 0 0 3.1 1.265l.277.017.035.277a11.808 11.808 0 0 0 4.729 7.969l.139.1v3.863L6.652 47.724A11.133 11.133 0 0 0 0 57.962V85.02a2.961 2.961 0 0 0 2.962 2.962h12.386a.953.953 0 1 0 0-1.906h-3.135V60.162a.953.953 0 0 0-1.906 0v25.932H2.962a1.061 1.061 0 0 1-1.057-1.057V57.962a9.434 9.434 0 0 1 5.457-8.506l9.631-3.724 4.244 8.488a1.925 1.925 0 0 0 1.732 1.074 2.3 2.3 0 0 0 1.472-.606 1.214 1.214 0 0 0 .173-.139l.294-.208 1.317 1.992-.017.139-3.88 22.97a2 2 0 0 0 .468 1.594l4.604 5.058h-5.972a.961.961 0 0 0-.953.953.946.946 0 0 0 .936.953zm18.9-42.961l-4.175 8.35-5.236-3.707 5.11-6.306zm-7.691 8.194l-1.282 1.923h-3.6l-1.282-1.923 3.083-2.183zM24.3 41.887V38.82l.468.191a12.962 12.962 0 0 0 4.781.9 11.987 11.987 0 0 0 4.729-.987l.485-.208v3.17l-5.231 6.461zm20.289-17.722a3.3 3.3 0 0 1-1.126 2.477 3.267 3.267 0 0 1-1.663.758l-.4.069v-6.612l.4.069a3.3 3.3 0 0 1 2.789 3.239zm-27.162 3.309l-.4-.069a3.291 3.291 0 0 1-2.806-3.239A3.421 3.421 0 0 1 16.994 21l.433-.1zm.052-8.7l-.052.226-.243.035a5.75 5.75 0 0 0-1.178.26l-.45.156v-3.69a13.858 13.858 0 1 1 27.717 0v3.589l-.45-.139a5.706 5.706 0 0 0-1.11-.211l-.312-.035v-.312c0-.918 0-.918-2.373-3.447-.45-.485-.987-1.057-1.628-1.732a1.979 1.979 0 0 0-2.512-.312 25.473 25.473 0 0 1-15.365 4.14 1.933 1.933 0 0 0-2.044 1.476zm4.677 16.214a9.918 9.918 0 0 1-2.824-6.888v-8.9l.364.017A27.462 27.462 0 0 0 35.72 14.88l.243-.156.191.208a83.278 83.278 0 0 1 1.611 1.732c.866.935 1.4 1.49 1.628 1.767l.069.1V28.1a9.936 9.936 0 0 1-9.926 9.926 10.2 10.2 0 0 1-7.38-3.034zm.78 18.4l-4.157-8.35 4.279-1.663 5.11 6.306zm1.247 26.348l3.846-22.676h3.031l.052.294 3.794 22.381-5.353 5.89z" data-name="Path 230" transform="translate(-2767 2382)"/>
        </g>
        <g id="Group_297" data-name="Group 297" transform="translate(3031 -120)">
            <text id="Инвестор-3" class="cls-1" data-name="Инвестор" transform="translate(-2767 2489)">
                <tspan x="0" y="0">Инвестор</tspan>
            </text>
            <path id="Path_233-3" d="M40.047-8.333C58.628-8.333 75 7.7 75 26.111S58.628 63.519 40.047 63.519-5 54.521-5 36.111 21.465-8.333 40.047-8.333z" class="cls-2" data-name="Path 233" transform="rotate(144 -1741.314 784.098)"/>
            <path id="Path_230-3" d="M21.411 88h34.715a2.961 2.961 0 0 0 2.962-2.962V72.825a.953.953 0 0 0-1.906 0v12.213a1.061 1.061 0 0 1-1.057 1.057H48.8V60.162a.953.953 0 1 0-1.906 0v25.932H31.7l4.608-5.058a1.941 1.941 0 0 0 .468-1.594v-.035l-3.915-23.073 1.317-1.992.294.208c.069.052.121.087.191.139a2.3 2.3 0 0 0 1.472.606 1.944 1.944 0 0 0 1.732-1.074l4.244-8.488 9.631 3.724a9.4 9.4 0 0 1 5.458 8.505v8.783a.988.988 0 0 0 .277.676.889.889 0 0 0 .676.277.961.961 0 0 0 .953-.953v-8.783a11.283 11.283 0 0 0-6.635-10.272l.1-.329-.121.329-15.746-6.1v-4.051l.139-.1a11.714 11.714 0 0 0 4.469-7.778l.035-.277.277-.017a5.321 5.321 0 0 0 3.1-1.265 5.15 5.15 0 0 0 .537-7.293l-.087-.1v-4.945a15.764 15.764 0 1 0-31.528 0v5.076l-.087.1a4.878 4.878 0 0 0-1.242 3.26 5.165 5.165 0 0 0 1.8 3.915 5.321 5.321 0 0 0 3.1 1.265l.277.017.035.277a11.808 11.808 0 0 0 4.729 7.969l.139.1v3.863L6.652 47.724A11.133 11.133 0 0 0 0 57.962V85.02a2.961 2.961 0 0 0 2.962 2.962h12.386a.953.953 0 1 0 0-1.906h-3.135V60.162a.953.953 0 0 0-1.906 0v25.932H2.962a1.061 1.061 0 0 1-1.057-1.057V57.962a9.434 9.434 0 0 1 5.457-8.506l9.631-3.724 4.244 8.488a1.925 1.925 0 0 0 1.732 1.074 2.3 2.3 0 0 0 1.472-.606 1.214 1.214 0 0 0 .173-.139l.294-.208 1.317 1.992-.017.139-3.88 22.97a2 2 0 0 0 .468 1.594l4.604 5.058h-5.972a.961.961 0 0 0-.953.953.946.946 0 0 0 .936.953zm18.9-42.961l-4.175 8.35-5.236-3.707 5.11-6.306zm-7.691 8.194l-1.282 1.923h-3.6l-1.282-1.923 3.083-2.183zM24.3 41.887V38.82l.468.191a12.962 12.962 0 0 0 4.781.9 11.987 11.987 0 0 0 4.729-.987l.485-.208v3.17l-5.231 6.461zm20.289-17.722a3.3 3.3 0 0 1-1.126 2.477 3.267 3.267 0 0 1-1.663.758l-.4.069v-6.612l.4.069a3.3 3.3 0 0 1 2.789 3.239zm-27.162 3.309l-.4-.069a3.291 3.291 0 0 1-2.806-3.239A3.421 3.421 0 0 1 16.994 21l.433-.1zm.052-8.7l-.052.226-.243.035a5.75 5.75 0 0 0-1.178.26l-.45.156v-3.69a13.858 13.858 0 1 1 27.717 0v3.589l-.45-.139a5.706 5.706 0 0 0-1.11-.211l-.312-.035v-.312c0-.918 0-.918-2.373-3.447-.45-.485-.987-1.057-1.628-1.732a1.979 1.979 0 0 0-2.512-.312 25.473 25.473 0 0 1-15.365 4.14 1.933 1.933 0 0 0-2.044 1.476zm4.677 16.214a9.918 9.918 0 0 1-2.824-6.888v-8.9l.364.017A27.462 27.462 0 0 0 35.72 14.88l.243-.156.191.208a83.278 83.278 0 0 1 1.611 1.732c.866.935 1.4 1.49 1.628 1.767l.069.1V28.1a9.936 9.936 0 0 1-9.926 9.926 10.2 10.2 0 0 1-7.38-3.034zm.78 18.4l-4.157-8.35 4.279-1.663 5.11 6.306zm1.247 26.348l3.846-22.676h3.031l.052.294 3.794 22.381-5.353 5.89z" data-name="Path 230" transform="translate(-2767 2382)"/>
        </g>
        <g id="Group_300" data-name="Group 300" transform="translate(2621 -28)">
            <path id="Path_228" d="M55.4-8.333c25.1 0 42.929 30.957 42.929 56.061S70.786 92.045 45.682 92.045-1.667 55.659-1.667 30.556 30.3-8.333 55.4-8.333z" class="cls-3" data-name="Path 228" transform="rotate(149 -1541.065 954.707)"/>
            <g id="Group_241" data-name="Group 241" transform="translate(-2477 2536)">
                <g id="Group_3" data-name="Group 3" transform="translate(7.388 15.597)">
                    <path id="Path_11" d="M9.918 9.6L4.5 23.555h2.791l.821-2.3H13.2l.821 2.3h2.791L11.724 9.6zM9.1 18.794l1.642-4.761 1.642 4.761H9.1z" class="cls-4" data-name="Path 11" transform="translate(-4.5 -9.436)"/>
                    <path id="Path_12" d="M24.907 9.6h-3.283l-4.6 6.9V9.6H14.4v13.955h2.627V20.6L19 17.809l3.284 5.746H25.4l-4.761-8.209z" class="cls-4" data-name="Path 12" transform="translate(1.854 -9.436)"/>
                    <path id="Path_13" d="M22.1 12.227h3.776v11.328H28.5V12.227h3.776V9.6H22.1z" class="cls-4" data-name="Path 13" transform="translate(6.796 -9.436)"/>
                    <path id="Rectangle_3" d="M0 0h2.791v13.955H0z" class="cls-4" data-name="Rectangle 3" transform="translate(42.03 .164)"/>
                    <path id="Path_14" d="M39.482 18.958L36.527 9.6H33.9l4.6 13.955h2.134L45.228 9.6h-2.791z" class="cls-4" data-name="Path 14" transform="translate(14.369 -9.436)"/>
                    <path id="Path_15" d="M52.222 11.963a4.769 4.769 0 0 0-1.806-1.806A4.818 4.818 0 0 0 47.79 9.5a4.476 4.476 0 0 0-2.627.657 6.3 6.3 0 0 0-1.806 1.806 4.818 4.818 0 0 0-.657 2.627v3.94a4.476 4.476 0 0 0 .657 2.627 6.3 6.3 0 0 0 1.806 1.806 4.818 4.818 0 0 0 2.627.657 4.476 4.476 0 0 0 2.627-.657 6.3 6.3 0 0 0 1.806-1.806 4.818 4.818 0 0 0 .657-2.627v-3.94a5.2 5.2 0 0 0-.658-2.627zm-1.97 6.731a3.093 3.093 0 0 1-.328 1.313 1.978 1.978 0 0 1-.821.821 3.093 3.093 0 0 1-1.313.328 3.864 3.864 0 0 1-1.313-.328 1.349 1.349 0 0 1-.821-.821 3.093 3.093 0 0 1-.328-1.313v-4.1a3.093 3.093 0 0 1 .328-1.313 1.978 1.978 0 0 1 .821-.821 3.093 3.093 0 0 1 1.313-.328 3.864 3.864 0 0 1 1.313.328 1.349 1.349 0 0 1 .821.821 3.093 3.093 0 0 1 .328 1.313z" class="cls-4" data-name="Path 15" transform="translate(20.016 -9.5)"/>
                </g>
                <path id="Path_16" d="M87.836 36.94H0V11.493L44 0h.328L88 11.493V36.94zM2.463 34.478h82.91V13.463L44 2.627 2.463 13.463z" class="cls-4" data-name="Path 16"/>
            </g>
        </g>
        <text id="Профессиональное_управление_недвижимостью_" class="cls-1" data-name="Профессиональное управление недвижимостью" transform="translate(87 2593)">
            <tspan x="37.575" y="15">Профессиональное </tspan><tspan x="7.812" y="33">управление недвижимостью</tspan>
        </text>
        <g id="Group_242" data-name="Group 242" transform="translate(-785 803)">
            <path id="Path_23" d="M48.556-8.333c22.091 0 37.777 27.242 37.777 49.333S62.091 80 40 80-1.667 47.98-1.667 25.889 26.464-8.333 48.556-8.333z" class="cls-2" data-name="Path 23" transform="translate(929 1933.333)"/>
            <g id="Group_7" data-name="Group 7" transform="translate(465 845.333)">
                <g id="Rectangle_10" class="cls-5" data-name="Rectangle 10">
                    <path d="M0 0h33v88H0z" class="cls-11" transform="translate(519 1080)"/>
                    <path d="M1 1h31v86H1z" class="cls-12" transform="translate(519 1080)"/>
                </g>
                <g id="Rectangle_9" class="cls-5" data-name="Rectangle 9">
                    <path d="M0 0h33v72H0z" class="cls-11" transform="translate(488 1096)"/>
                    <path d="M1 1h31v70H1z" class="cls-12" transform="translate(488 1096)"/>
                </g>
                <g id="Rectangle_11" class="cls-5" data-name="Rectangle 11">
                    <path d="M0 0h8v16H0z" class="cls-11" transform="translate(496 1104)"/>
                    <path d="M1 1h6v14H1z" class="cls-12" transform="translate(496 1104)"/>
                </g>
                <g id="Rectangle_12" class="cls-5" data-name="Rectangle 12">
                    <path d="M0 0h8v16H0z" class="cls-11" transform="translate(496 1128)"/>
                    <path d="M1 1h6v14H1z" class="cls-12" transform="translate(496 1128)"/>
                </g>
                <g id="Rectangle_13" class="cls-5" data-name="Rectangle 13">
                    <path d="M0 0h8v16H0z" class="cls-11" transform="rotate(90 -280 824)"/>
                    <path d="M1 1h6v14H1z" class="cls-12" transform="rotate(90 -280 824)"/>
                </g>
                <g id="Rectangle_14" class="cls-5" data-name="Rectangle 14">
                    <path d="M0 0h8v16H0z" class="cls-11" transform="rotate(90 -272 816)"/>
                    <path d="M1 1h6v14H1z" class="cls-12" transform="rotate(90 -272 816)"/>
                </g>
                <g id="Rectangle_15" class="cls-5" data-name="Rectangle 15">
                    <path d="M0 0h8v16H0z" class="cls-11" transform="rotate(90 -296 840)"/>
                    <path d="M1 1h6v14H1z" class="cls-12" transform="rotate(90 -296 840)"/>
                </g>
                <g id="Rectangle_16" class="cls-5" data-name="Rectangle 16">
                    <path d="M0 0h8v16H0z" class="cls-11" transform="rotate(90 -288 832)"/>
                    <path d="M1 1h6v14H1z" class="cls-12" transform="rotate(90 -288 832)"/>
                </g>
                <g id="Rectangle_17" class="cls-5" data-name="Rectangle 17">
                    <path d="M0 0h16v16H0z" class="cls-11" transform="translate(496 1152)"/>
                    <path d="M1 1h14v14H1z" class="cls-12" transform="translate(496 1152)"/>
                </g>
                <g id="Rectangle_18" class="cls-5" data-name="Rectangle 18">
                    <path d="M0 0h16v16H0z" class="cls-11" transform="translate(528 1152)"/>
                    <path d="M1 1h14v14H1z" class="cls-12" transform="translate(528 1152)"/>
                </g>
            </g>
        </g>
        <text id="Качественный_объект_недвижимости_" class="cls-1" data-name="Качественный объект недвижимости" transform="translate(113 2834)">
            <tspan x="5.208" y="15">Качественный объект </tspan><tspan x="27.217" y="33">недвижимости</tspan>
        </text>
        <path id="Path_236" d="M6438 1839h31.5v264H6438" class="cls-6" data-name="Path 236" transform="rotate(90 3104.5 -946)"/>
        <g id="Group_305" data-name="Group 305" transform="rotate(90 -1102.365 3851.997)">
            <path id="Path_237" d="M6498 1967h76.362" class="cls-6" data-name="Path 237" transform="translate(-9064.362 594.5)"/>
            <path id="Path_245" d="M6434 1703l-4 4 4 4" class="cls-6" data-name="Path 245" transform="rotate(180 1969.891 2134.316)"/>
        </g>
        <g id="Group_306" data-name="Group 306" transform="rotate(90 -1226.184 3975.816)">
            <path id="Path_237-2" d="M6498 1967h72" class="cls-6" data-name="Path 237" transform="translate(-9060 594.5)"/>
            <path id="Path_245-2" d="M6434 1703l-4 4 4 4" class="cls-6" data-name="Path 245" transform="rotate(180 1969.891 2134.316)"/>
        </g>
        <path id="Path_241" d="M0 0h460.185v61.9" class="cls-7" data-name="Path 241" transform="rotate(90 -1024.25 1360.25)"/>
        <path id="Path_243" d="M6434.5 1703l-4.5 4.5 4.5 4.5" class="cls-7" data-name="Path 243" transform="rotate(90 3044.427 -1001.073)"/>
        <path id="Path_241-2" d="M396.185 0v64.612H0v-295.5" class="cls-7" data-name="Path 241" transform="rotate(90 -1171.444 1276.556)"/>
        <g id="Group_302" data-name="Group 302" transform="translate(2614 3)">
            <g id="Group_248" data-name="Group 248" transform="translate(-10800 564)">
                <g id="Ellipse_2" class="cls-8" data-name="Ellipse 2" transform="translate(8206 1958)">
                    <circle cx="20" cy="20" r="20" class="cls-11"/>
                    <circle cx="20" cy="20" r="19" class="cls-12"/>
                </g>
                <path id="Path_39" d="M7.523-.094v2.543H6.082V0a7.943 7.943 0 0 1-4.23-1.008v-2.613a5.831 5.831 0 0 0 1.939 1.043 7.056 7.056 0 0 0 2.291.422v-5.215A9.84 9.84 0 0 1 2.5-9.727a4.118 4.118 0 0 1-.814-2.555A4.171 4.171 0 0 1 2.93-15.3a5.248 5.248 0 0 1 3.152-1.529v-2.109h1.441v2.063a7.334 7.334 0 0 1 3.4.656v2.508a5.963 5.963 0 0 0-3.4-1.008v5.4A10.473 10.473 0 0 1 11.051-7 3.838 3.838 0 0 1 12-4.453a3.874 3.874 0 0 1-1.184 2.883A5.787 5.787 0 0 1 7.523-.094zm-1.441-9.89v-4.676a2.459 2.459 0 0 0-1.395.75 2.013 2.013 0 0 0-.516 1.395 2.266 2.266 0 0 0 .423 1.415 4.543 4.543 0 0 0 1.488 1.116zm1.441 3.246v4.512Q9.516-2.648 9.516-4.3q0-1.384-1.993-2.438z" class="cls-2" data-name="Path 39" transform="translate(8219 1987)"/>
            </g>
            <g id="Group_244" data-name="Group 244" transform="translate(-10800 584)">
                <g id="Ellipse_2-2" class="cls-8" data-name="Ellipse 2" transform="translate(8206 1958)">
                    <circle cx="20" cy="20" r="20" class="cls-11"/>
                    <circle cx="20" cy="20" r="19" class="cls-12"/>
                </g>
                <path id="Path_39-2" d="M7.523-.094v2.543H6.082V0a7.943 7.943 0 0 1-4.23-1.008v-2.613a5.831 5.831 0 0 0 1.939 1.043 7.056 7.056 0 0 0 2.291.422v-5.215A9.84 9.84 0 0 1 2.5-9.727a4.118 4.118 0 0 1-.814-2.555A4.171 4.171 0 0 1 2.93-15.3a5.248 5.248 0 0 1 3.152-1.529v-2.109h1.441v2.063a7.334 7.334 0 0 1 3.4.656v2.508a5.963 5.963 0 0 0-3.4-1.008v5.4A10.473 10.473 0 0 1 11.051-7 3.838 3.838 0 0 1 12-4.453a3.874 3.874 0 0 1-1.184 2.883A5.787 5.787 0 0 1 7.523-.094zm-1.441-9.89v-4.676a2.459 2.459 0 0 0-1.395.75 2.013 2.013 0 0 0-.516 1.395 2.266 2.266 0 0 0 .423 1.415 4.543 4.543 0 0 0 1.488 1.116zm1.441 3.246v4.512Q9.516-2.648 9.516-4.3q0-1.384-1.993-2.438z" class="cls-2" data-name="Path 39" transform="translate(8219 1987)"/>
            </g>
            <g id="Group_249" data-name="Group 249" transform="translate(-10800 604)">
                <g id="Ellipse_2-3" class="cls-8" data-name="Ellipse 2" transform="translate(8206 1958)">
                    <circle cx="20" cy="20" r="20" class="cls-11"/>
                    <circle cx="20" cy="20" r="19" class="cls-12"/>
                </g>
                <path id="Path_39-3" d="M7.523-.094v2.543H6.082V0a7.943 7.943 0 0 1-4.23-1.008v-2.613a5.831 5.831 0 0 0 1.939 1.043 7.056 7.056 0 0 0 2.291.422v-5.215A9.84 9.84 0 0 1 2.5-9.727a4.118 4.118 0 0 1-.814-2.555A4.171 4.171 0 0 1 2.93-15.3a5.248 5.248 0 0 1 3.152-1.529v-2.109h1.441v2.063a7.334 7.334 0 0 1 3.4.656v2.508a5.963 5.963 0 0 0-3.4-1.008v5.4A10.473 10.473 0 0 1 11.051-7 3.838 3.838 0 0 1 12-4.453a3.874 3.874 0 0 1-1.184 2.883A5.787 5.787 0 0 1 7.523-.094zm-1.441-9.89v-4.676a2.459 2.459 0 0 0-1.395.75 2.013 2.013 0 0 0-.516 1.395 2.266 2.266 0 0 0 .423 1.415 4.543 4.543 0 0 0 1.488 1.116zm1.441 3.246v4.512Q9.516-2.648 9.516-4.3q0-1.384-1.993-2.438z" class="cls-2" data-name="Path 39" transform="translate(8219 1987)"/>
            </g>
        </g>
        <g id="Group_303" data-name="Group 303" transform="translate(2909 148)">
            <g id="Group_248-2" data-name="Group 248" transform="translate(-10800 564)">
                <g id="Ellipse_2-4" class="cls-8" data-name="Ellipse 2" transform="translate(8206 1958)">
                    <circle cx="20" cy="20" r="20" class="cls-11"/>
                    <circle cx="20" cy="20" r="19" class="cls-12"/>
                </g>
                <path id="Path_39-4" d="M7.523-.094v2.543H6.082V0a7.943 7.943 0 0 1-4.23-1.008v-2.613a5.831 5.831 0 0 0 1.939 1.043 7.056 7.056 0 0 0 2.291.422v-5.215A9.84 9.84 0 0 1 2.5-9.727a4.118 4.118 0 0 1-.814-2.555A4.171 4.171 0 0 1 2.93-15.3a5.248 5.248 0 0 1 3.152-1.529v-2.109h1.441v2.063a7.334 7.334 0 0 1 3.4.656v2.508a5.963 5.963 0 0 0-3.4-1.008v5.4A10.473 10.473 0 0 1 11.051-7 3.838 3.838 0 0 1 12-4.453a3.874 3.874 0 0 1-1.184 2.883A5.787 5.787 0 0 1 7.523-.094zm-1.441-9.89v-4.676a2.459 2.459 0 0 0-1.395.75 2.013 2.013 0 0 0-.516 1.395 2.266 2.266 0 0 0 .423 1.415 4.543 4.543 0 0 0 1.488 1.116zm1.441 3.246v4.512Q9.516-2.648 9.516-4.3q0-1.384-1.993-2.438z" class="cls-2" data-name="Path 39" transform="translate(8219 1987)"/>
            </g>
            <g id="Group_244-2" data-name="Group 244" transform="translate(-10800 584)">
                <g id="Ellipse_2-5" class="cls-8" data-name="Ellipse 2" transform="translate(8206 1958)">
                    <circle cx="20" cy="20" r="20" class="cls-11"/>
                    <circle cx="20" cy="20" r="19" class="cls-12"/>
                </g>
                <path id="Path_39-5" d="M7.523-.094v2.543H6.082V0a7.943 7.943 0 0 1-4.23-1.008v-2.613a5.831 5.831 0 0 0 1.939 1.043 7.056 7.056 0 0 0 2.291.422v-5.215A9.84 9.84 0 0 1 2.5-9.727a4.118 4.118 0 0 1-.814-2.555A4.171 4.171 0 0 1 2.93-15.3a5.248 5.248 0 0 1 3.152-1.529v-2.109h1.441v2.063a7.334 7.334 0 0 1 3.4.656v2.508a5.963 5.963 0 0 0-3.4-1.008v5.4A10.473 10.473 0 0 1 11.051-7 3.838 3.838 0 0 1 12-4.453a3.874 3.874 0 0 1-1.184 2.883A5.787 5.787 0 0 1 7.523-.094zm-1.441-9.89v-4.676a2.459 2.459 0 0 0-1.395.75 2.013 2.013 0 0 0-.516 1.395 2.266 2.266 0 0 0 .423 1.415 4.543 4.543 0 0 0 1.488 1.116zm1.441 3.246v4.512Q9.516-2.648 9.516-4.3q0-1.384-1.993-2.438z" class="cls-2" data-name="Path 39" transform="translate(8219 1987)"/>
            </g>
            <g id="Group_249-2" data-name="Group 249" transform="translate(-10800 604)">
                <g id="Ellipse_2-6" class="cls-8" data-name="Ellipse 2" transform="translate(8206 1958)">
                    <circle cx="20" cy="20" r="20" class="cls-11"/>
                    <circle cx="20" cy="20" r="19" class="cls-12"/>
                </g>
                <path id="Path_39-6" d="M7.523-.094v2.543H6.082V0a7.943 7.943 0 0 1-4.23-1.008v-2.613a5.831 5.831 0 0 0 1.939 1.043 7.056 7.056 0 0 0 2.291.422v-5.215A9.84 9.84 0 0 1 2.5-9.727a4.118 4.118 0 0 1-.814-2.555A4.171 4.171 0 0 1 2.93-15.3a5.248 5.248 0 0 1 3.152-1.529v-2.109h1.441v2.063a7.334 7.334 0 0 1 3.4.656v2.508a5.963 5.963 0 0 0-3.4-1.008v5.4A10.473 10.473 0 0 1 11.051-7 3.838 3.838 0 0 1 12-4.453a3.874 3.874 0 0 1-1.184 2.883A5.787 5.787 0 0 1 7.523-.094zm-1.441-9.89v-4.676a2.459 2.459 0 0 0-1.395.75 2.013 2.013 0 0 0-.516 1.395 2.266 2.266 0 0 0 .423 1.415 4.543 4.543 0 0 0 1.488 1.116zm1.441 3.246v4.512Q9.516-2.648 9.516-4.3q0-1.384-1.993-2.438z" class="cls-2" data-name="Path 39" transform="translate(8219 1987)"/>
            </g>
        </g>
        <g id="Group_307" data-name="Group 307">
            <path id="Path_243-2" d="M6434.5 1703l-4.5 4.5 4.5 4.5" class="cls-7" data-name="Path 243" transform="rotate(90 2896.75 -1148.75)"/>
            <path id="Path_259" d="M-3430 2439v-64" class="cls-7" data-name="Path 259" transform="translate(3470.5 9)"/>
        </g>
        <g id="Group_308" data-name="Group 308" transform="translate(136)">
            <path id="Path_243-3" d="M6434.5 1703l-4.5 4.5 4.5 4.5" class="cls-7" data-name="Path 243" transform="rotate(90 2896.75 -1148.75)"/>
            <path id="Path_259-2" d="M-3430 2439v-64" class="cls-7" data-name="Path 259" transform="translate(3470.5 9)"/>
        </g>
        <g id="Group_298" data-name="Group 298" transform="translate(-586 634)">
            <g id="Group_245" data-name="Group 245" transform="translate(-7472 -193)">
                <g id="Ellipse_2-7" class="cls-9" data-name="Ellipse 2" transform="translate(8206 1958)">
                    <circle cx="20" cy="20" r="20" class="cls-11"/>
                    <circle cx="20" cy="20" r="19" class="cls-12"/>
                </g>
                <path id="Path_39-7" d="M7.523-.094v2.543H6.082V0a7.943 7.943 0 0 1-4.23-1.008v-2.613a5.831 5.831 0 0 0 1.939 1.043 7.056 7.056 0 0 0 2.291.422v-5.215A9.84 9.84 0 0 1 2.5-9.727a4.118 4.118 0 0 1-.814-2.555A4.171 4.171 0 0 1 2.93-15.3a5.248 5.248 0 0 1 3.152-1.529v-2.109h1.441v2.063a7.334 7.334 0 0 1 3.4.656v2.508a5.963 5.963 0 0 0-3.4-1.008v5.4A10.473 10.473 0 0 1 11.051-7 3.838 3.838 0 0 1 12-4.453a3.874 3.874 0 0 1-1.184 2.883A5.787 5.787 0 0 1 7.523-.094zm-1.441-9.89v-4.676a2.459 2.459 0 0 0-1.395.75 2.013 2.013 0 0 0-.516 1.395 2.266 2.266 0 0 0 .423 1.415 4.543 4.543 0 0 0 1.488 1.116zm1.441 3.246v4.512Q9.516-2.648 9.516-4.3q0-1.384-1.993-2.438z" class="cls-10" data-name="Path 39" transform="translate(8219 1987)"/>
            </g>
            <g id="Group_250" data-name="Group 250" transform="translate(-7452 -193)">
                <g id="Ellipse_2-8" class="cls-9" data-name="Ellipse 2" transform="translate(8206 1958)">
                    <circle cx="20" cy="20" r="20" class="cls-11"/>
                    <circle cx="20" cy="20" r="19" class="cls-12"/>
                </g>
                <path id="Path_39-8" d="M7.523-.094v2.543H6.082V0a7.943 7.943 0 0 1-4.23-1.008v-2.613a5.831 5.831 0 0 0 1.939 1.043 7.056 7.056 0 0 0 2.291.422v-5.215A9.84 9.84 0 0 1 2.5-9.727a4.118 4.118 0 0 1-.814-2.555A4.171 4.171 0 0 1 2.93-15.3a5.248 5.248 0 0 1 3.152-1.529v-2.109h1.441v2.063a7.334 7.334 0 0 1 3.4.656v2.508a5.963 5.963 0 0 0-3.4-1.008v5.4A10.473 10.473 0 0 1 11.051-7 3.838 3.838 0 0 1 12-4.453a3.874 3.874 0 0 1-1.184 2.883A5.787 5.787 0 0 1 7.523-.094zm-1.441-9.89v-4.676a2.459 2.459 0 0 0-1.395.75 2.013 2.013 0 0 0-.516 1.395 2.266 2.266 0 0 0 .423 1.415 4.543 4.543 0 0 0 1.488 1.116zm1.441 3.246v4.512Q9.516-2.648 9.516-4.3q0-1.384-1.993-2.438z" class="cls-10" data-name="Path 39" transform="translate(8219 1987)"/>
            </g>
            <g id="Group_251" data-name="Group 251" transform="translate(-7432 -193)">
                <g id="Ellipse_2-9" class="cls-9" data-name="Ellipse 2" transform="translate(8206 1958)">
                    <circle cx="20" cy="20" r="20" class="cls-11"/>
                    <circle cx="20" cy="20" r="19" class="cls-12"/>
                </g>
                <path id="Path_39-9" d="M7.523-.094v2.543H6.082V0a7.943 7.943 0 0 1-4.23-1.008v-2.613a5.831 5.831 0 0 0 1.939 1.043 7.056 7.056 0 0 0 2.291.422v-5.215A9.84 9.84 0 0 1 2.5-9.727a4.118 4.118 0 0 1-.814-2.555A4.171 4.171 0 0 1 2.93-15.3a5.248 5.248 0 0 1 3.152-1.529v-2.109h1.441v2.063a7.334 7.334 0 0 1 3.4.656v2.508a5.963 5.963 0 0 0-3.4-1.008v5.4A10.473 10.473 0 0 1 11.051-7 3.838 3.838 0 0 1 12-4.453a3.874 3.874 0 0 1-1.184 2.883A5.787 5.787 0 0 1 7.523-.094zm-1.441-9.89v-4.676a2.459 2.459 0 0 0-1.395.75 2.013 2.013 0 0 0-.516 1.395 2.266 2.266 0 0 0 .423 1.415 4.543 4.543 0 0 0 1.488 1.116zm1.441 3.246v4.512Q9.516-2.648 9.516-4.3q0-1.384-1.993-2.438z" class="cls-10" data-name="Path 39" transform="translate(8219 1987)"/>
            </g>
        </g>
        <g id="Group_309" data-name="Group 309" transform="translate(-586 886)">
            <g id="Group_245-2" data-name="Group 245" transform="translate(-7472 -193)">
                <g id="Ellipse_2-10" class="cls-9" data-name="Ellipse 2" transform="translate(8206 1958)">
                    <circle cx="20" cy="20" r="20" class="cls-11"/>
                    <circle cx="20" cy="20" r="19" class="cls-12"/>
                </g>
                <path id="Path_39-10" d="M7.523-.094v2.543H6.082V0a7.943 7.943 0 0 1-4.23-1.008v-2.613a5.831 5.831 0 0 0 1.939 1.043 7.056 7.056 0 0 0 2.291.422v-5.215A9.84 9.84 0 0 1 2.5-9.727a4.118 4.118 0 0 1-.814-2.555A4.171 4.171 0 0 1 2.93-15.3a5.248 5.248 0 0 1 3.152-1.529v-2.109h1.441v2.063a7.334 7.334 0 0 1 3.4.656v2.508a5.963 5.963 0 0 0-3.4-1.008v5.4A10.473 10.473 0 0 1 11.051-7 3.838 3.838 0 0 1 12-4.453a3.874 3.874 0 0 1-1.184 2.883A5.787 5.787 0 0 1 7.523-.094zm-1.441-9.89v-4.676a2.459 2.459 0 0 0-1.395.75 2.013 2.013 0 0 0-.516 1.395 2.266 2.266 0 0 0 .423 1.415 4.543 4.543 0 0 0 1.488 1.116zm1.441 3.246v4.512Q9.516-2.648 9.516-4.3q0-1.384-1.993-2.438z" class="cls-10" data-name="Path 39" transform="translate(8219 1987)"/>
            </g>
            <g id="Group_250-2" data-name="Group 250" transform="translate(-7452 -193)">
                <g id="Ellipse_2-11" class="cls-9" data-name="Ellipse 2" transform="translate(8206 1958)">
                    <circle cx="20" cy="20" r="20" class="cls-11"/>
                    <circle cx="20" cy="20" r="19" class="cls-12"/>
                </g>
                <path id="Path_39-11" d="M7.523-.094v2.543H6.082V0a7.943 7.943 0 0 1-4.23-1.008v-2.613a5.831 5.831 0 0 0 1.939 1.043 7.056 7.056 0 0 0 2.291.422v-5.215A9.84 9.84 0 0 1 2.5-9.727a4.118 4.118 0 0 1-.814-2.555A4.171 4.171 0 0 1 2.93-15.3a5.248 5.248 0 0 1 3.152-1.529v-2.109h1.441v2.063a7.334 7.334 0 0 1 3.4.656v2.508a5.963 5.963 0 0 0-3.4-1.008v5.4A10.473 10.473 0 0 1 11.051-7 3.838 3.838 0 0 1 12-4.453a3.874 3.874 0 0 1-1.184 2.883A5.787 5.787 0 0 1 7.523-.094zm-1.441-9.89v-4.676a2.459 2.459 0 0 0-1.395.75 2.013 2.013 0 0 0-.516 1.395 2.266 2.266 0 0 0 .423 1.415 4.543 4.543 0 0 0 1.488 1.116zm1.441 3.246v4.512Q9.516-2.648 9.516-4.3q0-1.384-1.993-2.438z" class="cls-10" data-name="Path 39" transform="translate(8219 1987)"/>
            </g>
            <g id="Group_251-2" data-name="Group 251" transform="translate(-7432 -193)">
                <g id="Ellipse_2-12" class="cls-9" data-name="Ellipse 2" transform="translate(8206 1958)">
                    <circle cx="20" cy="20" r="20" class="cls-11"/>
                    <circle cx="20" cy="20" r="19" class="cls-12"/>
                </g>
                <path id="Path_39-12" d="M7.523-.094v2.543H6.082V0a7.943 7.943 0 0 1-4.23-1.008v-2.613a5.831 5.831 0 0 0 1.939 1.043 7.056 7.056 0 0 0 2.291.422v-5.215A9.84 9.84 0 0 1 2.5-9.727a4.118 4.118 0 0 1-.814-2.555A4.171 4.171 0 0 1 2.93-15.3a5.248 5.248 0 0 1 3.152-1.529v-2.109h1.441v2.063a7.334 7.334 0 0 1 3.4.656v2.508a5.963 5.963 0 0 0-3.4-1.008v5.4A10.473 10.473 0 0 1 11.051-7 3.838 3.838 0 0 1 12-4.453a3.874 3.874 0 0 1-1.184 2.883A5.787 5.787 0 0 1 7.523-.094zm-1.441-9.89v-4.676a2.459 2.459 0 0 0-1.395.75 2.013 2.013 0 0 0-.516 1.395 2.266 2.266 0 0 0 .423 1.415 4.543 4.543 0 0 0 1.488 1.116zm1.441 3.246v4.512Q9.516-2.648 9.516-4.3q0-1.384-1.993-2.438z" class="cls-10" data-name="Path 39" transform="translate(8219 1987)"/>
            </g>
        </g>
    </g>
</svg>
