<svg xmlns="http://www.w3.org/2000/svg" viewBox="0 0 80 80">
    <defs>
        <style>
            .cls-1{fill:#ffd729}
        </style>
    </defs>
    <g id="Group_333" data-name="Group 333" transform="translate(-644 -313)">
        <path id="Path_29" d="M38.512-12.11c20.478 0 43.265 31.008 43.265 50.693S72.459 67.89 51.981 67.89s-50.2-20.117-50.2-39.8 16.253-40.2 36.731-40.2z" class="cls-1" data-name="Path 29" transform="rotate(90 200.333 511.557)"/>
        <g id="Group_136" data-name="Group 136" transform="translate(644 313)">
            <path id="Path_143" d="M208.966 140a19.405 19.405 0 0 0-16.85 10.094 1.223 1.223 0 0 0 0 1.228 19.111 19.111 0 0 0 33.7 0 1.223 1.223 0 0 0 0-1.228A19.405 19.405 0 0 0 208.966 140zm14.3 10.709l-.11.173a16.566 16.566 0 0 1-28.378 0l-.11-.173.11-.173a16.566 16.566 0 0 1 28.378 0z" data-name="Path 143" transform="translate(-161.722 -117.953)"/>
            <path id="Path_144" d="M276.409 180a4.409 4.409 0 1 0 4.409 4.409 4.422 4.422 0 0 0-4.409-4.409zm0 6.3a1.89 1.89 0 1 1 1.89-1.89 1.9 1.9 0 0 1-1.89 1.89z" data-name="Path 144" transform="translate(-229.165 -151.654)"/>
            <path id="Path_145" d="M1.748 78.252A5.9 5.9 0 0 0 5.984 80a5.929 5.929 0 0 0 4.236-1.748l18.5-18.5.22.142a32.332 32.332 0 0 0 18.3 5.622 32.772 32.772 0 1 0-27.15-14.441l.142.22L1.748 69.8a5.988 5.988 0 0 0 0 8.457zm15.26-45.5a30.236 30.236 0 1 1 30.236 30.24 30.264 30.264 0 0 1-30.236-30.236zm4.756 20.583l.22.268a32.409 32.409 0 0 0 4.409 4.409l.268.22-2.677 2.677-.22-.189a35.541 35.541 0 0 1-4.488-4.488l-.189-.22zM3.528 71.575l13.763-13.764.22.252a39.142 39.142 0 0 0 4.425 4.425l.252.22L8.425 76.472A3.465 3.465 0 0 1 2.5 74.016a3.511 3.511 0 0 1 1.028-2.441z" data-name="Path 145"/>
        </g>
    </g>
</svg>
