<svg xmlns="http://www.w3.org/2000/svg" viewBox="0 0 68 68">
    <defs>
        <style>
            .cls-41,.cls-42,.cls-43,.cls-44{fill:none;stroke-width:12px}.cls-41{stroke:#ffd729}.cls-42{stroke:#455a6e}.cls-42,.cls-43,.cls-44{stroke-miterlimit:10}.cls-43{stroke:#d5dadf}.cls-44{stroke:#848f9b}
        </style>
    </defs>
    <g id="Group_280" data-name="Group 280" transform="translate(2825 -2340)">
        <g id="Group_274" data-name="Group 274" transform="translate(-2825 2340)">
            <path id="Path_251" d="M28 0A28 28 0 1 1 0 28 28 28 0 0 1 28 0z" class="cls-41" data-name="Path 251" transform="translate(6 6)"/>
            <path id="Path_203" d="M6 33.65A28 28 0 0 1 34 6a27.623 27.623 0 0 1 9.205 1.557" class="cls-42" data-name="Path 203"/>
            <path id="Path_204" d="M46.53 187.743A28 28 0 0 1 6 162.7v-.7" class="cls-43" data-name="Path 204" transform="translate(0 -128.7)"/>
            <path id="Path_205" d="M216.3 14.1a28.046 28.046 0 0 1 18.97 22.96" class="cls-44" data-name="Path 205" transform="translate(-173.498 -6.683)"/>
        </g>
    </g>
</svg>
