<svg xmlns="http://www.w3.org/2000/svg" viewBox="0 0 1024 468">
    <defs>
        <style>
            .clss-1,.clss-10,.clss-4,.clss-5,.clss-6,.clss-7,.clss-8,.clss-9{fill:none}.clss-1,.clss-5{stroke:#455a6e}.clss-2,.clss-3{fill:#fff}.clss-2{font-size:16px;font-family:SegoeUI,Segoe UI}.clss-3{font-size:24px;font-family:SegoeUI-Bold,Segoe UI;font-weight:700}.clss-10,.clss-4{stroke:#ffd729}.clss-4,.clss-5,.clss-6,.clss-7{stroke-miterlimit:10;stroke-width:24px}.clss-6,.clss-9{stroke:#d5dadf}.clss-7,.clss-8{stroke:#848f9b}
        </style>
    </defs>
    <g id="Group_340" data-name="Group 340" transform="translate(-168 -1622)">
        <path id="Path_206" d="M10854.318 1634.62h68.8l98.8 107.82" class="clss-1" data-name="Path 206" transform="translate(-10430 4.38)"/>
        <text id="Мы_сформировали_сообщество_инвесторов_близких_к_идее_и_команде_AKTIVO_и_доверяющих_нам_выбор_инвестиционных_объектов." class="clss-2" data-name="Мы сформировали сообщество инвесторов близких к идее и команде AKTIVO и доверяющих нам выбор инвестиционных объектов." transform="translate(168 1671)">
            <tspan x="0" y="17">Мы сформировали сообщество </tspan><tspan x="0" y="41">инвесторов близких к идее и команде </tspan><tspan x="0" y="65">AKTIVO и доверяющих нам выбор </tspan><tspan x="0" y="89">инвестиционных объектов.</tspan>
        </text>
        <text id="Клубные_инвесторы" class="clss-3" data-name="Клубные инвесторы" transform="translate(168 1622)">
            <tspan x="0" y="26">Клубные инвесторы</tspan>
        </text>
        <text id="AKTIVO_работает_с_крупными_финансовыми_организациями_пенсионными_фондами_и_банками_которые_также_могут_участвовать_в_покупке_объекта." class="clss-2" data-name="AKTIVO работает с крупными финансовыми организациями, пенсионными фондами и банками, которые также могут участвовать в покупке объекта." transform="translate(896 1704)">
            <tspan x="0" y="17">AKTIVO работает с крупными </tspan><tspan x="0" y="41">финансовыми организациями, </tspan><tspan x="0" y="65">пенсионными фондами и банками, </tspan><tspan x="0" y="89">которые также могут участвовать </tspan><tspan x="0" y="113">в покупке объекта.</tspan>
        </text>
        <text id="Институциональные_партнеры" class="clss-3" data-name="Институциональные партнеры" transform="translate(896 1622)">
            <tspan x="0" y="26">Институциональные </tspan><tspan x="0" y="58">партнеры</tspan>
        </text>
        <text id="Созданная_нами_интернет-платформа_и_прозрачная_технологическая_инфраструктура_позволяет_любым_физическим_лицам_инвестировать_от_500_000_рублей._" class="clss-2" data-name="Созданная нами интернет-платформа и прозрачная технологическая инфраструктура позволяет любым физическим лицам инвестировать от 500 000 рублей." transform="translate(168 1944)">
            <tspan x="0" y="17">Созданная нами интернет-платформа </tspan><tspan x="0" y="41">и прозрачная технологическая </tspan><tspan x="0" y="65">инфраструктура позволяет любым </tspan><tspan x="0" y="89">физическим лицам инвестировать </tspan><tspan x="0" y="113">от 500 000 рублей.</tspan>
        </text>
        <text id="Краудфандинговые_инвестиции" class="clss-3" data-name="Краудфандинговые инвестиции" transform="translate(168 1862)">
            <tspan x="0" y="26">Краудфандинговые </tspan><tspan x="0" y="58">инвестиции</tspan>
        </text>
        <text id="AKTIVO_участвует_в_каждой_сделке_вкладывая_до_20_стоимости_и_осуществляет_коммерческое_и_эксплуатационное_управление_объектами." class="clss-2" data-name="AKTIVO участвует в каждой сделке вкладывая до 20% стоимости и осуществляет коммерческое и эксплуатационное управление объектами." transform="translate(896 1943)">
            <tspan x="0" y="17">AKTIVO участвует в каждой сделке </tspan><tspan x="0" y="41">вкладывая до 20% стоимости и </tspan><tspan x="0" y="65">осуществляет коммерческое и </tspan><tspan x="0" y="89">эксплуатационное управление </tspan><tspan x="0" y="113">объектами.</tspan>
        </text>
        <text id="Собственные_средства_AKTIVO" class="clss-3" data-name="Собственные средства AKTIVO" transform="translate(896 1862)">
            <tspan x="0" y="26">Собственные средства </tspan><tspan x="0" y="58">AKTIVO</tspan>
        </text>
        <g id="Group_173" data-name="Group 173" transform="translate(554 1709)">
            <circle id="Ellipse_29" cx="120" cy="120" r="120" class="clss-4" data-name="Ellipse 29" transform="translate(6 6)"/>
            <path id="Path_203" d="M6 124.5A119.994 119.994 0 0 1 126 6a118.384 118.384 0 0 1 39.45 6.675" class="clss-5" data-name="Path 203"/>
            <path id="Path_204" d="M179.7 272.325A120.018 120.018 0 0 1 6 165v-3" class="clss-6" data-name="Path 204" transform="translate(0 -39)"/>
            <path id="Path_205" d="M216.3 14.1a120.2 120.2 0 0 1 81.3 98.4" class="clss-7" data-name="Path 205" transform="translate(-52.575 -2.025)"/>
        </g>
        <path id="Path_207" d="M11310.519 1634.62h-40.041l-71.239 100.481" class="clss-8" data-name="Path 207" transform="translate(-10430 4.38)"/>
        <path id="Path_210" d="M10752.6 1906.46h178.321l60.84-38.88" class="clss-9" data-name="Path 210" transform="translate(-10430 9)"/>
        <path id="Path_211" d="M11310.519 1903.46h-41.081l-44.248-44.248" class="clss-10" data-name="Path 211" transform="translate(-10430 9)"/>
    </g>
</svg>
