<svg xmlns="http://www.w3.org/2000/svg" viewBox="0 0 80 80" height='80' width='80'>
    <defs>
        <style>
            .cls-1{fill:#2c3944}.cls-2{fill:#ffd729}
        </style>
    </defs>
    <g id="Group_339" data-name="Group 339" transform="translate(-1016.5 -656.5)">
        <path id="Path_192" d="M40.047-8.333C58.628-8.333 75 7.7 75 26.111S58.628 63.519 40.047 63.519-5 54.521-5 36.111 21.465-8.333 40.047-8.333z" class="cls-1" data-name="Path 192" transform="rotate(37 -453.622 1889.669)"/>
        <g id="Group_170" data-name="Group 170" transform="translate(1023 657)">
            <path id="Path_177" d="M140.819 201.837l5.683 5.717a1.342 1.342 0 0 0 .98.4 1.4 1.4 0 0 0 .964-.4l13.61-13.527a1.335 1.335 0 0 0 0-1.928 1.364 1.364 0 0 0-1.928 0L147.5 204.662l-4.72-4.753a1.364 1.364 0 0 0-1.928 0 1.336 1.336 0 0 0-.033 1.928z" class="cls-2" data-name="Path 177" transform="translate(-117.088 -159.843)"/>
            <path id="Path_178" d="M0 15.139V45.65a34.35 34.35 0 0 0 68.7 0V15.139a1.373 1.373 0 0 0-.848-1.263L34.882.116A1.455 1.455 0 0 0 34.35 0a1.354 1.354 0 0 0-.515.1l-33 13.776A1.349 1.349 0 0 0 0 15.139zm2.742.914L34.35 2.858l31.608 13.195v29.6a31.608 31.608 0 1 1-63.216 0z" class="cls-2" data-name="Path 178"/>
        </g>
    </g>
</svg>
