<svg xmlns="http://www.w3.org/2000/svg" viewBox="0 0 96 96" width='96'>
    <defs>
        <style>
            .svg-bg{fill:#f5f7f9}.clsa-2,.clsa-3,.clsa-7{fill:none}.clsa-3{stroke:#ffd729;stroke-width:2px}.svg-fill{fill:#ffd729}.clsa-5,.clsa-6{stroke:none}
        </style>
    </defs>
    <g id="Symbol_8_1" data-name="Symbol 8 – 1" transform="translate(-488 -1072)">
        <path id="Path_26" d="M49.056-8.333C71.354-8.333 91 10.909 91 33S71.354 77.889 49.056 77.889-5 67.091-5 45 26.758-8.333 49.056-8.333z" class="svg-bg" data-name="Path 26" transform="translate(493 1090.111)"/>
        <g id="Union_1" class="clsa-2" data-name="Union 1">
            <path d="M113 53V35h-13a15 15 0 0 1-15-15v-9h9a15 15 0 0 1 15 15v7h4V9h2v38h4v-7a15 15 0 0 1 15-15h9v9a15 15 0 0 1-15 15h-13v4z" class="clsa-5" transform="translate(422 1103)"/>
            <path d="M128 47c3.472 0 6.737-1.353 9.192-3.808A12.915 12.915 0 0 0 141 33.999v-7h-7a12.915 12.915 0 0 0-9.193 3.808A12.915 12.915 0 0 0 121 40v7h7m-21-14v-7c0-3.472-1.351-6.737-3.807-9.193A12.915 12.915 0 0 0 94.001 13h-7v7c0 3.472 1.352 6.737 3.807 9.192A12.915 12.915 0 0 0 100.001 33h7m8 20h-2V35h-13c-8.285 0-15-6.716-15-15v-9h9c8.284 0 15 6.716 15 15v7h4V9h2v38H119v-7c0-8.285 6.716-15 15-15h9v9c0 8.284-6.716 15-15 15h-13v4z" class="clsa-6 svg-fill" transform="translate(422 1103)"/>
        </g>
        <g id="Ellipse_2" class="clsa-3 svg-lines" data-name="Ellipse 2" transform="translate(516 1072)">
            <circle cx="20" cy="20" r="20" class="clsa-5"/>
            <circle cx="20" cy="20" r="19" class="clsa-7"/>
        </g>
        <path id="Path_39" d="M7.523-.094v2.543H6.082V0a7.943 7.943 0 0 1-4.23-1.008v-2.613a5.831 5.831 0 0 0 1.939 1.043 7.056 7.056 0 0 0 2.291.422v-5.215A9.84 9.84 0 0 1 2.5-9.727a4.118 4.118 0 0 1-.814-2.555A4.171 4.171 0 0 1 2.93-15.3a5.248 5.248 0 0 1 3.152-1.529v-2.109h1.441v2.063a7.334 7.334 0 0 1 3.4.656v2.508a5.963 5.963 0 0 0-3.4-1.008v5.4A10.473 10.473 0 0 1 11.051-7 3.838 3.838 0 0 1 12-4.453a3.874 3.874 0 0 1-1.184 2.883A5.787 5.787 0 0 1 7.523-.094zm-1.441-9.89v-4.676a2.459 2.459 0 0 0-1.395.75 2.013 2.013 0 0 0-.516 1.395 2.266 2.266 0 0 0 .423 1.415 4.543 4.543 0 0 0 1.488 1.116zm1.441 3.246v4.512Q9.516-2.648 9.516-4.3q0-1.384-1.993-2.438z" class="svg-fill" data-name="Path 39" transform="translate(529 1101)"/>
    </g>
</svg>
