<svg xmlns="http://www.w3.org/2000/svg" viewBox="0 0 80.896 106.599">
    <defs>
        <style>
            .cls-1,.cls-3{fill:none}.cls-1{stroke:#ffd729;stroke-width:2px}.cls-2{stroke:none}
        </style>
    </defs>
    <g id="Group_189" data-name="Group 189" transform="translate(-111 -1684.443)">
        <path id="Path_114" d="M39.448 0S27.434 14.345 0 14.345v34.248c0 17.931 7.71 35.145 21.876 46.083A51.526 51.526 0 0 0 39.448 104a49.917 49.917 0 0 0 17.572-9.324C71.186 83.738 78.9 66.524 78.9 48.593V14.345C51.462 14.345 39.448 0 39.448 0z" class="cls-1" data-name="Path 114" transform="translate(112 1686)"/>
        <path id="Path_116" d="M34.69 86.517a38.171 38.171 0 0 1-10.938-6.455C12.634 71.276 6 57.29 6 42.407V18.2A64.2 64.2 0 0 0 34.69 7.8a64.2 64.2 0 0 0 28.69 10.4v24.207c0 14.883-6.634 29.048-17.752 37.655a48.692 48.692 0 0 1-10.938 6.455z" class="cls-1" data-name="Path 116" transform="translate(116.759 1692.186)"/>
        <g id="Group_90" data-name="Group 90" transform="translate(141.044 1723.655)">
            <g id="Rectangle_140" class="cls-1" data-name="Rectangle 140">
                <path d="M0 0h10.628v29.228H0z" class="cls-2" transform="translate(10.18)"/>
                <path d="M1 1h8.628v27.228H1z" class="cls-3" transform="translate(10.18)"/>
            </g>
            <g id="Rectangle_141" class="cls-1" data-name="Rectangle 141">
                <path d="M0 0h10.628v23.913H0z" class="cls-2" transform="translate(0 5.314)"/>
                <path d="M1 1h8.628v21.913H1z" class="cls-3" transform="translate(0 5.314)"/>
            </g>
            <g id="Rectangle_142" class="cls-1" data-name="Rectangle 142">
                <path d="M0 0h2.657v5.314H0z" class="cls-2" transform="translate(2.433 7.971)"/>
                <path d="M1 1h.657v3.314H1z" class="cls-3" transform="translate(2.433 7.971)"/>
            </g>
            <g id="Rectangle_143" class="cls-1" data-name="Rectangle 143">
                <path d="M0 0h2.657v5.314H0z" class="cls-2" transform="translate(2.433 15.942)"/>
                <path d="M1 1h.657v3.314H1z" class="cls-3" transform="translate(2.433 15.942)"/>
            </g>
            <g id="Rectangle_144" class="cls-1" data-name="Rectangle 144">
                <path d="M0 0h2.657v5.314H0z" class="cls-2" transform="rotate(90 5.09 13.061)"/>
                <path d="M1 1h.657v3.314H1z" class="cls-3" transform="rotate(90 5.09 13.061)"/>
            </g>
            <g id="Rectangle_145" class="cls-1" data-name="Rectangle 145">
                <path d="M0 0h2.657v5.314H0z" class="cls-2" transform="rotate(90 7.747 10.404)"/>
                <path d="M1 1h.657v3.314H1z" class="cls-3" transform="rotate(90 7.747 10.404)"/>
            </g>
            <g id="Rectangle_146" class="cls-1" data-name="Rectangle 146">
                <path d="M0 0h2.657v5.314H0z" class="cls-2" transform="rotate(90 -.224 18.375)"/>
                <path d="M1 1h.657v3.314H1z" class="cls-3" transform="rotate(90 -.224 18.375)"/>
            </g>
            <g id="Rectangle_147" class="cls-1" data-name="Rectangle 147">
                <path d="M0 0h2.657v5.314H0z" class="cls-2" transform="rotate(90 2.433 15.718)"/>
                <path d="M1 1h.657v3.314H1z" class="cls-3" transform="rotate(90 2.433 15.718)"/>
            </g>
            <g id="Rectangle_148" class="cls-1" data-name="Rectangle 148">
                <path d="M0 0h5.314v5.314H0z" class="cls-2" transform="translate(2.433 23.913)"/>
                <path d="M1 1h3.314v3.314H1z" class="cls-3" transform="translate(2.433 23.913)"/>
            </g>
            <g id="Rectangle_149" class="cls-1" data-name="Rectangle 149">
                <path d="M0 0h5.314v5.314H0z" class="cls-2" transform="translate(12.837 23.913)"/>
                <path d="M1 1h3.314v3.314H1z" class="cls-3" transform="translate(12.837 23.913)"/>
            </g>
        </g>
        <path id="Path_123" d="M203 1691.046v-13.969" class="cls-1" data-name="Path 123" transform="translate(-51.552 8.94)"/>
        <path id="Path_124" d="M203 1700.416v-11.262" class="cls-1" data-name="Path 124" transform="translate(-51.552 89.545)"/>
    </g>
</svg>
